<svg width="40" height="40" viewBox="0 0 40 40" fill="none" xmlns="http://www.w3.org/2000/svg">
<rect width="40" height="40" rx="5" fill="#198CD9"/>
<ellipse cx="20" cy="20" rx="12" ry="12" fill="white"/>
<path d="M25.958 16.2472C25.958 17.1674 25.2352 17.8903 24.3718 17.8903C23.5084 17.8903 22.7856 17.1674 22.7856 16.2472C22.7856 15.327 23.5084 14.6042 24.3718 14.6042C25.2352 14.6042 25.958 15.327 25.958 16.2472Z" stroke="#A1B761"/>
<path d="M25.1238 16.2472C25.1238 16.694 24.7746 17.033 24.3721 17.033C23.9695 17.033 23.6204 16.694 23.6204 16.2472C23.6204 15.8005 23.9695 15.4614 24.3721 15.4614C24.7746 15.4614 25.1238 15.8005 25.1238 16.2472Z" stroke="#A1B761"/>
<rect width="0.799234" height="0.0111591" rx="0.00557957" transform="matrix(0.83915 -0.5439 0 -1 26.8 14.8463)" fill="#A1B761"/>
<line x1="13.5" y1="26" x2="13.5" y2="14.2927" stroke="#198CD9"/>
<line x1="14" y1="25.5" x2="25.4286" y2="25.5" stroke="#198CD9"/>
<path d="M14.1431 25.7073L18.8315 20.3853C19.2112 19.9543 19.7579 19.7073 20.3323 19.7073H20.7257C21.4278 19.7073 22.0785 19.3391 22.4401 18.7373L23.0002 17.8049" stroke="#198CD9"/>
</svg>
