<svg width="777" height="1080" viewBox="0 0 777 1080" fill="none" xmlns="http://www.w3.org/2000/svg">
<path fill-rule="evenodd" clip-rule="evenodd" d="M671.772 0L663.117 60.1875C654.462 119.813 637.152 240.188 654.462 360C671.772 479.812 724.614 600.188 750.579 720C777 839.812 777 960.188 777 1019.81V1080H567V1019.81C567 960.188 567 839.812 567 720C567 600.188 567 479.812 567 360C567 240.188 567 119.813 567 60.1875V0L671.772 0Z" fill="#198CD9"/>
<path d="M676.406 775.75H678.75V772H676.406C674.597 772 673.125 773.963 673.125 776.375V778.25H671.25V782H673.125V792H675.938V782H678.281L678.75 778.25H675.938V776.375C675.938 776.036 676.152 775.75 676.406 775.75Z" fill="white"/>
<rect y="1" width="567" height="1080" fill="url(#paint0_linear)"/>
<path d="M251.84 383V336.376H268.992C272.213 336.376 274.955 336.675 277.216 337.272C279.477 337.869 281.323 338.712 282.752 339.8C284.181 340.888 285.216 342.211 285.856 343.768C286.517 345.325 286.848 347.064 286.848 348.984C286.848 350.029 286.699 351.043 286.4 352.024C286.101 352.984 285.632 353.891 284.992 354.744C284.352 355.597 283.531 356.376 282.528 357.08C281.525 357.763 280.32 358.36 278.912 358.872C281.984 359.619 284.256 360.835 285.728 362.52C287.2 364.184 287.936 366.328 287.936 368.952C287.936 370.936 287.552 372.781 286.784 374.488C286.016 376.195 284.885 377.688 283.392 378.968C281.92 380.227 280.096 381.219 277.92 381.944C275.744 382.648 273.259 383 270.464 383H251.84ZM262.656 363.224V374.84H270.272C271.701 374.84 272.864 374.659 273.76 374.296C274.677 373.933 275.392 373.464 275.904 372.888C276.416 372.312 276.768 371.661 276.96 370.936C277.152 370.211 277.248 369.475 277.248 368.728C277.248 367.875 277.131 367.107 276.896 366.424C276.683 365.741 276.299 365.165 275.744 364.696C275.211 364.227 274.496 363.864 273.6 363.608C272.704 363.352 271.573 363.224 270.208 363.224H262.656ZM262.656 355.992H268.288C269.483 355.992 270.56 355.907 271.52 355.736C272.48 355.565 273.291 355.267 273.952 354.84C274.635 354.413 275.147 353.827 275.488 353.08C275.851 352.333 276.032 351.395 276.032 350.264C276.032 349.155 275.893 348.237 275.616 347.512C275.339 346.765 274.912 346.168 274.336 345.72C273.76 345.272 273.024 344.952 272.128 344.76C271.253 344.568 270.208 344.472 268.992 344.472H262.656V355.992ZM308.624 349.304C311.141 349.304 313.435 349.699 315.504 350.488C317.573 351.277 319.344 352.408 320.816 353.88C322.309 355.352 323.461 357.144 324.272 359.256C325.104 361.347 325.52 363.704 325.52 366.328C325.52 368.973 325.104 371.363 324.272 373.496C323.461 375.608 322.309 377.411 320.816 378.904C319.344 380.376 317.573 381.517 315.504 382.328C313.435 383.117 311.141 383.512 308.624 383.512C306.085 383.512 303.771 383.117 301.68 382.328C299.611 381.517 297.819 380.376 296.304 378.904C294.811 377.411 293.648 375.608 292.816 373.496C292.005 371.363 291.6 368.973 291.6 366.328C291.6 363.704 292.005 361.347 292.816 359.256C293.648 357.144 294.811 355.352 296.304 353.88C297.819 352.408 299.611 351.277 301.68 350.488C303.771 349.699 306.085 349.304 308.624 349.304ZM308.624 376.152C310.907 376.152 312.581 375.352 313.648 373.752C314.736 372.131 315.28 369.677 315.28 366.392C315.28 363.107 314.736 360.664 313.648 359.064C312.581 357.464 310.907 356.664 308.624 356.664C306.277 356.664 304.56 357.464 303.472 359.064C302.384 360.664 301.84 363.107 301.84 366.392C301.84 369.677 302.384 372.131 303.472 373.752C304.56 375.352 306.277 376.152 308.624 376.152ZM330.965 383V349.816H337.109C337.728 349.816 338.24 349.955 338.645 350.232C339.072 350.509 339.37 350.925 339.541 351.48L340.117 353.4C340.757 352.803 341.418 352.248 342.101 351.736C342.784 351.224 343.509 350.797 344.277 350.456C345.066 350.093 345.909 349.816 346.805 349.624C347.722 349.411 348.714 349.304 349.781 349.304C351.594 349.304 353.194 349.624 354.581 350.264C355.989 350.883 357.173 351.757 358.133 352.888C359.093 353.997 359.818 355.331 360.309 356.888C360.8 358.424 361.045 360.099 361.045 361.912V383H351.125V361.912C351.125 360.291 350.752 359.032 350.005 358.136C349.258 357.219 348.16 356.76 346.709 356.76C345.621 356.76 344.597 356.995 343.637 357.464C342.677 357.933 341.76 358.563 340.885 359.352V383H330.965ZM380.465 383V349.816H386.353C386.844 349.816 387.249 349.859 387.569 349.944C387.91 350.029 388.188 350.168 388.401 350.36C388.636 350.531 388.806 350.765 388.913 351.064C389.041 351.363 389.148 351.725 389.233 352.152L389.777 355.256C390.993 353.379 392.358 351.896 393.873 350.808C395.388 349.72 397.041 349.176 398.833 349.176C400.348 349.176 401.564 349.539 402.481 350.264L401.201 357.56C401.116 358.008 400.945 358.328 400.689 358.52C400.433 358.691 400.092 358.776 399.665 358.776C399.302 358.776 398.876 358.733 398.385 358.648C397.894 358.541 397.276 358.488 396.529 358.488C393.926 358.488 391.878 359.875 390.385 362.648V383H380.465ZM421.111 349.304C423.308 349.304 425.313 349.645 427.127 350.328C428.961 351.011 430.529 352.003 431.831 353.304C433.153 354.605 434.177 356.205 434.903 358.104C435.649 359.981 436.023 362.115 436.023 364.504C436.023 365.251 435.991 365.859 435.927 366.328C435.863 366.797 435.745 367.171 435.575 367.448C435.404 367.725 435.169 367.917 434.871 368.024C434.593 368.131 434.231 368.184 433.783 368.184H414.647C414.967 370.957 415.809 372.973 417.175 374.232C418.54 375.469 420.3 376.088 422.455 376.088C423.607 376.088 424.599 375.949 425.431 375.672C426.263 375.395 426.999 375.085 427.639 374.744C428.3 374.403 428.897 374.093 429.431 373.816C429.985 373.539 430.561 373.4 431.159 373.4C431.948 373.4 432.545 373.688 432.951 374.264L435.831 377.816C434.807 378.989 433.697 379.949 432.503 380.696C431.329 381.421 430.113 381.997 428.855 382.424C427.617 382.829 426.369 383.107 425.111 383.256C423.873 383.427 422.689 383.512 421.559 383.512C419.233 383.512 417.047 383.139 414.999 382.392C412.972 381.624 411.191 380.493 409.655 379C408.14 377.507 406.935 375.651 406.039 373.432C405.164 371.213 404.727 368.632 404.727 365.688C404.727 363.469 405.1 361.368 405.847 359.384C406.615 357.4 407.703 355.661 409.111 354.168C410.54 352.675 412.257 351.491 414.263 350.616C416.289 349.741 418.572 349.304 421.111 349.304ZM421.303 356.152C419.404 356.152 417.921 356.696 416.855 357.784C415.788 358.851 415.084 360.397 414.743 362.424H427.127C427.127 361.635 427.02 360.867 426.807 360.12C426.615 359.373 426.284 358.712 425.815 358.136C425.367 357.539 424.769 357.059 424.023 356.696C423.276 356.333 422.369 356.152 421.303 356.152ZM453.363 383.512C451.784 383.512 450.387 383.288 449.171 382.84C447.976 382.371 446.963 381.72 446.131 380.888C445.32 380.035 444.702 379.011 444.275 377.816C443.848 376.621 443.635 375.288 443.635 373.816V356.664H440.819C440.307 356.664 439.87 356.504 439.507 356.184C439.144 355.843 438.963 355.352 438.963 354.712V350.84L444.243 349.816L446.195 341.72C446.451 340.696 447.176 340.184 448.371 340.184H453.555V349.88H461.619V356.664H453.555V373.144C453.555 373.912 453.736 374.552 454.099 375.064C454.483 375.555 455.027 375.8 455.731 375.8C456.094 375.8 456.392 375.768 456.627 375.704C456.883 375.619 457.096 375.533 457.267 375.448C457.459 375.341 457.63 375.256 457.779 375.192C457.95 375.107 458.142 375.064 458.355 375.064C458.654 375.064 458.888 375.139 459.059 375.288C459.251 375.416 459.443 375.629 459.635 375.928L462.643 380.632C461.363 381.592 459.923 382.317 458.323 382.808C456.723 383.277 455.07 383.512 453.363 383.512ZM482.124 349.304C484.641 349.304 486.935 349.699 489.004 350.488C491.073 351.277 492.844 352.408 494.316 353.88C495.809 355.352 496.961 357.144 497.772 359.256C498.604 361.347 499.02 363.704 499.02 366.328C499.02 368.973 498.604 371.363 497.772 373.496C496.961 375.608 495.809 377.411 494.316 378.904C492.844 380.376 491.073 381.517 489.004 382.328C486.935 383.117 484.641 383.512 482.124 383.512C479.585 383.512 477.271 383.117 475.18 382.328C473.111 381.517 471.319 380.376 469.804 378.904C468.311 377.411 467.148 375.608 466.316 373.496C465.505 371.363 465.1 368.973 465.1 366.328C465.1 363.704 465.505 361.347 466.316 359.256C467.148 357.144 468.311 355.352 469.804 353.88C471.319 352.408 473.111 351.277 475.18 350.488C477.271 349.699 479.585 349.304 482.124 349.304ZM482.124 376.152C484.407 376.152 486.081 375.352 487.148 373.752C488.236 372.131 488.78 369.677 488.78 366.392C488.78 363.107 488.236 360.664 487.148 359.064C486.081 357.464 484.407 356.664 482.124 356.664C479.777 356.664 478.06 357.464 476.972 359.064C475.884 360.664 475.34 363.107 475.34 366.392C475.34 369.677 475.884 372.131 476.972 373.752C478.06 375.352 479.777 376.152 482.124 376.152ZM513.745 349.816V370.872C513.745 372.515 514.118 373.784 514.865 374.68C515.612 375.576 516.71 376.024 518.161 376.024C519.249 376.024 520.262 375.8 521.201 375.352C522.161 374.904 523.089 374.275 523.985 373.464V349.816H533.905V383H527.761C526.524 383 525.713 382.445 525.329 381.336L524.721 379.416C524.081 380.035 523.42 380.6 522.737 381.112C522.054 381.603 521.318 382.029 520.529 382.392C519.761 382.733 518.929 383 518.033 383.192C517.137 383.405 516.156 383.512 515.089 383.512C513.276 383.512 511.665 383.203 510.257 382.584C508.87 381.944 507.697 381.059 506.737 379.928C505.777 378.797 505.052 377.464 504.561 375.928C504.07 374.392 503.825 372.707 503.825 370.872V349.816H513.745ZM541.59 383V349.816H547.478C547.969 349.816 548.374 349.859 548.694 349.944C549.035 350.029 549.313 350.168 549.526 350.36C549.761 350.531 549.931 350.765 550.038 351.064C550.166 351.363 550.273 351.725 550.358 352.152L550.902 355.256C552.118 353.379 553.483 351.896 554.998 350.808C556.513 349.72 558.166 349.176 559.958 349.176C561.473 349.176 562.689 349.539 563.606 350.264L562.326 357.56C562.241 358.008 562.07 358.328 561.814 358.52C561.558 358.691 561.217 358.776 560.79 358.776C560.427 358.776 560.001 358.733 559.51 358.648C559.019 358.541 558.401 358.488 557.654 358.488C555.051 358.488 553.003 359.875 551.51 362.648V383H541.59ZM593.331 336.376V354.68C593.331 356.643 593.213 358.595 592.979 360.536C592.744 362.456 592.435 364.419 592.051 366.424H585.331C584.947 364.419 584.637 362.456 584.403 360.536C584.168 358.595 584.051 356.643 584.051 354.68V336.376H593.331ZM582.963 377.976C582.963 377.208 583.101 376.493 583.379 375.832C583.677 375.171 584.072 374.595 584.562 374.104C585.075 373.613 585.672 373.229 586.355 372.952C587.037 372.653 587.784 372.504 588.595 372.504C589.384 372.504 590.12 372.653 590.803 372.952C591.485 373.229 592.083 373.613 592.595 374.104C593.107 374.595 593.501 375.171 593.779 375.832C594.077 376.493 594.227 377.208 594.227 377.976C594.227 378.744 594.077 379.469 593.779 380.152C593.501 380.813 593.107 381.389 592.595 381.88C592.083 382.371 591.485 382.755 590.803 383.032C590.12 383.309 589.384 383.448 588.595 383.448C587.784 383.448 587.037 383.309 586.355 383.032C585.672 382.755 585.075 382.371 584.562 381.88C584.072 381.389 583.677 380.813 583.379 380.152C583.101 379.469 582.963 378.744 582.963 377.976Z" fill="white"/>
<defs>
<linearGradient id="paint0_linear" x1="222.365" y1="879" x2="-150.081" y2="848.188" gradientUnits="userSpaceOnUse">
<stop stop-color="#198CD9"/>
<stop offset="1" stop-color="#198CD9" stop-opacity="0.5"/>
</linearGradient>
</defs>
</svg>
