<svg width="358" height="445" viewBox="0 0 358 445" fill="none" xmlns="http://www.w3.org/2000/svg">
<path fill-rule="evenodd" clip-rule="evenodd" d="M394.888 439.426L391.898 408.935C388.909 378.444 382.93 317.462 367.976 264.445C353.021 211.427 329.09 166.374 282.718 141.231C236.346 116.088 167.534 110.855 125.651 81.7297C83.7671 52.6045 68.8122 -0.412999 61.3348 -26.9217L53.8574 -53.4305L161.572 -149L178.026 -130.455C194.479 -111.911 227.387 -74.8214 260.294 -37.7321C293.201 -0.642784 326.109 36.4465 359.016 73.5358C391.923 110.625 424.831 147.714 457.738 184.804C490.645 221.893 523.553 258.982 540.006 277.527L556.46 296.072L394.888 439.426Z" fill="#0099FF"/>
<path fill-rule="evenodd" clip-rule="evenodd" d="M476.394 393.85L470.734 367.801C463.836 344.501 452.515 292.402 408.145 265.471C365.895 237.045 289.713 232.532 261.425 192.39C234.021 153.503 255.396 80.241 232.234 38.3645C208.188 -4.7665 140.489 -15.2579 106.021 -19.129L72.7894 -25.7492L240.335 -143.817L254.479 -123.746C267.738 -104.93 295.142 -66.0423 323.43 -25.9004C350.834 12.9871 378.237 51.8745 405.641 90.762C433.929 130.904 461.333 169.791 488.736 208.679C516.14 247.566 544.428 287.708 557.688 306.525L571.832 326.596L476.394 393.85Z" fill="#00E676"/>
<path fill-rule="evenodd" clip-rule="evenodd" d="M398.976 355.297L385.032 338.792C371.087 322.287 343.199 289.278 337.033 247.435C330.867 205.592 346.423 154.916 337.154 114.335C327.885 73.7541 293.79 43.2685 256.591 14.0448C219.393 -15.1789 179.091 -43.1406 158.94 -57.1215L138.79 -71.1024L324.984 -146.817L332.722 -127.789C340.459 -108.76 355.935 -70.7031 371.411 -32.646C386.887 5.41107 402.362 43.4681 417.838 81.5252C433.314 119.582 448.789 157.639 464.265 195.697C479.741 233.754 495.217 271.811 502.955 290.839L510.692 309.868L398.976 355.297Z" fill="url(#paint0_linear)"/>
<defs>
<linearGradient id="paint0_linear" x1="329.789" y1="83.1827" x2="414.789" y2="331.183" gradientUnits="userSpaceOnUse">
<stop stop-color="#312E3A"/>
<stop offset="1" stop-color="#031C2D"/>
</linearGradient>
</defs>
</svg>
