<svg width="500" height="300" viewBox="0 0 500 300" fill="none" xmlns="http://www.w3.org/2000/svg">
<g clip-path="url(#clip0)">
<path d="M26.0871 299.33C26.0536 299.183 22.8186 284.461 29.4253 272.235C36.0319 260.008 50.1342 254.616 50.2759 254.563L50.9205 254.322L51.0727 254.992C51.1062 255.139 54.3411 269.86 47.7345 282.087C41.1282 294.313 27.0255 299.705 26.8838 299.759L26.239 300L26.0871 299.33ZM50.0365 255.958C47.2117 257.17 36.063 262.478 30.4831 272.804C24.9027 283.131 26.5864 295.344 27.1232 298.364C29.9469 297.154 41.0912 291.855 46.6766 281.518C52.2567 271.191 50.5737 258.98 50.0365 255.958V255.958Z" fill="#F1F1F1"/>
<path d="M42.6858 277.798C30.8134 284.926 26.241 299.085 26.241 299.085C26.241 299.085 40.9175 301.686 52.7899 294.558C64.6623 287.43 69.2347 273.272 69.2347 273.272C69.2347 273.272 54.5582 270.67 42.6858 277.798Z" fill="#F1F1F1"/>
<path d="M222.478 163.529C222.659 162.596 222.633 161.636 222.402 160.714C222.171 159.793 221.739 158.933 221.139 158.196C220.539 157.459 219.784 156.862 218.928 156.447C218.071 156.033 217.134 155.81 216.182 155.796L210.684 141.999L201.467 143.288L209.506 162.664C209.588 164.261 210.254 165.773 211.379 166.912C212.504 168.052 214.008 168.74 215.607 168.847C217.206 168.953 218.789 168.471 220.055 167.491C221.322 166.511 222.184 165.101 222.478 163.529Z" fill="#9F616A"/>
<path d="M205.498 158.681L202.642 151.885L184.845 118.078L185.812 55.5231L185.998 55.4985C197.386 53.997 205.091 106.359 205.413 108.589L216.658 146.967L219.335 155.426L205.498 158.681Z" fill="white"/>
<path d="M178.152 290.588L186.805 290.587L190.921 257.28L178.15 257.281L178.152 290.588Z" fill="#9F616A"/>
<path d="M175.944 287.769L192.985 287.768H192.986C195.866 287.768 198.628 288.91 200.665 290.942C202.701 292.974 203.846 295.731 203.846 298.605V298.957L175.945 298.958L175.944 287.769Z" fill="#2F2E41"/>
<path d="M98.5903 277.431L105.69 282.368L128.15 257.391L117.672 250.104L98.5903 277.431Z" fill="#9F616A"/>
<path d="M98.3948 273.859L112.376 283.581L112.377 283.582C114.739 285.225 116.351 287.738 116.858 290.567C117.364 293.397 116.724 296.311 115.077 298.669L114.876 298.958L91.9844 283.04L98.3948 273.859Z" fill="#2F2E41"/>
<path d="M173.396 282.759L173.022 220.277L167.578 180.989L157.427 215.539L157.407 215.568L120.623 268.861L106.309 261.624L106.388 261.438C107.262 259.362 127.874 210.598 133.414 210.598C133.898 210.632 134.383 210.548 134.827 210.353C135.271 210.158 135.661 209.859 135.963 209.48C137.589 207.313 136.265 202.715 136.251 202.669C134.665 196.106 138.653 193.871 139.447 193.498L141.583 149.491L141.805 149.506L199.717 153.56L197.287 208.581L192.061 280.668L191.881 280.688L173.396 282.759Z" fill="#2F2E41"/>
<path d="M200.602 163.312L200.351 163.291L138.068 158.281L138.222 137.716L141.271 84.0191L141.288 83.9818L153.702 57.0858L162.503 53.1091L175.342 52.4348L175.373 52.4426L187.091 55.3397L199.28 142.661L200.602 163.312Z" fill="white"/>
<path d="M177.354 45.542C185.301 41.2069 188.221 31.2637 183.877 23.3334C179.533 15.403 169.569 12.4885 161.623 16.8237C153.676 21.1588 150.755 31.1019 155.099 39.0323C159.444 46.9626 169.407 49.8771 177.354 45.542Z" fill="#9F616A"/>
<path d="M152.996 35.2906V28.9146C152.996 28.9146 147.844 22.8587 153.512 21.3332C153.512 21.3332 155.057 6.07835 168.454 13.1973C168.454 13.1973 187.003 10.1463 184.942 20.8247C184.942 20.8247 189.579 18.0369 188.034 25.1559L185.044 36.6232C185.044 36.6232 186.488 29.0482 181.851 28.0312L179.274 26.5057C179.274 26.5057 172.061 33.6246 161.241 24.9802C161.241 24.9802 156.603 23.8757 157.118 28.4521C157.634 33.0286 152.996 35.2906 152.996 35.2906Z" fill="#2F2E41"/>
<path d="M167.781 147.954C167.791 147.004 167.593 146.064 167.2 145.199C166.806 144.334 166.228 143.565 165.505 142.947C164.781 142.33 163.931 141.878 163.014 141.623C162.097 141.369 161.135 141.318 160.196 141.475L152.307 128.885L143.471 131.804L154.863 149.426C155.231 150.983 156.159 152.351 157.47 153.27C158.781 154.19 160.385 154.598 161.977 154.416C163.57 154.235 165.04 153.477 166.11 152.286C167.179 151.095 167.774 149.553 167.781 147.954Z" fill="#9F616A"/>
<path d="M147.403 143.986L133.129 115.066L133.142 114.995C133.199 114.675 138.945 82.8379 143.339 71.1355C147.762 59.3591 153.815 56.9946 154.07 56.8997L154.198 56.8523L159.626 62.0477L152.107 112.128L160.212 136.281L147.403 143.986Z" fill="white"/>
<path d="M500 0H472.363V27.5803H500V0Z" fill="#F1F1F1"/>
<path d="M283.707 107.323H256.07V134.904H283.707V107.323Z" fill="#F1F1F1"/>
<path d="M271.582 122.818H490.083V12.4316H271.582V122.818Z" fill="white"/>
<path d="M491.885 124.617H269.78V10.6326H491.885V124.617ZM273.385 121.019H488.28V14.23H273.385V121.019Z" fill="#E5E5E5"/>
<path d="M465.921 51.1531H297.81V56.7166H465.921V51.1531Z" fill="#E5E5E5"/>
<path d="M465.921 64.6453H297.81V70.2088H465.921V64.6453Z" fill="#E5E5E5"/>
<path d="M465.921 84.5669H434.678V89.3951H465.921V84.5669Z" fill="white"/>
<path d="M229.51 299.976H0.600813C0.441467 299.976 0.288648 299.913 0.175974 299.8C0.0632993 299.688 0 299.535 0 299.376C0 299.217 0.0632993 299.065 0.175974 298.952C0.288648 298.84 0.441467 298.777 0.600813 298.777H229.51C229.67 298.777 229.823 298.84 229.935 298.952C230.048 299.065 230.111 299.217 230.111 299.376C230.111 299.535 230.048 299.688 229.935 299.8C229.823 299.913 229.67 299.976 229.51 299.976Z" fill="#CBCBCB"/>
</g>
<defs>
<clipPath id="clip0">
<rect width="500" height="300" fill="white"/>
</clipPath>
</defs>
</svg>
