<svg width="375" height="50" viewBox="0 0 375 50" fill="none" xmlns="http://www.w3.org/2000/svg">
<path fill-rule="evenodd" clip-rule="evenodd" d="M0 20.8117L15.625 15.947C31.25 11.0823 62.5 1.35291 93.75 0.13673C125 -1.07945 156.25 6.21762 187.5 6.21762C218.75 6.21762 250 -1.07945 281.25 0.13673C312.5 1.35291 343.75 11.0823 359.375 15.947L375 20.8117V50H359.375C343.75 50 312.5 50 281.25 50C250 50 218.75 50 187.5 50C156.25 50 125 50 93.75 50C62.5 50 31.25 50 15.625 50H0V20.8117Z" fill="#312E3A"/>
</svg>
