<svg width="1440" height="34" viewBox="0 0 1440 34" fill="none" xmlns="http://www.w3.org/2000/svg">
<path fill-rule="evenodd" clip-rule="evenodd" d="M0 14.3105L60 11.1553C120 8.00021 240 1.68996 360 0.90118C480 0.112398 600 4.84509 720 4.84509C840 4.84509 960 0.112398 1080 0.90118C1200 1.68996 1320 8.00021 1380 11.1553L1440 14.3105V33.2412H1380C1320 33.2412 1200 33.2412 1080 33.2412C960 33.2412 840 33.2412 720 33.2412C600 33.2412 480 33.2412 360 33.2412C240 33.2412 120 33.2412 60 33.2412H0V14.3105Z" fill="#312E3A"/>
</svg>
