<svg width="270" height="270" viewBox="0 0 270 270" fill="none" xmlns="http://www.w3.org/2000/svg">
<path fill-rule="evenodd" clip-rule="evenodd" d="M170.974 47.0518C191.196 55.1687 215.13 57.6872 227.796 75.8895C241.478 95.5504 251.789 124.129 240.811 147.411C229.669 171.044 197.264 169.757 176.479 184.733C161.498 195.527 153.86 216.119 136.911 222.273C118.634 228.911 99.2159 225.88 81.9403 219.064C63.3154 211.716 44.7048 201.201 36.0101 182.465C27.2671 163.625 30.8385 140.7 35.6704 119.358C40.3487 98.6945 48.7318 78.9265 62.9961 63.2698C77.5754 47.2674 95.845 34.1051 116.116 31.0604C135.937 28.0833 152.897 39.7953 170.974 47.0518Z" fill="#76FDBB"/>
<g clip-path="url(#clip0)">
<path d="M173.296 49L23 136.287L27.52 143.763L177.816 56.4762L173.296 49Z" fill="#81C9FA"/>
<path d="M205.963 56.318L55.6665 143.605L60.1865 151.081L210.483 63.7941L205.963 56.318Z" fill="#81C9FA"/>
<path d="M234.896 64.3221L84.5999 151.609L89.1199 159.085L239.416 71.7983L234.896 64.3221Z" fill="#81C9FA"/>
<path d="M120.896 151.322C146.884 151.322 167.952 130.673 167.952 105.202C167.952 79.731 146.884 59.0827 120.896 59.0827C94.9075 59.0827 73.8398 79.731 73.8398 105.202C73.8398 130.673 94.9075 151.322 120.896 151.322Z" fill="white"/>
<path d="M73.49 105.202C73.49 79.5827 94.7562 58.7397 120.896 58.7397C147.036 58.7397 168.302 79.5827 168.302 105.202C168.302 130.822 147.036 151.665 120.896 151.665C94.7562 151.665 73.49 130.822 73.49 105.202ZM74.19 105.202C74.19 130.443 95.1422 150.978 120.896 150.978C146.65 150.978 167.602 130.443 167.602 105.202C167.602 79.961 146.65 59.4258 120.896 59.4258C95.1422 59.4258 74.19 79.961 74.19 105.202H74.19Z" fill="#3F3D56"/>
<path d="M112.508 105.403C112.508 103.777 113 102.187 113.921 100.835C114.843 99.4831 116.153 98.4294 117.686 97.8071C119.219 97.1849 120.905 97.0221 122.532 97.3393C124.159 97.6565 125.654 98.4395 126.827 99.5893C128 100.739 128.799 102.204 129.123 103.799C129.447 105.393 129.28 107.047 128.646 108.549C128.011 110.051 126.935 111.335 125.556 112.238C124.177 113.142 122.555 113.624 120.896 113.624C118.671 113.624 116.538 112.758 114.964 111.216C113.391 109.674 112.508 107.583 112.508 105.403V105.403ZM120.896 97.5824C118.78 97.5847 116.752 98.4094 115.256 99.8754C113.761 101.342 112.919 103.329 112.917 105.403C112.917 106.949 113.385 108.461 114.261 109.747C115.138 111.033 116.384 112.036 117.842 112.628C119.3 113.219 120.905 113.374 122.452 113.073C124 112.771 125.422 112.026 126.538 110.932C127.654 109.839 128.414 108.445 128.722 106.928C129.029 105.411 128.871 103.839 128.267 102.41C127.664 100.981 126.641 99.7596 125.329 98.9003C124.017 98.041 122.474 97.5824 120.896 97.5824Z" fill="#3F3D56"/>
<path d="M104.938 105.403C104.938 102.309 105.874 99.2853 107.627 96.7132C109.381 94.1412 111.873 92.1365 114.789 90.9527C117.705 89.7689 120.914 89.4592 124.009 90.0627C127.105 90.6662 129.948 92.1558 132.18 94.3431C134.412 96.5305 135.932 99.3174 136.547 102.351C137.163 105.385 136.847 108.53 135.639 111.388C134.431 114.246 132.386 116.689 129.762 118.407C127.137 120.126 124.052 121.043 120.896 121.043C118.8 121.043 116.725 120.639 114.789 119.853C112.853 119.067 111.094 117.914 109.612 116.462C108.13 115.01 106.954 113.286 106.152 111.388C105.351 109.49 104.938 107.457 104.938 105.403V105.403ZM120.896 90.1632C117.821 90.1632 114.814 91.0569 112.257 92.7315C109.7 94.406 107.707 96.7861 106.531 99.5707C105.354 102.355 105.046 105.42 105.646 108.376C106.246 111.332 107.727 114.047 109.901 116.179C112.076 118.31 114.846 119.761 117.862 120.349C120.879 120.937 124.005 120.635 126.846 119.482C129.687 118.329 132.116 116.375 133.824 113.869C135.533 111.363 136.445 108.417 136.445 105.403C136.44 101.362 134.8 97.4887 131.885 94.6317C128.97 91.7748 125.018 90.1677 120.896 90.1632Z" fill="#CCCCCC"/>
<path d="M89.7981 105.403C89.7981 99.3745 91.622 93.4817 95.039 88.4695C98.4561 83.4572 103.313 79.5507 108.995 77.2438C114.678 74.9369 120.93 74.3333 126.963 75.5094C132.995 76.6854 138.536 79.5882 142.885 83.8508C147.235 88.1133 150.196 93.5442 151.396 99.4565C152.596 105.369 151.98 111.497 149.627 117.066C147.273 122.636 143.287 127.396 138.173 130.745C133.059 134.094 127.047 135.882 120.896 135.882C112.651 135.872 104.747 132.658 98.9167 126.944C93.0868 121.23 89.8074 113.483 89.7981 105.403ZM120.896 75.3248C114.826 75.3248 108.893 77.0888 103.846 80.3938C98.7995 83.6988 94.8661 88.3963 92.5433 93.8923C90.2206 99.3884 89.6128 105.436 90.797 111.271C91.9811 117.105 94.9039 122.464 99.1958 126.671C103.488 130.877 108.956 133.742 114.909 134.903C120.862 136.063 127.032 135.468 132.64 133.191C138.248 130.914 143.041 127.059 146.413 122.113C149.785 117.167 151.585 111.352 151.585 105.403C151.575 97.4283 148.339 89.7831 142.586 84.1443C136.833 78.5056 129.032 75.3338 120.896 75.3248Z" fill="#CCCCCC"/>
<path d="M120.896 109.012C123.043 109.012 124.783 107.306 124.783 105.202C124.783 103.098 123.043 101.392 120.896 101.392C118.749 101.392 117.009 103.098 117.009 105.202C117.009 107.306 118.749 109.012 120.896 109.012Z" fill="#198CD9"/>
<path d="M110.871 120.041C113.018 120.041 114.758 118.335 114.758 116.231C114.758 114.127 113.018 112.421 110.871 112.421C108.724 112.421 106.984 114.127 106.984 116.231C106.984 118.335 108.724 120.041 110.871 120.041Z" fill="#198CD9"/>
<path d="M149.981 118.436C152.128 118.436 153.869 116.731 153.869 114.627C153.869 112.522 152.128 110.817 149.981 110.817C147.835 110.817 146.094 112.522 146.094 114.627C146.094 116.731 147.835 118.436 149.981 118.436Z" fill="#198CD9"/>
<path d="M120.896 107.007C121.913 107.007 122.737 106.199 122.737 105.202C122.737 104.205 121.913 103.397 120.896 103.397C119.879 103.397 119.054 104.205 119.054 105.202C119.054 106.199 119.879 107.007 120.896 107.007Z" fill="#2F2E41"/>
<path d="M149.981 116.431C150.998 116.431 151.823 115.623 151.823 114.627C151.823 113.63 150.998 112.822 149.981 112.822C148.965 112.822 148.14 113.63 148.14 114.627C148.14 115.623 148.965 116.431 149.981 116.431Z" fill="#2F2E41"/>
<path d="M110.871 118.236C111.888 118.236 112.712 117.428 112.712 116.431C112.712 115.435 111.888 114.627 110.871 114.627C109.854 114.627 109.03 115.435 109.03 116.431C109.03 117.428 109.854 118.236 110.871 118.236Z" fill="#2F2E41"/>
<path d="M34.9675 86.7543C35.9845 86.7543 36.8089 85.9464 36.8089 84.9497C36.8089 83.953 35.9845 83.145 34.9675 83.145C33.9506 83.145 33.1262 83.953 33.1262 84.9497C33.1262 85.9464 33.9506 86.7543 34.9675 86.7543Z" fill="#198CD9"/>
<path d="M120.793 85.0501H39.9797V84.649H121.203V105.302H120.793V85.0501Z" fill="#2F2E41"/>
<path d="M29.6482 84.9497C29.6482 83.9185 29.9602 82.9106 30.5447 82.0532C31.1292 81.1958 31.9599 80.5276 32.9319 80.133C33.9039 79.7384 34.9735 79.6352 36.0053 79.8363C37.0372 80.0375 37.985 80.534 38.7289 81.2632C39.4729 81.9923 39.9795 82.9212 40.1847 83.9326C40.39 84.9439 40.2846 85.9921 39.882 86.9448C39.4794 87.8974 38.7976 88.7117 37.9229 89.2845C37.0481 89.8574 36.0196 90.1632 34.9676 90.1632C34.269 90.1632 33.5773 90.0283 32.9319 89.7663C32.2866 89.5043 31.7002 89.1203 31.2062 88.6362C30.7123 88.1521 30.3204 87.5773 30.0531 86.9448C29.7858 86.3123 29.6482 85.6343 29.6482 84.9497ZM34.9676 80.1372C33.9964 80.1372 33.0471 80.4195 32.2396 80.9483C31.4321 81.4771 30.8028 82.2287 30.4311 83.108C30.0595 83.9874 29.9623 84.955 30.1517 85.8885C30.3412 86.8221 30.8088 87.6796 31.4955 88.3526C32.1822 89.0256 33.0571 89.484 34.0096 89.6697C34.9621 89.8553 35.9494 89.76 36.8466 89.3958C37.7438 89.0316 38.5107 88.4147 39.0502 87.6233C39.5898 86.8319 39.8778 85.9015 39.8778 84.9497C39.8763 83.6738 39.3585 82.4506 38.438 81.5484C37.5174 80.6462 36.2694 80.1387 34.9676 80.1372Z" fill="#2F2E41"/>
<path d="M47.2429 138.689C48.2599 138.689 49.0843 137.881 49.0843 136.884C49.0843 135.887 48.2599 135.079 47.2429 135.079C46.226 135.079 45.4016 135.887 45.4016 136.884C45.4016 137.881 46.226 138.689 47.2429 138.689Z" fill="#198CD9"/>
<path d="M41.9236 136.884C41.9236 135.853 42.2356 134.845 42.8201 133.988C43.4046 133.13 44.2353 132.462 45.2073 132.068C46.1793 131.673 47.2488 131.57 48.2807 131.771C49.3126 131.972 50.2604 132.469 51.0043 133.198C51.7482 133.927 52.2549 134.856 52.4601 135.867C52.6653 136.878 52.56 137.927 52.1574 138.879C51.7548 139.832 51.073 140.646 50.1982 141.219C49.3235 141.792 48.295 142.098 47.2429 142.098C45.8322 142.098 44.4792 141.548 43.4816 140.571C42.484 139.593 41.9236 138.267 41.9236 136.884ZM47.2429 132.072C46.2718 132.072 45.3225 132.354 44.515 132.883C43.7075 133.412 43.0782 134.163 42.7065 135.042C42.3349 135.922 42.2376 136.889 42.4271 137.823C42.6166 138.757 43.0842 139.614 43.7709 140.287C44.4576 140.96 45.3325 141.418 46.285 141.604C47.2375 141.79 48.2248 141.695 49.122 141.33C50.0192 140.966 50.7861 140.349 51.3256 139.558C51.8651 138.766 52.1531 137.836 52.1531 136.884C52.1516 135.608 51.6338 134.385 50.7133 133.483C49.7928 132.581 48.5447 132.073 47.2429 132.072Z" fill="#2F2E41"/>
<path d="M207.063 95.1762C208.079 95.1762 208.904 94.3682 208.904 93.3715C208.904 92.3748 208.079 91.5668 207.063 91.5668C206.046 91.5668 205.221 92.3748 205.221 93.3715C205.221 94.3682 206.046 95.1762 207.063 95.1762Z" fill="#198CD9"/>
<path d="M201.743 93.3715C201.743 92.3403 202.055 91.3324 202.639 90.475C203.224 89.6177 204.055 88.9494 205.027 88.5548C205.999 88.1602 207.068 88.057 208.1 88.2582C209.132 88.4593 210.08 88.9559 210.824 89.685C211.568 90.4141 212.074 91.343 212.279 92.3544C212.485 93.3657 212.379 94.414 211.977 95.3666C211.574 96.3192 210.892 97.1335 210.018 97.7063C209.143 98.2792 208.114 98.585 207.062 98.585C206.364 98.585 205.672 98.4501 205.027 98.1881C204.381 97.9261 203.795 97.5421 203.301 97.058C202.807 96.5739 202.415 95.9991 202.148 95.3666C201.881 94.7341 201.743 94.0561 201.743 93.3715ZM207.062 88.559C205.761 88.5605 204.512 89.068 203.592 89.9702C202.671 90.8724 202.154 92.0956 202.152 93.3715C202.152 94.3233 202.44 95.2537 202.98 96.0451C203.519 96.8365 204.286 97.4534 205.183 97.8176C206.081 98.1819 207.068 98.2772 208.02 98.0915C208.973 97.9058 209.848 97.4474 210.534 96.7744C211.221 96.1014 211.689 95.2439 211.878 94.3103C212.068 93.3768 211.97 92.4092 211.599 91.5298C211.227 90.6505 210.598 89.8989 209.79 89.3701C208.983 88.8413 208.033 88.559 207.062 88.559V88.559Z" fill="#2F2E41"/>
<path d="M149.777 93.9761L201.944 93.171L201.951 93.5718L150.186 94.3709V114.627H149.777V93.9761Z" fill="#2F2E41"/>
<path d="M52.3579 136.684H110.666V116.431H111.075V137.084H52.3579V136.684Z" fill="#2F2E41"/>
<path d="M46.2199 94.3741H23.7148V95.7777H46.2199V94.3741Z" fill="#CCCCCC"/>
<path d="M46.2199 98.3845H23.7148V99.7881H46.2199V98.3845Z" fill="#CCCCCC"/>
<path d="M46.2199 102.395H23.7148V103.798H46.2199V102.395Z" fill="#CCCCCC"/>
<path d="M58.4955 146.309H35.9905V147.712H58.4955V146.309Z" fill="#CCCCCC"/>
<path d="M58.4955 150.319H35.9905V151.723H58.4955V150.319Z" fill="#CCCCCC"/>
<path d="M58.4955 154.329H35.9905V155.733H58.4955V154.329Z" fill="#CCCCCC"/>
<path d="M218.315 102.996H195.81V104.4H218.315V102.996Z" fill="#CCCCCC"/>
<path d="M218.315 107.007H195.81V108.41H218.315V107.007Z" fill="#CCCCCC"/>
<path d="M218.315 111.017H195.81V112.421H218.315V111.017Z" fill="#CCCCCC"/>
<path d="M229.029 222.587L225.828 223.708L219.893 212.142L224.617 210.488L229.029 222.587Z" fill="#FFB8B8"/>
<path d="M220.634 228.956L220.587 228.828C220.208 227.784 220.266 226.635 220.75 225.633C221.234 224.632 222.104 223.859 223.168 223.485L229.471 221.277L230.954 225.342L220.634 228.956Z" fill="#2F2E41"/>
<path d="M208.216 225.69L204.818 225.689L203.201 212.841L208.217 212.841L208.216 225.69Z" fill="#FFB8B8"/>
<path d="M209.083 228.919L198.124 228.918V228.782C198.124 228.233 198.234 227.69 198.449 227.182C198.663 226.675 198.977 226.214 199.373 225.826C199.77 225.438 200.24 225.13 200.757 224.92C201.275 224.71 201.83 224.602 202.39 224.602H202.39L209.083 224.602L209.083 228.919Z" fill="#2F2E41"/>
<path d="M215.962 143.602L214.484 140.74C214.484 140.74 208.978 142.092 208.477 145.22L215.962 143.602Z" fill="#198CD9"/>
<path d="M222.061 176.334L218.041 198.319L228.715 216.819L222.339 219.265L211.527 201.332L210.14 196.441L209.309 221.982L203.558 221.811L200.921 197.962L205.15 175.791L222.061 176.334Z" fill="#2F2E41"/>
<path d="M202.862 180.3C202.737 179.756 202.38 163.135 202.38 163.135C202.38 163.135 208.292 144.113 208.346 143.957L208.367 143.896L212.855 142.246C212.918 142.218 214.414 141.565 215.638 142.109C215.952 142.259 216.228 142.474 216.449 142.74C216.669 143.005 216.827 143.314 216.913 143.646C217.422 144.018 221.091 148.045 221.091 153.509L221.23 166.402L224.305 180.379L224.169 180.407C224.085 180.424 220.336 181.531 214.431 181.531C211.15 181.531 202.862 180.3 202.862 180.3Z" fill="#3F3D56"/>
<path d="M209.893 139.838C213.244 139.838 215.96 137.176 215.96 133.893C215.96 130.609 213.244 127.947 209.893 127.947C206.543 127.947 203.826 130.609 203.826 133.893C203.826 137.176 206.543 139.838 209.893 139.838Z" fill="#FFB8B8"/>
<path opacity="0.2" d="M218.536 160.087L207.923 174.601L206.355 167.823L218.536 160.087Z" fill="black"/>
<path d="M199.699 174.914C200.079 174.899 200.452 174.803 200.79 174.632C201.128 174.461 201.424 174.219 201.656 173.924C201.889 173.629 202.053 173.287 202.136 172.923C202.219 172.559 202.22 172.182 202.138 171.817L210.025 167.076L205.67 165.079L198.849 169.888C198.233 170.063 197.705 170.453 197.363 170.984C197.022 171.516 196.891 172.151 196.996 172.771C197.101 173.391 197.434 173.951 197.932 174.346C198.43 174.741 199.059 174.943 199.699 174.914Z" fill="#FFB8B8"/>
<path d="M205.15 165.194L202.449 167.049L204.74 171.036L207.923 168.455L205.15 165.194Z" fill="#198CD9"/>
<path d="M203.736 165.311L210.09 158.093L207.655 148.138C207.404 147.109 207.543 146.026 208.047 145.09C208.55 144.154 209.384 143.43 210.393 143.053C211.401 142.676 212.515 142.671 213.527 143.04C214.539 143.409 215.379 144.126 215.891 145.058L215.946 145.159L218.189 159.942L206.918 171.265L203.736 165.311Z" fill="#3F3D56"/>
<path d="M215.061 139.055L210.025 139.232C209.718 139.243 208.885 135.996 208.776 135.323C208.69 134.884 208.444 134.492 208.084 134.218C207.724 133.944 207.275 133.809 206.82 133.836C206.443 133.871 205.492 133.181 204.512 132.363C202.65 130.812 202.747 127.898 204.792 126.587C204.848 126.551 204.903 126.518 204.957 126.489C206.247 125.781 207.756 125.543 209.235 125.525C210.576 125.508 211.954 125.674 213.135 126.296C215.252 127.41 216.379 129.847 216.478 132.2C216.577 134.554 215.807 136.855 214.933 139.049" fill="#2F2E41"/>
<path d="M242.723 229H181.455C181.381 229 181.311 228.971 181.259 228.92C181.207 228.869 181.177 228.8 181.177 228.728C181.177 228.656 181.207 228.587 181.259 228.536C181.311 228.485 181.381 228.457 181.455 228.457H242.723C242.796 228.457 242.867 228.485 242.919 228.536C242.971 228.587 243 228.656 243 228.728C243 228.8 242.971 228.869 242.919 228.92C242.867 228.971 242.796 229 242.723 229Z" fill="#3F3D56"/>
</g>
<defs>
<clipPath id="clip0">
<rect width="220" height="180" fill="white" transform="translate(23 49)"/>
</clipPath>
</defs>
</svg>
