<svg width="40" height="40" viewBox="0 0 40 40" fill="none" xmlns="http://www.w3.org/2000/svg">
<rect width="40" height="40" rx="5" fill="#198CD9"/>
<ellipse cx="20" cy="20" rx="12" ry="12" fill="white"/>
<path d="M25.9582 16.2472C25.9582 17.1673 25.2354 17.8902 24.372 17.8902C23.5086 17.8902 22.7858 17.1673 22.7858 16.2472C22.7858 15.327 23.5086 14.6041 24.372 14.6041C25.2354 14.6041 25.9582 15.327 25.9582 16.2472Z" stroke="#A1B761"/>
<path d="M25.1239 16.2479C25.1239 16.6946 24.7748 17.0337 24.3722 17.0337C23.9696 17.0337 23.6205 16.6946 23.6205 16.2479C23.6205 15.8011 23.9696 15.462 24.3722 15.462C24.7748 15.462 25.1239 15.8011 25.1239 16.2479Z" stroke="#A1B761"/>
<rect width="0.799832" height="0.0111794" rx="0.0055897" transform="matrix(0.838952 -0.544205 0 -1 26.8002 14.8468)" fill="#A1B761"/>
<line x1="13.5" y1="25.9999" x2="13.5" y2="14.2926" stroke="#198CD9"/>
<line x1="14" y1="25.4999" x2="25.4286" y2="25.4999" stroke="#198CD9"/>
<path d="M14.143 25.7072L18.8315 20.3852C19.2112 19.9542 19.7578 19.7072 20.3322 19.7072H20.7256C21.4278 19.7072 22.0785 19.3391 22.4401 18.7372L23.0002 17.8048" stroke="#198CD9"/>
</svg>
