<svg width="182" height="266" viewBox="0 0 182 266" fill="none" xmlns="http://www.w3.org/2000/svg">
<path d="M25.45 40.187C25.4827 40.243 25.5107 40.3025 25.534 40.3655C25.5597 40.4262 25.5842 40.488 25.6075 40.551C25.6309 40.4857 25.6554 40.4238 25.681 40.3655C25.7067 40.3048 25.7359 40.2442 25.7685 40.1835L27.466 37.1C27.4964 37.0463 27.5279 37.0137 27.5605 37.002C27.5932 36.9903 27.6399 36.9845 27.7005 36.9845H28.201V42H27.606V38.3145C27.606 38.2655 27.6072 38.213 27.6095 38.157C27.6119 38.101 27.6154 38.0438 27.62 37.9855L25.9015 41.1215C25.8432 41.2265 25.7615 41.279 25.6565 41.279H25.5585C25.4535 41.279 25.3719 41.2265 25.3135 41.1215L23.5565 37.975C23.5635 38.0357 23.5682 38.0952 23.5705 38.1535C23.5752 38.2118 23.5775 38.2655 23.5775 38.3145V42H22.9825V36.9845H23.483C23.5437 36.9845 23.5904 36.9903 23.623 37.002C23.6557 37.0137 23.6872 37.0463 23.7175 37.1L25.45 40.187ZM31.928 42H31.6515C31.5908 42 31.5418 41.9907 31.5045 41.972C31.4672 41.9533 31.4427 41.9137 31.431 41.853L31.361 41.524C31.2677 41.608 31.1767 41.6838 31.088 41.7515C30.9993 41.8168 30.906 41.8728 30.808 41.9195C30.71 41.9638 30.605 41.9977 30.493 42.021C30.3833 42.0443 30.2608 42.056 30.1255 42.056C29.9878 42.056 29.8583 42.0373 29.737 42C29.618 41.9603 29.5142 41.902 29.4255 41.825C29.3368 41.748 29.2657 41.6512 29.212 41.5345C29.1607 41.4155 29.135 41.2755 29.135 41.1145C29.135 40.9745 29.1735 40.8403 29.2505 40.712C29.3275 40.5813 29.4512 40.4658 29.6215 40.3655C29.7942 40.2652 30.0193 40.1835 30.297 40.1205C30.5747 40.0552 30.9142 40.0178 31.3155 40.0085V39.732C31.3155 39.4567 31.256 39.249 31.137 39.109C31.0203 38.9667 30.8465 38.8955 30.6155 38.8955C30.4638 38.8955 30.3355 38.9153 30.2305 38.955C30.1278 38.9923 30.038 39.0355 29.961 39.0845C29.8863 39.1312 29.821 39.1743 29.765 39.214C29.7113 39.2513 29.6577 39.27 29.604 39.27C29.562 39.27 29.5247 39.2595 29.492 39.2385C29.4617 39.2152 29.4372 39.1872 29.4185 39.1545L29.3065 38.955C29.5025 38.766 29.7137 38.6248 29.94 38.5315C30.1663 38.4382 30.4172 38.3915 30.6925 38.3915C30.8908 38.3915 31.067 38.4242 31.221 38.4895C31.375 38.5548 31.5045 38.6458 31.6095 38.7625C31.7145 38.8792 31.7938 39.0203 31.8475 39.186C31.9012 39.3517 31.928 39.5337 31.928 39.732V42ZM30.311 41.6185C30.4207 41.6185 30.521 41.608 30.612 41.587C30.703 41.5637 30.7882 41.5322 30.8675 41.4925C30.9492 41.4505 31.0262 41.4003 31.0985 41.342C31.1732 41.2837 31.2455 41.2172 31.3155 41.1425V40.404C31.0285 40.4133 30.7847 40.4367 30.584 40.474C30.3833 40.509 30.22 40.5557 30.094 40.614C29.968 40.6723 29.8758 40.7412 29.8175 40.8205C29.7615 40.8998 29.7335 40.9885 29.7335 41.0865C29.7335 41.1798 29.7487 41.2603 29.779 41.328C29.8093 41.3957 29.8502 41.4517 29.9015 41.496C29.9528 41.538 30.0135 41.5695 30.0835 41.5905C30.1535 41.6092 30.2293 41.6185 30.311 41.6185ZM33.5648 38.4545V42H32.9418V38.4545H33.5648ZM33.7048 37.3415C33.7048 37.4022 33.692 37.4593 33.6663 37.513C33.643 37.5643 33.6103 37.611 33.5683 37.653C33.5287 37.6927 33.482 37.7242 33.4283 37.7475C33.3747 37.7708 33.3175 37.7825 33.2568 37.7825C33.1962 37.7825 33.139 37.7708 33.0853 37.7475C33.034 37.7242 32.9873 37.6927 32.9453 37.653C32.9057 37.611 32.8742 37.5643 32.8508 37.513C32.8275 37.4593 32.8158 37.4022 32.8158 37.3415C32.8158 37.2808 32.8275 37.2237 32.8508 37.17C32.8742 37.114 32.9057 37.0662 32.9453 37.0265C32.9873 36.9845 33.034 36.9518 33.0853 36.9285C33.139 36.9052 33.1962 36.8935 33.2568 36.8935C33.3175 36.8935 33.3747 36.9052 33.4283 36.9285C33.482 36.9518 33.5287 36.9845 33.5683 37.0265C33.6103 37.0662 33.643 37.114 33.6663 37.17C33.692 37.2237 33.7048 37.2808 33.7048 37.3415ZM37.6089 36.9285C37.8212 36.9285 38.0195 36.96 38.2039 37.023C38.3882 37.086 38.5469 37.1782 38.6799 37.2995C38.8152 37.4185 38.9214 37.5643 38.9984 37.737C39.0754 37.9097 39.1139 38.1057 39.1139 38.325C39.1139 38.5117 39.0859 38.6843 39.0299 38.843C38.9739 39.0017 38.898 39.1545 38.8024 39.3015C38.7067 39.4462 38.5959 39.5873 38.4699 39.725C38.3462 39.8603 38.2144 39.9992 38.0744 40.1415L36.7549 41.4925C36.8482 41.4668 36.9427 41.447 37.0384 41.433C37.134 41.4167 37.2262 41.4085 37.3149 41.4085H38.9949C39.0625 41.4085 39.1162 41.4283 39.1559 41.468C39.1955 41.5077 39.2154 41.559 39.2154 41.622V42H35.8694V41.7865C35.8694 41.7422 35.8775 41.6967 35.8939 41.65C35.9125 41.6033 35.9417 41.5602 35.9814 41.5205L37.5879 39.907C37.7209 39.7717 37.8422 39.6422 37.9519 39.5185C38.0615 39.3925 38.1549 39.2665 38.2319 39.1405C38.3112 39.0145 38.3719 38.8873 38.4139 38.759C38.4559 38.6283 38.4769 38.4895 38.4769 38.3425C38.4769 38.1955 38.4535 38.0672 38.4069 37.9575C38.3602 37.8455 38.296 37.7533 38.2144 37.681C38.1327 37.6087 38.037 37.555 37.9274 37.52C37.8177 37.4827 37.6999 37.464 37.5739 37.464C37.4479 37.464 37.3312 37.4827 37.2239 37.52C37.1165 37.5573 37.0209 37.6098 36.9369 37.6775C36.8552 37.7428 36.7852 37.821 36.7269 37.912C36.6709 38.003 36.6312 38.1033 36.6079 38.213C36.5892 38.2807 36.5612 38.3297 36.5239 38.36C36.4865 38.3903 36.4375 38.4055 36.3769 38.4055C36.3652 38.4055 36.3524 38.4055 36.3384 38.4055C36.3267 38.4032 36.3127 38.4008 36.2964 38.3985L35.9709 38.3425C36.0035 38.1138 36.0665 37.912 36.1599 37.737C36.2532 37.5597 36.371 37.4115 36.5134 37.2925C36.658 37.1735 36.8225 37.0837 37.0069 37.023C37.1935 36.96 37.3942 36.9285 37.6089 36.9285ZM42.7264 40.1905H43.4859V40.5475C43.4859 40.5848 43.4743 40.6163 43.4509 40.642C43.4299 40.6677 43.3961 40.6805 43.3494 40.6805H42.7264V42H42.1769V40.6805H39.9544C39.9078 40.6805 39.8669 40.6677 39.8319 40.642C39.7993 40.614 39.7783 40.5802 39.7689 40.5405L39.7059 40.222L42.1454 36.9845H42.7264V40.1905ZM42.1769 38.122C42.1769 38.0613 42.1781 37.996 42.1804 37.926C42.1851 37.856 42.1933 37.7837 42.2049 37.709L40.3814 40.1905H42.1769V38.122Z" fill="black"/>
<path d="M96.25 40.69C96.0283 40.69 95.83 40.7775 95.6783 40.9146L93.5987 39.7042C93.6133 39.6371 93.625 39.57 93.625 39.5C93.625 39.43 93.6133 39.363 93.5987 39.2959L95.655 38.0971C95.8125 38.243 96.0196 38.3334 96.25 38.3334C96.7342 38.3334 97.125 37.9425 97.125 37.4584C97.125 36.9742 96.7342 36.5834 96.25 36.5834C95.7658 36.5834 95.375 36.9742 95.375 37.4584C95.375 37.5284 95.3867 37.5955 95.4012 37.6625L93.345 38.8613C93.1875 38.7155 92.9804 38.625 92.75 38.625C92.2658 38.625 91.875 39.0159 91.875 39.5C91.875 39.9842 92.2658 40.375 92.75 40.375C92.9804 40.375 93.1875 40.2846 93.345 40.1388L95.4217 41.3521C95.4071 41.4134 95.3983 41.4775 95.3983 41.5417C95.3983 42.0113 95.7804 42.3934 96.25 42.3934C96.7196 42.3934 97.1017 42.0113 97.1017 41.5417C97.1017 41.0721 96.7196 40.69 96.25 40.69Z" fill="#198CD9"/>
<g filter="url(#filter0_d)">
<rect x="107" y="218" width="40" height="15" rx="5" fill="url(#paint0_linear)"/>
</g>
<path d="M115.034 224.481V225.711H116.201V226.26H115.034V227.496H114.434V226.26H113.273V225.711H114.434V224.481H115.034ZM122.24 225.831C122.24 226.149 122.187 226.444 122.081 226.716C121.975 226.986 121.826 227.22 121.634 227.418C121.442 227.616 121.211 227.771 120.941 227.883C120.671 227.993 120.372 228.048 120.044 228.048C119.716 228.048 119.416 227.993 119.144 227.883C118.874 227.771 118.642 227.616 118.448 227.418C118.256 227.22 118.107 226.986 118.001 226.716C117.895 226.444 117.842 226.149 117.842 225.831C117.842 225.513 117.895 225.219 118.001 224.949C118.107 224.677 118.256 224.442 118.448 224.244C118.642 224.046 118.874 223.892 119.144 223.782C119.416 223.67 119.716 223.614 120.044 223.614C120.372 223.614 120.671 223.67 120.941 223.782C121.211 223.894 121.442 224.049 121.634 224.247C121.826 224.443 121.975 224.677 122.081 224.949C122.187 225.219 122.24 225.513 122.24 225.831ZM121.412 225.831C121.412 225.593 121.38 225.38 121.316 225.192C121.254 225.002 121.164 224.841 121.046 224.709C120.928 224.577 120.784 224.476 120.614 224.406C120.446 224.336 120.256 224.301 120.044 224.301C119.832 224.301 119.641 224.336 119.471 224.406C119.301 224.476 119.156 224.577 119.036 224.709C118.918 224.841 118.827 225.002 118.763 225.192C118.699 225.38 118.667 225.593 118.667 225.831C118.667 226.069 118.699 226.283 118.763 226.473C118.827 226.661 118.918 226.821 119.036 226.953C119.156 227.083 119.301 227.183 119.471 227.253C119.641 227.323 119.832 227.358 120.044 227.358C120.256 227.358 120.446 227.323 120.614 227.253C120.784 227.183 120.928 227.083 121.046 226.953C121.164 226.821 121.254 226.661 121.316 226.473C121.38 226.283 121.412 226.069 121.412 225.831ZM122.844 228V223.542H123.585V225.3C123.707 225.17 123.845 225.067 123.999 224.991C124.153 224.913 124.333 224.874 124.539 224.874C124.707 224.874 124.86 224.909 124.998 224.979C125.138 225.047 125.258 225.147 125.358 225.279C125.46 225.411 125.538 225.574 125.592 225.768C125.648 225.962 125.676 226.185 125.676 226.437C125.676 226.667 125.645 226.88 125.583 227.076C125.521 227.272 125.432 227.442 125.316 227.586C125.202 227.73 125.063 227.843 124.899 227.925C124.737 228.005 124.555 228.045 124.353 228.045C124.259 228.045 124.173 228.035 124.095 228.015C124.017 227.997 123.946 227.971 123.882 227.937C123.818 227.903 123.758 227.862 123.702 227.814C123.648 227.764 123.596 227.709 123.546 227.649L123.513 227.856C123.501 227.908 123.48 227.945 123.45 227.967C123.422 227.989 123.383 228 123.333 228H122.844ZM124.284 225.45C124.13 225.45 123.998 225.483 123.888 225.549C123.78 225.613 123.679 225.704 123.585 225.822V227.202C123.669 227.306 123.76 227.379 123.858 227.421C123.958 227.461 124.066 227.481 124.182 227.481C124.294 227.481 124.395 227.46 124.485 227.418C124.575 227.376 124.651 227.312 124.713 227.226C124.777 227.14 124.826 227.032 124.86 226.902C124.894 226.77 124.911 226.615 124.911 226.437C124.911 226.257 124.896 226.105 124.866 225.981C124.838 225.855 124.797 225.753 124.743 225.675C124.689 225.597 124.623 225.54 124.545 225.504C124.469 225.468 124.382 225.45 124.284 225.45ZM127.046 224.922V228.105C127.046 228.239 127.028 228.365 126.992 228.483C126.958 228.601 126.902 228.704 126.824 228.792C126.748 228.882 126.647 228.952 126.521 229.002C126.397 229.054 126.245 229.08 126.065 229.08C125.995 229.08 125.93 229.075 125.87 229.065C125.81 229.057 125.749 229.043 125.687 229.023L125.711 228.624C125.717 228.584 125.733 228.558 125.759 228.546C125.785 228.536 125.835 228.531 125.909 228.531C125.983 228.531 126.045 228.523 126.095 228.507C126.147 228.493 126.188 228.469 126.218 228.435C126.25 228.403 126.272 228.36 126.284 228.306C126.298 228.252 126.305 228.185 126.305 228.105V224.922H127.046ZM127.157 224.025C127.157 224.089 127.144 224.149 127.118 224.205C127.092 224.261 127.057 224.31 127.013 224.352C126.971 224.394 126.921 224.428 126.863 224.454C126.805 224.478 126.743 224.49 126.677 224.49C126.613 224.49 126.552 224.478 126.494 224.454C126.438 224.428 126.389 224.394 126.347 224.352C126.305 224.31 126.271 224.261 126.245 224.205C126.221 224.149 126.209 224.089 126.209 224.025C126.209 223.959 126.221 223.897 126.245 223.839C126.271 223.781 126.305 223.731 126.347 223.689C126.389 223.647 126.438 223.614 126.494 223.59C126.552 223.564 126.613 223.551 126.677 223.551C126.743 223.551 126.805 223.564 126.863 223.59C126.921 223.614 126.971 223.647 127.013 223.689C127.057 223.731 127.092 223.781 127.118 223.839C127.144 223.897 127.157 223.959 127.157 224.025ZM129.141 224.874C129.335 224.874 129.513 224.905 129.675 224.967C129.839 225.029 129.98 225.12 130.098 225.24C130.216 225.358 130.308 225.504 130.374 225.678C130.44 225.85 130.473 226.047 130.473 226.269C130.473 226.325 130.47 226.372 130.464 226.41C130.46 226.446 130.451 226.475 130.437 226.497C130.425 226.517 130.408 226.532 130.386 226.542C130.364 226.55 130.336 226.554 130.302 226.554H128.4C128.422 226.87 128.507 227.102 128.655 227.25C128.803 227.398 128.999 227.472 129.243 227.472C129.363 227.472 129.466 227.458 129.552 227.43C129.64 227.402 129.716 227.371 129.78 227.337C129.846 227.303 129.903 227.272 129.951 227.244C130.001 227.216 130.049 227.202 130.095 227.202C130.125 227.202 130.151 227.208 130.173 227.22C130.195 227.232 130.214 227.249 130.23 227.271L130.446 227.541C130.364 227.637 130.272 227.718 130.17 227.784C130.068 227.848 129.961 227.9 129.849 227.94C129.739 227.978 129.626 228.005 129.51 228.021C129.396 228.037 129.285 228.045 129.177 228.045C128.963 228.045 128.764 228.01 128.58 227.94C128.396 227.868 128.236 227.763 128.1 227.625C127.964 227.485 127.857 227.313 127.779 227.109C127.701 226.903 127.662 226.665 127.662 226.395C127.662 226.185 127.696 225.988 127.764 225.804C127.832 225.618 127.929 225.457 128.055 225.321C128.183 225.183 128.338 225.074 128.52 224.994C128.704 224.914 128.911 224.874 129.141 224.874ZM129.156 225.405C128.94 225.405 128.771 225.466 128.649 225.588C128.527 225.71 128.449 225.883 128.415 226.107H129.807C129.807 226.011 129.794 225.921 129.768 225.837C129.742 225.751 129.702 225.676 129.648 225.612C129.594 225.548 129.526 225.498 129.444 225.462C129.362 225.424 129.266 225.405 129.156 225.405ZM133.237 225.573C133.215 225.601 133.193 225.623 133.171 225.639C133.151 225.655 133.121 225.663 133.081 225.663C133.043 225.663 133.006 225.652 132.97 225.63C132.934 225.606 132.891 225.58 132.841 225.552C132.791 225.522 132.731 225.496 132.661 225.474C132.593 225.45 132.508 225.438 132.406 225.438C132.276 225.438 132.162 225.462 132.064 225.51C131.966 225.556 131.884 225.623 131.818 225.711C131.754 225.799 131.706 225.906 131.674 226.032C131.642 226.156 131.626 226.297 131.626 226.455C131.626 226.619 131.643 226.765 131.677 226.893C131.713 227.021 131.764 227.129 131.83 227.217C131.896 227.303 131.976 227.369 132.07 227.415C132.164 227.459 132.27 227.481 132.388 227.481C132.506 227.481 132.601 227.467 132.673 227.439C132.747 227.409 132.809 227.377 132.859 227.343C132.909 227.307 132.952 227.275 132.988 227.247C133.026 227.217 133.068 227.202 133.114 227.202C133.174 227.202 133.219 227.225 133.249 227.271L133.462 227.541C133.38 227.637 133.291 227.718 133.195 227.784C133.099 227.848 132.999 227.9 132.895 227.94C132.793 227.978 132.687 228.005 132.577 228.021C132.467 228.037 132.358 228.045 132.25 228.045C132.06 228.045 131.881 228.01 131.713 227.94C131.545 227.868 131.398 227.764 131.272 227.628C131.148 227.492 131.049 227.326 130.975 227.13C130.903 226.932 130.867 226.707 130.867 226.455C130.867 226.229 130.899 226.02 130.963 225.828C131.029 225.634 131.125 225.467 131.251 225.327C131.377 225.185 131.533 225.074 131.719 224.994C131.905 224.914 132.119 224.874 132.361 224.874C132.591 224.874 132.792 224.911 132.964 224.985C133.138 225.059 133.294 225.165 133.432 225.303L133.237 225.573ZM134.944 228.048C134.678 228.048 134.473 227.973 134.329 227.823C134.185 227.671 134.113 227.462 134.113 227.196V225.477H133.801C133.761 225.477 133.726 225.464 133.696 225.438C133.668 225.412 133.654 225.373 133.654 225.321V225.027L134.149 224.946L134.305 224.106C134.313 224.066 134.331 224.035 134.359 224.013C134.389 223.991 134.426 223.98 134.47 223.98H134.854V224.949H135.664V225.477H134.854V227.145C134.854 227.241 134.878 227.316 134.926 227.37C134.974 227.424 135.038 227.451 135.118 227.451C135.164 227.451 135.202 227.446 135.232 227.436C135.264 227.424 135.291 227.412 135.313 227.4C135.337 227.388 135.358 227.377 135.376 227.367C135.394 227.355 135.412 227.349 135.43 227.349C135.452 227.349 135.47 227.355 135.484 227.367C135.498 227.377 135.513 227.393 135.529 227.415L135.751 227.775C135.643 227.865 135.519 227.933 135.379 227.979C135.239 228.025 135.094 228.048 134.944 228.048ZM137.042 224.922V228H136.301V224.922H137.042ZM137.153 224.025C137.153 224.089 137.14 224.149 137.114 224.205C137.088 224.261 137.053 224.31 137.009 224.352C136.967 224.394 136.917 224.428 136.859 224.454C136.801 224.478 136.739 224.49 136.673 224.49C136.609 224.49 136.548 224.478 136.49 224.454C136.434 224.428 136.385 224.394 136.343 224.352C136.301 224.31 136.267 224.261 136.241 224.205C136.217 224.149 136.205 224.089 136.205 224.025C136.205 223.959 136.217 223.897 136.241 223.839C136.267 223.781 136.301 223.731 136.343 223.689C136.385 223.647 136.434 223.614 136.49 223.59C136.548 223.564 136.609 223.551 136.673 223.551C136.739 223.551 136.801 223.564 136.859 223.59C136.917 223.614 136.967 223.647 137.009 223.689C137.053 223.731 137.088 223.781 137.114 223.839C137.14 223.897 137.153 223.959 137.153 224.025ZM138.014 228V225.48L137.747 225.438C137.689 225.428 137.642 225.408 137.606 225.378C137.572 225.348 137.555 225.306 137.555 225.252V224.949H138.014V224.721C138.014 224.545 138.04 224.387 138.092 224.247C138.146 224.107 138.222 223.988 138.32 223.89C138.42 223.792 138.541 223.717 138.683 223.665C138.825 223.613 138.985 223.587 139.163 223.587C139.305 223.587 139.437 223.606 139.559 223.644L139.544 224.016C139.54 224.074 139.513 224.11 139.463 224.124C139.413 224.138 139.355 224.145 139.289 224.145C139.201 224.145 139.122 224.155 139.052 224.175C138.984 224.193 138.926 224.226 138.878 224.274C138.83 224.32 138.793 224.382 138.767 224.46C138.743 224.536 138.731 224.631 138.731 224.745V224.949H139.532V225.477H138.755V228H138.014Z" fill="#312E3A"/>
<g filter="url(#filter1_d)">
<rect x="10" y="6" width="162" height="246" rx="15" fill="#F5F5F5"/>
</g>
<rect x="145.857" y="31" width="17.1429" height="1.25" rx="0.625" fill="#312E3A"/>
<rect x="143" y="37.875" width="20" height="1.25" rx="0.625" fill="#312E3A"/>
<rect x="151.572" y="44.75" width="11.4286" height="1.25" rx="0.625" fill="#312E3A"/>
<circle cx="34.5" cy="116.5" r="11" stroke="#ADC3D1" stroke-opacity="0.7" stroke-width="3"/>
<path fill-rule="evenodd" clip-rule="evenodd" d="M40.5821 125.252C40.3428 124.594 40.5832 123.868 41.0997 123.396C43.855 120.878 44.975 116.855 43.6191 113.129C42.2632 109.404 38.8193 107.042 35.09 106.884C34.391 106.855 33.7397 106.452 33.5004 105.795C33.1651 104.874 33.7619 103.871 34.7423 103.875C39.8291 103.896 44.5968 107.044 46.4382 112.103C48.2795 117.162 46.6507 122.638 42.7675 125.924C42.0191 126.557 40.9175 126.173 40.5821 125.252Z" fill="#198CD9"/>
<path d="M31.3485 118.19H32.108V118.547C32.108 118.585 32.0963 118.616 32.073 118.642C32.052 118.668 32.0182 118.68 31.9715 118.68H31.3485V120H30.799V118.68H28.5765C28.5298 118.68 28.489 118.668 28.454 118.642C28.4213 118.614 28.4003 118.58 28.391 118.54L28.328 118.222L30.7675 114.984H31.3485V118.19ZM30.799 116.122C30.799 116.061 30.8002 115.996 30.8025 115.926C30.8072 115.856 30.8153 115.784 30.827 115.709L29.0035 118.19H30.799V116.122ZM36.0985 117.494C36.0985 117.933 36.0507 118.313 35.955 118.635C35.8617 118.955 35.7334 119.219 35.57 119.429C35.4067 119.639 35.213 119.796 34.989 119.898C34.7674 120.001 34.5294 120.053 34.275 120.053C34.0184 120.053 33.7792 120.001 33.5575 119.898C33.3382 119.796 33.1469 119.639 32.9835 119.429C32.8202 119.219 32.6919 118.955 32.5985 118.635C32.5052 118.313 32.4585 117.933 32.4585 117.494C32.4585 117.055 32.5052 116.675 32.5985 116.353C32.6919 116.031 32.8202 115.765 32.9835 115.555C33.1469 115.343 33.3382 115.185 33.5575 115.082C33.7792 114.98 34.0184 114.928 34.275 114.928C34.5294 114.928 34.7674 114.98 34.989 115.082C35.213 115.185 35.4067 115.343 35.57 115.555C35.7334 115.765 35.8617 116.031 35.955 116.353C36.0507 116.675 36.0985 117.055 36.0985 117.494ZM35.451 117.494C35.451 117.111 35.4184 116.79 35.353 116.531C35.29 116.27 35.2037 116.06 35.094 115.901C34.9867 115.743 34.8619 115.63 34.7195 115.562C34.5772 115.492 34.429 115.457 34.275 115.457C34.121 115.457 33.9729 115.492 33.8305 115.562C33.6882 115.63 33.5634 115.743 33.456 115.901C33.3487 116.06 33.2624 116.27 33.197 116.531C33.134 116.79 33.1025 117.111 33.1025 117.494C33.1025 117.877 33.134 118.197 33.197 118.456C33.2624 118.715 33.3487 118.924 33.456 119.083C33.5634 119.242 33.6882 119.356 33.8305 119.426C33.9729 119.494 34.121 119.527 34.275 119.527C34.429 119.527 34.5772 119.494 34.7195 119.426C34.8619 119.356 34.9867 119.242 35.094 119.083C35.2037 118.924 35.29 118.715 35.353 118.456C35.4184 118.197 35.451 117.877 35.451 117.494ZM38.7836 116.195C38.7836 116.391 38.7532 116.568 38.6926 116.724C38.6319 116.878 38.5502 117.009 38.4476 117.116C38.3472 117.221 38.2294 117.301 38.0941 117.357C37.9587 117.413 37.8176 117.441 37.6706 117.441C37.5119 117.441 37.3649 117.413 37.2296 117.357C37.0966 117.301 36.9799 117.221 36.8796 117.116C36.7792 117.009 36.7011 116.878 36.6451 116.724C36.5891 116.568 36.5611 116.391 36.5611 116.195C36.5611 115.995 36.5891 115.816 36.6451 115.66C36.7011 115.504 36.7792 115.372 36.8796 115.264C36.9799 115.157 37.0966 115.075 37.2296 115.019C37.3649 114.963 37.5119 114.935 37.6706 114.935C37.8269 114.935 37.9727 114.963 38.1081 115.019C38.2457 115.075 38.3636 115.157 38.4616 115.264C38.5619 115.372 38.6401 115.504 38.6961 115.66C38.7544 115.816 38.7836 115.995 38.7836 116.195ZM38.2971 116.195C38.2971 116.041 38.2807 115.911 38.2481 115.803C38.2154 115.696 38.1699 115.609 38.1116 115.541C38.0556 115.471 37.9891 115.421 37.9121 115.39C37.8374 115.36 37.7569 115.345 37.6706 115.345C37.5842 115.345 37.5026 115.36 37.4256 115.39C37.3509 115.421 37.2856 115.471 37.2296 115.541C37.1736 115.609 37.1292 115.696 37.0966 115.803C37.0662 115.911 37.0511 116.041 37.0511 116.195C37.0511 116.347 37.0662 116.477 37.0966 116.584C37.1292 116.689 37.1736 116.775 37.2296 116.843C37.2856 116.908 37.3509 116.956 37.4256 116.986C37.5026 117.014 37.5842 117.028 37.6706 117.028C37.7569 117.028 37.8374 117.014 37.9121 116.986C37.9891 116.956 38.0556 116.908 38.1116 116.843C38.1699 116.775 38.2154 116.689 38.2481 116.584C38.2807 116.477 38.2971 116.347 38.2971 116.195ZM40.5371 115.11C40.5674 115.071 40.5989 115.04 40.6316 115.019C40.6666 114.996 40.7121 114.984 40.7681 114.984H41.2161L37.5516 119.898C37.5282 119.929 37.5002 119.953 37.4676 119.972C37.4349 119.991 37.3964 120 37.3521 120H36.8901L40.5371 115.11ZM41.5556 118.817C41.5556 119.013 41.5252 119.188 41.4646 119.342C41.4039 119.496 41.3222 119.627 41.2196 119.734C41.1192 119.839 41.0014 119.919 40.8661 119.975C40.7331 120.032 40.5931 120.06 40.4461 120.06C40.2874 120.06 40.1404 120.032 40.0051 119.975C39.8721 119.919 39.7554 119.839 39.6551 119.734C39.5547 119.627 39.4766 119.496 39.4206 119.342C39.3646 119.188 39.3366 119.013 39.3366 118.817C39.3366 118.616 39.3646 118.438 39.4206 118.281C39.4766 118.123 39.5547 117.99 39.6551 117.882C39.7554 117.775 39.8721 117.693 40.0051 117.637C40.1404 117.581 40.2874 117.553 40.4461 117.553C40.6024 117.553 40.7482 117.581 40.8836 117.637C41.0189 117.693 41.1367 117.775 41.2371 117.882C41.3374 117.99 41.4156 118.123 41.4716 118.281C41.5276 118.438 41.5556 118.616 41.5556 118.817ZM41.0726 118.817C41.0726 118.663 41.0562 118.532 41.0236 118.425C40.9909 118.315 40.9454 118.227 40.8871 118.159C40.8311 118.091 40.7646 118.042 40.6876 118.012C40.6129 117.982 40.5324 117.966 40.4461 117.966C40.3597 117.966 40.2781 117.982 40.2011 118.012C40.1264 118.042 40.0611 118.091 40.0051 118.159C39.9491 118.227 39.9047 118.315 39.8721 118.425C39.8417 118.532 39.8266 118.663 39.8266 118.817C39.8266 118.969 39.8417 119.097 39.8721 119.202C39.9047 119.307 39.9491 119.393 40.0051 119.461C40.0611 119.526 40.1264 119.574 40.2011 119.604C40.2781 119.632 40.3597 119.646 40.4461 119.646C40.5324 119.646 40.6129 119.632 40.6876 119.604C40.7646 119.574 40.8311 119.526 40.8871 119.461C40.9454 119.393 40.9909 119.307 41.0236 119.202C41.0562 119.097 41.0726 118.969 41.0726 118.817Z" fill="#198CD9"/>
<path fill-rule="evenodd" clip-rule="evenodd" d="M174 82.539C170.1 83.4941 166.027 84 161.819 84C133.146 84 117 53.2493 117 23.3428C117 17.6614 117.887 12.1515 119.532 7H164C169.523 7 174 11.4772 174 17V82.539Z" fill="#198CD9" fill-opacity="0.3"/>
<path d="M24.753 85.946V89H23.139V80.324H25.965C26.545 80.324 27.047 80.392 27.471 80.528C27.895 80.664 28.245 80.854 28.521 81.098C28.797 81.342 29.001 81.634 29.133 81.974C29.265 82.314 29.331 82.686 29.331 83.09C29.331 83.51 29.261 83.896 29.121 84.248C28.981 84.596 28.771 84.896 28.491 85.148C28.211 85.4 27.861 85.596 27.441 85.736C27.021 85.876 26.529 85.946 25.965 85.946H24.753ZM24.753 84.686H25.965C26.261 84.686 26.519 84.65 26.739 84.578C26.959 84.502 27.141 84.396 27.285 84.26C27.429 84.12 27.537 83.952 27.609 83.756C27.681 83.556 27.717 83.334 27.717 83.09C27.717 82.858 27.681 82.648 27.609 82.46C27.537 82.272 27.429 82.112 27.285 81.98C27.141 81.848 26.959 81.748 26.739 81.68C26.519 81.608 26.261 81.572 25.965 81.572H24.753V84.686ZM32.8692 82.748C33.2572 82.748 33.6132 82.81 33.9372 82.934C34.2652 83.058 34.5472 83.24 34.7832 83.48C35.0192 83.716 35.2032 84.008 35.3352 84.356C35.4672 84.7 35.5332 85.094 35.5332 85.538C35.5332 85.65 35.5272 85.744 35.5152 85.82C35.5072 85.892 35.4892 85.95 35.4612 85.994C35.4372 86.034 35.4032 86.064 35.3592 86.084C35.3152 86.1 35.2592 86.108 35.1912 86.108H31.3872C31.4312 86.74 31.6012 87.204 31.8972 87.5C32.1932 87.796 32.5852 87.944 33.0732 87.944C33.3132 87.944 33.5192 87.916 33.6912 87.86C33.8672 87.804 34.0192 87.742 34.1472 87.674C34.2792 87.606 34.3932 87.544 34.4892 87.488C34.5892 87.432 34.6852 87.404 34.7772 87.404C34.8372 87.404 34.8892 87.416 34.9332 87.44C34.9772 87.464 35.0152 87.498 35.0472 87.542L35.4792 88.082C35.3152 88.274 35.1312 88.436 34.9272 88.568C34.7232 88.696 34.5092 88.8 34.2852 88.88C34.0652 88.956 33.8392 89.01 33.6072 89.042C33.3792 89.074 33.1572 89.09 32.9412 89.09C32.5132 89.09 32.1152 89.02 31.7472 88.88C31.3792 88.736 31.0592 88.526 30.7872 88.25C30.5152 87.97 30.3012 87.626 30.1452 87.218C29.9892 86.806 29.9112 86.33 29.9112 85.79C29.9112 85.37 29.9792 84.976 30.1152 84.608C30.2512 84.236 30.4452 83.914 30.6972 83.642C30.9532 83.366 31.2632 83.148 31.6272 82.988C31.9952 82.828 32.4092 82.748 32.8692 82.748ZM32.8992 83.81C32.4672 83.81 32.1292 83.932 31.8852 84.176C31.6412 84.42 31.4852 84.766 31.4172 85.214H34.2012C34.2012 85.022 34.1752 84.842 34.1232 84.674C34.0712 84.502 33.9912 84.352 33.8832 84.224C33.7752 84.096 33.6392 83.996 33.4752 83.924C33.3112 83.848 33.1192 83.81 32.8992 83.81ZM36.7354 89V82.844H37.6054C37.7574 82.844 37.8634 82.872 37.9234 82.928C37.9834 82.984 38.0234 83.08 38.0434 83.216L38.1334 83.96C38.3534 83.58 38.6114 83.28 38.9074 83.06C39.2034 82.84 39.5354 82.73 39.9034 82.73C40.2074 82.73 40.4594 82.8 40.6594 82.94L40.4674 84.05C40.4554 84.122 40.4294 84.174 40.3894 84.206C40.3494 84.234 40.2954 84.248 40.2274 84.248C40.1674 84.248 40.0854 84.234 39.9814 84.206C39.8774 84.178 39.7394 84.164 39.5674 84.164C39.2594 84.164 38.9954 84.25 38.7754 84.422C38.5554 84.59 38.3694 84.838 38.2174 85.166V89H36.7354ZM45.9658 89C45.7738 89 45.6478 88.91 45.5878 88.73L45.4678 88.136C45.3398 88.28 45.2058 88.41 45.0658 88.526C44.9258 88.642 44.7738 88.742 44.6098 88.826C44.4498 88.91 44.2758 88.974 44.0878 89.018C43.9038 89.066 43.7038 89.09 43.4878 89.09C43.1518 89.09 42.8438 89.02 42.5638 88.88C42.2838 88.74 42.0418 88.538 41.8378 88.274C41.6378 88.006 41.4818 87.676 41.3698 87.284C41.2618 86.892 41.2078 86.444 41.2078 85.94C41.2078 85.484 41.2698 85.06 41.3938 84.668C41.5178 84.276 41.6958 83.936 41.9278 83.648C42.1598 83.36 42.4378 83.136 42.7618 82.976C43.0858 82.812 43.4498 82.73 43.8538 82.73C44.1978 82.73 44.4918 82.786 44.7358 82.898C44.9798 83.006 45.1978 83.152 45.3898 83.336V80.084H46.8718V89H45.9658ZM43.9918 87.914C44.2998 87.914 44.5618 87.85 44.7778 87.722C44.9938 87.594 45.1978 87.412 45.3898 87.176V84.416C45.2218 84.212 45.0378 84.068 44.8378 83.984C44.6418 83.9 44.4298 83.858 44.2018 83.858C43.9778 83.858 43.7738 83.9 43.5898 83.984C43.4098 84.068 43.2558 84.196 43.1278 84.368C43.0038 84.536 42.9078 84.752 42.8398 85.016C42.7718 85.276 42.7378 85.584 42.7378 85.94C42.7378 86.3 42.7658 86.606 42.8218 86.858C42.8818 87.106 42.9658 87.31 43.0738 87.47C43.1818 87.626 43.3138 87.74 43.4698 87.812C43.6258 87.88 43.7998 87.914 43.9918 87.914ZM48.4775 89V82.844H49.3475C49.4995 82.844 49.6055 82.872 49.6655 82.928C49.7255 82.984 49.7655 83.08 49.7855 83.216L49.8755 83.96C50.0955 83.58 50.3535 83.28 50.6495 83.06C50.9455 82.84 51.2775 82.73 51.6455 82.73C51.9495 82.73 52.2015 82.8 52.4015 82.94L52.2095 84.05C52.1975 84.122 52.1715 84.174 52.1315 84.206C52.0915 84.234 52.0375 84.248 51.9695 84.248C51.9095 84.248 51.8275 84.234 51.7235 84.206C51.6195 84.178 51.4815 84.164 51.3095 84.164C51.0015 84.164 50.7375 84.25 50.5175 84.422C50.2975 84.59 50.1115 84.838 49.9595 85.166V89H48.4775ZM55.92 82.748C56.308 82.748 56.664 82.81 56.988 82.934C57.316 83.058 57.598 83.24 57.834 83.48C58.07 83.716 58.254 84.008 58.386 84.356C58.518 84.7 58.584 85.094 58.584 85.538C58.584 85.65 58.578 85.744 58.566 85.82C58.558 85.892 58.54 85.95 58.512 85.994C58.488 86.034 58.454 86.064 58.41 86.084C58.366 86.1 58.31 86.108 58.242 86.108H54.438C54.482 86.74 54.652 87.204 54.948 87.5C55.244 87.796 55.636 87.944 56.124 87.944C56.364 87.944 56.57 87.916 56.742 87.86C56.918 87.804 57.07 87.742 57.198 87.674C57.33 87.606 57.444 87.544 57.54 87.488C57.64 87.432 57.736 87.404 57.828 87.404C57.888 87.404 57.94 87.416 57.984 87.44C58.028 87.464 58.066 87.498 58.098 87.542L58.53 88.082C58.366 88.274 58.182 88.436 57.978 88.568C57.774 88.696 57.56 88.8 57.336 88.88C57.116 88.956 56.89 89.01 56.658 89.042C56.43 89.074 56.208 89.09 55.992 89.09C55.564 89.09 55.166 89.02 54.798 88.88C54.43 88.736 54.11 88.526 53.838 88.25C53.566 87.97 53.352 87.626 53.196 87.218C53.04 86.806 52.962 86.33 52.962 85.79C52.962 85.37 53.03 84.976 53.166 84.608C53.302 84.236 53.496 83.914 53.748 83.642C54.004 83.366 54.314 83.148 54.678 82.988C55.046 82.828 55.46 82.748 55.92 82.748ZM55.95 83.81C55.518 83.81 55.18 83.932 54.936 84.176C54.692 84.42 54.536 84.766 54.468 85.214H57.252C57.252 85.022 57.226 84.842 57.174 84.674C57.122 84.502 57.042 84.352 56.934 84.224C56.826 84.096 56.69 83.996 56.526 83.924C56.362 83.848 56.17 83.81 55.95 83.81ZM67.2485 80.954C67.2485 81.166 67.1805 81.338 67.0445 81.47C66.9125 81.602 66.6905 81.668 66.3785 81.668H63.9905L63.6785 83.48C64.0705 83.4 64.4285 83.36 64.7525 83.36C65.2085 83.36 65.6085 83.428 65.9525 83.564C66.3005 83.7 66.5925 83.888 66.8285 84.128C67.0645 84.368 67.2425 84.65 67.3625 84.974C67.4825 85.294 67.5425 85.64 67.5425 86.012C67.5425 86.472 67.4605 86.892 67.2965 87.272C67.1365 87.652 66.9125 87.978 66.6245 88.25C66.3365 88.518 65.9945 88.726 65.5985 88.874C65.2065 89.022 64.7785 89.096 64.3145 89.096C64.0425 89.096 63.7845 89.068 63.5405 89.012C63.2965 88.956 63.0665 88.882 62.8505 88.79C62.6385 88.694 62.4405 88.586 62.2565 88.466C62.0765 88.342 61.9145 88.212 61.7705 88.076L62.2265 87.446C62.3225 87.31 62.4505 87.242 62.6105 87.242C62.7105 87.242 62.8105 87.274 62.9105 87.338C63.0145 87.402 63.1345 87.472 63.2705 87.548C63.4065 87.624 63.5645 87.694 63.7445 87.758C63.9245 87.822 64.1425 87.854 64.3985 87.854C64.6705 87.854 64.9105 87.81 65.1185 87.722C65.3265 87.634 65.4985 87.512 65.6345 87.356C65.7745 87.196 65.8785 87.008 65.9465 86.792C66.0185 86.572 66.0545 86.334 66.0545 86.078C66.0545 85.606 65.9165 85.238 65.6405 84.974C65.3685 84.706 64.9665 84.572 64.4345 84.572C64.0145 84.572 63.5925 84.648 63.1685 84.8L62.2445 84.536L62.9645 80.324H67.2485V80.954ZM72.8877 80.084V85.19H73.1637C73.2637 85.19 73.3417 85.176 73.3977 85.148C73.4537 85.12 73.5137 85.068 73.5777 84.992L75.1077 83.102C75.1757 83.022 75.2477 82.96 75.3237 82.916C75.3997 82.868 75.4997 82.844 75.6237 82.844H76.9797L75.0657 85.13C74.9977 85.214 74.9277 85.292 74.8557 85.364C74.7837 85.432 74.7057 85.492 74.6217 85.544C74.7057 85.604 74.7797 85.674 74.8437 85.754C74.9077 85.834 74.9717 85.92 75.0357 86.012L77.0877 89H75.7497C75.6337 89 75.5357 88.98 75.4557 88.94C75.3757 88.9 75.3037 88.832 75.2397 88.736L73.6737 86.402C73.6137 86.31 73.5537 86.25 73.4937 86.222C73.4337 86.194 73.3437 86.18 73.2237 86.18H72.8877V89H71.4057V80.084H72.8877ZM79.5868 82.844V89H78.1048V82.844H79.5868ZM79.8088 81.05C79.8088 81.178 79.7828 81.298 79.7308 81.41C79.6788 81.522 79.6088 81.62 79.5208 81.704C79.4368 81.788 79.3368 81.856 79.2208 81.908C79.1048 81.956 78.9808 81.98 78.8488 81.98C78.7208 81.98 78.5988 81.956 78.4828 81.908C78.3708 81.856 78.2728 81.788 78.1888 81.704C78.1048 81.62 78.0368 81.522 77.9848 81.41C77.9368 81.298 77.9128 81.178 77.9128 81.05C77.9128 80.918 77.9368 80.794 77.9848 80.678C78.0368 80.562 78.1048 80.462 78.1888 80.378C78.2728 80.294 78.3708 80.228 78.4828 80.18C78.5988 80.128 78.7208 80.102 78.8488 80.102C78.9808 80.102 79.1048 80.128 79.2208 80.18C79.3368 80.228 79.4368 80.294 79.5208 80.378C79.6088 80.462 79.6788 80.562 79.7308 80.678C79.7828 80.794 79.8088 80.918 79.8088 81.05ZM82.8446 80.084V89H81.3626V80.084H82.8446ZM87.1524 82.748C87.6124 82.748 88.0284 82.822 88.4004 82.97C88.7764 83.118 89.0964 83.328 89.3604 83.6C89.6244 83.872 89.8284 84.204 89.9724 84.596C90.1164 84.988 90.1884 85.426 90.1884 85.91C90.1884 86.398 90.1164 86.838 89.9724 87.23C89.8284 87.622 89.6244 87.956 89.3604 88.232C89.0964 88.508 88.7764 88.72 88.4004 88.868C88.0284 89.016 87.6124 89.09 87.1524 89.09C86.6924 89.09 86.2744 89.016 85.8984 88.868C85.5224 88.72 85.2004 88.508 84.9324 88.232C84.6684 87.956 84.4624 87.622 84.3144 87.23C84.1704 86.838 84.0984 86.398 84.0984 85.91C84.0984 85.426 84.1704 84.988 84.3144 84.596C84.4624 84.204 84.6684 83.872 84.9324 83.6C85.2004 83.328 85.5224 83.118 85.8984 82.97C86.2744 82.822 86.6924 82.748 87.1524 82.748ZM87.1524 87.95C87.6644 87.95 88.0424 87.778 88.2864 87.434C88.5344 87.09 88.6584 86.586 88.6584 85.922C88.6584 85.258 88.5344 84.752 88.2864 84.404C88.0424 84.056 87.6644 83.882 87.1524 83.882C86.6324 83.882 86.2484 84.058 86.0004 84.41C85.7524 84.758 85.6284 85.262 85.6284 85.922C85.6284 86.582 85.7524 87.086 86.0004 87.434C86.2484 87.778 86.6324 87.95 87.1524 87.95ZM94.9987 84.044C94.9587 84.108 94.9167 84.154 94.8727 84.182C94.8287 84.206 94.7727 84.218 94.7047 84.218C94.6327 84.218 94.5547 84.198 94.4707 84.158C94.3907 84.118 94.2967 84.074 94.1887 84.026C94.0807 83.974 93.9567 83.928 93.8167 83.888C93.6807 83.848 93.5187 83.828 93.3307 83.828C93.0387 83.828 92.8087 83.89 92.6407 84.014C92.4727 84.138 92.3887 84.3 92.3887 84.5C92.3887 84.632 92.4307 84.744 92.5147 84.836C92.6027 84.924 92.7167 85.002 92.8567 85.07C93.0007 85.138 93.1627 85.2 93.3427 85.256C93.5227 85.308 93.7067 85.366 93.8947 85.43C94.0827 85.494 94.2667 85.568 94.4467 85.652C94.6267 85.732 94.7867 85.836 94.9267 85.964C95.0707 86.088 95.1847 86.238 95.2687 86.414C95.3567 86.59 95.4007 86.802 95.4007 87.05C95.4007 87.346 95.3467 87.62 95.2387 87.872C95.1307 88.12 94.9727 88.336 94.7647 88.52C94.5567 88.7 94.2987 88.842 93.9907 88.946C93.6867 89.046 93.3367 89.096 92.9407 89.096C92.7287 89.096 92.5207 89.076 92.3167 89.036C92.1167 89 91.9227 88.948 91.7347 88.88C91.5507 88.812 91.3787 88.732 91.2187 88.64C91.0627 88.548 90.9247 88.448 90.8047 88.34L91.1467 87.776C91.1907 87.708 91.2427 87.656 91.3027 87.62C91.3627 87.584 91.4387 87.566 91.5307 87.566C91.6227 87.566 91.7087 87.592 91.7887 87.644C91.8727 87.696 91.9687 87.752 92.0767 87.812C92.1847 87.872 92.3107 87.928 92.4547 87.98C92.6027 88.032 92.7887 88.058 93.0127 88.058C93.1887 88.058 93.3387 88.038 93.4627 87.998C93.5907 87.954 93.6947 87.898 93.7747 87.83C93.8587 87.762 93.9187 87.684 93.9547 87.596C93.9947 87.504 94.0147 87.41 94.0147 87.314C94.0147 87.17 93.9707 87.052 93.8827 86.96C93.7987 86.868 93.6847 86.788 93.5407 86.72C93.4007 86.652 93.2387 86.592 93.0547 86.54C92.8747 86.484 92.6887 86.424 92.4967 86.36C92.3087 86.296 92.1227 86.222 91.9387 86.138C91.7587 86.05 91.5967 85.94 91.4527 85.808C91.3127 85.676 91.1987 85.514 91.1107 85.322C91.0267 85.13 90.9847 84.898 90.9847 84.626C90.9847 84.374 91.0347 84.134 91.1347 83.906C91.2347 83.678 91.3807 83.48 91.5727 83.312C91.7687 83.14 92.0107 83.004 92.2987 82.904C92.5907 82.8 92.9267 82.748 93.3067 82.748C93.7307 82.748 94.1167 82.818 94.4647 82.958C94.8127 83.098 95.1027 83.282 95.3347 83.51L94.9987 84.044Z" fill="#312E3A"/>
<path d="M21 159C21 156.239 23.2386 154 26 154H159C161.761 154 164 156.239 164 159V252H21V159Z" fill="#E6E6E6"/>
<path d="M33.6 166.268V166.92H31.748V172H30.972V166.92H29.112V166.268H33.6ZM36.2788 172H35.9628C35.8934 172 35.8374 171.989 35.7948 171.968C35.7521 171.947 35.7241 171.901 35.7108 171.832L35.6308 171.456C35.5241 171.552 35.4201 171.639 35.3188 171.716C35.2174 171.791 35.1108 171.855 34.9988 171.908C34.8868 171.959 34.7668 171.997 34.6388 172.024C34.5134 172.051 34.3734 172.064 34.2188 172.064C34.0614 172.064 33.9134 172.043 33.7747 172C33.6388 171.955 33.5201 171.888 33.4188 171.8C33.3174 171.712 33.2361 171.601 33.1748 171.468C33.1161 171.332 33.0868 171.172 33.0868 170.988C33.0868 170.828 33.1308 170.675 33.2188 170.528C33.3068 170.379 33.4481 170.247 33.6428 170.132C33.8401 170.017 34.0974 169.924 34.4148 169.852C34.7321 169.777 35.1201 169.735 35.5788 169.724V169.408C35.5788 169.093 35.5108 168.856 35.3748 168.696C35.2414 168.533 35.0428 168.452 34.7788 168.452C34.6054 168.452 34.4588 168.475 34.3388 168.52C34.2214 168.563 34.1188 168.612 34.0308 168.668C33.9454 168.721 33.8708 168.771 33.8068 168.816C33.7454 168.859 33.6841 168.88 33.6228 168.88C33.5748 168.88 33.5321 168.868 33.4948 168.844C33.4601 168.817 33.4321 168.785 33.4108 168.748L33.2828 168.52C33.5068 168.304 33.7481 168.143 34.0068 168.036C34.2654 167.929 34.5521 167.876 34.8668 167.876C35.0934 167.876 35.2948 167.913 35.4708 167.988C35.6468 168.063 35.7948 168.167 35.9148 168.3C36.0348 168.433 36.1254 168.595 36.1868 168.784C36.2481 168.973 36.2788 169.181 36.2788 169.408V172ZM34.4308 171.564C34.5561 171.564 34.6708 171.552 34.7747 171.528C34.8788 171.501 34.9761 171.465 35.0668 171.42C35.1601 171.372 35.2481 171.315 35.3308 171.248C35.4161 171.181 35.4988 171.105 35.5788 171.02V170.176C35.2508 170.187 34.9721 170.213 34.7428 170.256C34.5134 170.296 34.3268 170.349 34.1828 170.416C34.0388 170.483 33.9334 170.561 33.8668 170.652C33.8028 170.743 33.7708 170.844 33.7708 170.956C33.7708 171.063 33.7881 171.155 33.8228 171.232C33.8574 171.309 33.9041 171.373 33.9628 171.424C34.0214 171.472 34.0908 171.508 34.1708 171.532C34.2508 171.553 34.3374 171.564 34.4308 171.564ZM36.0508 167.324H35.5748C35.5188 167.324 35.4654 167.305 35.4148 167.268L34.9028 166.764L34.8348 166.696L34.7708 166.764L34.2548 167.268C34.2388 167.281 34.2161 167.295 34.1868 167.308C34.1574 167.319 34.1268 167.324 34.0948 167.324H33.6028L34.4948 166.268H35.1588L36.0508 167.324ZM40.1214 168.668C40.1001 168.697 40.0788 168.72 40.0574 168.736C40.0361 168.752 40.0054 168.76 39.9654 168.76C39.9254 168.76 39.8814 168.744 39.8334 168.712C39.7881 168.677 39.7294 168.64 39.6574 168.6C39.5854 168.56 39.4974 168.524 39.3934 168.492C39.2921 168.457 39.1668 168.44 39.0174 168.44C38.8201 168.44 38.6454 168.476 38.4934 168.548C38.3414 168.617 38.2134 168.719 38.1094 168.852C38.0081 168.985 37.9308 169.147 37.8774 169.336C37.8268 169.525 37.8014 169.737 37.8014 169.972C37.8014 170.217 37.8294 170.436 37.8854 170.628C37.9414 170.817 38.0201 170.977 38.1214 171.108C38.2228 171.236 38.3454 171.335 38.4894 171.404C38.6361 171.471 38.8001 171.504 38.9814 171.504C39.1548 171.504 39.2974 171.484 39.4094 171.444C39.5214 171.401 39.6148 171.355 39.6894 171.304C39.7641 171.253 39.8254 171.208 39.8734 171.168C39.9214 171.125 39.9694 171.104 40.0174 171.104C40.0788 171.104 40.1241 171.127 40.1534 171.172L40.3534 171.432C40.1774 171.648 39.9574 171.807 39.6934 171.908C39.4294 172.007 39.1508 172.056 38.8574 172.056C38.6041 172.056 38.3681 172.009 38.1494 171.916C37.9334 171.823 37.7454 171.688 37.5854 171.512C37.4254 171.333 37.2988 171.115 37.2054 170.856C37.1148 170.597 37.0694 170.303 37.0694 169.972C37.0694 169.671 37.1108 169.392 37.1934 169.136C37.2788 168.88 37.4014 168.66 37.5614 168.476C37.7241 168.289 37.9241 168.144 38.1614 168.04C38.3988 167.936 38.6708 167.884 38.9774 167.884C39.2601 167.884 39.5108 167.931 39.7294 168.024C39.9481 168.115 40.1414 168.244 40.3094 168.412L40.1214 168.668ZM41.0918 172V166.108H41.8038V168.492C41.9771 168.308 42.1691 168.161 42.3798 168.052C42.5905 167.94 42.8331 167.884 43.1078 167.884C43.3291 167.884 43.5238 167.921 43.6918 167.996C43.8625 168.068 44.0038 168.172 44.1158 168.308C44.2305 168.441 44.3171 168.603 44.3758 168.792C44.4345 168.981 44.4638 169.191 44.4638 169.42V172H43.7518V169.42C43.7518 169.113 43.6811 168.876 43.5398 168.708C43.4011 168.537 43.1878 168.452 42.8998 168.452C42.6891 168.452 42.4918 168.503 42.3078 168.604C42.1265 168.705 41.9585 168.843 41.8038 169.016V172H41.0918ZM47.1411 167.884C47.3838 167.884 47.6078 167.925 47.8131 168.008C48.0185 168.088 48.1958 168.205 48.3451 168.36C48.4945 168.512 48.6105 168.701 48.6931 168.928C48.7785 169.152 48.8211 169.408 48.8211 169.696C48.8211 169.808 48.8091 169.883 48.7851 169.92C48.7611 169.957 48.7158 169.976 48.6491 169.976H45.9531C45.9585 170.232 45.9931 170.455 46.0571 170.644C46.1211 170.833 46.2091 170.992 46.3211 171.12C46.4331 171.245 46.5665 171.34 46.7211 171.404C46.8758 171.465 47.0491 171.496 47.2411 171.496C47.4198 171.496 47.5731 171.476 47.7011 171.436C47.8318 171.393 47.9438 171.348 48.0371 171.3C48.1305 171.252 48.2078 171.208 48.2691 171.168C48.3331 171.125 48.3878 171.104 48.4331 171.104C48.4918 171.104 48.5371 171.127 48.5691 171.172L48.7691 171.432C48.6811 171.539 48.5758 171.632 48.4531 171.712C48.3305 171.789 48.1985 171.853 48.0571 171.904C47.9185 171.955 47.7745 171.992 47.6251 172.016C47.4758 172.043 47.3278 172.056 47.1811 172.056C46.9011 172.056 46.6425 172.009 46.4051 171.916C46.1705 171.82 45.9665 171.681 45.7931 171.5C45.6225 171.316 45.4891 171.089 45.3931 170.82C45.2971 170.551 45.2491 170.241 45.2491 169.892C45.2491 169.609 45.2918 169.345 45.3771 169.1C45.4651 168.855 45.5905 168.643 45.7531 168.464C45.9158 168.283 46.1145 168.141 46.3491 168.04C46.5838 167.936 46.8478 167.884 47.1411 167.884ZM47.1571 168.408C46.8131 168.408 46.5425 168.508 46.3451 168.708C46.1478 168.905 46.0251 169.18 45.9771 169.532H48.1811C48.1811 169.367 48.1585 169.216 48.1131 169.08C48.0678 168.941 48.0011 168.823 47.9131 168.724C47.8251 168.623 47.7171 168.545 47.5891 168.492C47.4638 168.436 47.3198 168.408 47.1571 168.408ZM52.0524 168.616C52.0204 168.675 51.9711 168.704 51.9044 168.704C51.8644 168.704 51.8191 168.689 51.7684 168.66C51.7178 168.631 51.6551 168.599 51.5804 168.564C51.5084 168.527 51.4218 168.493 51.3204 168.464C51.2191 168.432 51.0991 168.416 50.9604 168.416C50.8404 168.416 50.7324 168.432 50.6364 168.464C50.5404 168.493 50.4578 168.535 50.3884 168.588C50.3218 168.641 50.2698 168.704 50.2324 168.776C50.1978 168.845 50.1804 168.921 50.1804 169.004C50.1804 169.108 50.2098 169.195 50.2684 169.264C50.3298 169.333 50.4098 169.393 50.5084 169.444C50.6071 169.495 50.7191 169.54 50.8444 169.58C50.9698 169.617 51.0978 169.659 51.2284 169.704C51.3618 169.747 51.4911 169.795 51.6164 169.848C51.7418 169.901 51.8538 169.968 51.9524 170.048C52.0511 170.128 52.1298 170.227 52.1884 170.344C52.2498 170.459 52.2804 170.597 52.2804 170.76C52.2804 170.947 52.2471 171.12 52.1804 171.28C52.1138 171.437 52.0151 171.575 51.8844 171.692C51.7538 171.807 51.5938 171.897 51.4044 171.964C51.2151 172.031 50.9964 172.064 50.7484 172.064C50.4658 172.064 50.2098 172.019 49.9804 171.928C49.7511 171.835 49.5564 171.716 49.3964 171.572L49.5644 171.3C49.5858 171.265 49.6111 171.239 49.6404 171.22C49.6698 171.201 49.7084 171.192 49.7564 171.192C49.8044 171.192 49.8551 171.211 49.9084 171.248C49.9618 171.285 50.0258 171.327 50.1004 171.372C50.1778 171.417 50.2698 171.459 50.3764 171.496C50.4858 171.533 50.6218 171.552 50.7844 171.552C50.9231 171.552 51.0444 171.535 51.1484 171.5C51.2524 171.463 51.3391 171.413 51.4084 171.352C51.4778 171.291 51.5284 171.22 51.5604 171.14C51.5951 171.06 51.6124 170.975 51.6124 170.884C51.6124 170.772 51.5818 170.68 51.5204 170.608C51.4618 170.533 51.3831 170.471 51.2844 170.42C51.1858 170.367 51.0724 170.321 50.9444 170.284C50.8191 170.244 50.6898 170.203 50.5564 170.16C50.4258 170.117 50.2964 170.069 50.1684 170.016C50.0431 169.96 49.9311 169.891 49.8324 169.808C49.7338 169.725 49.6538 169.624 49.5924 169.504C49.5338 169.381 49.5044 169.233 49.5044 169.06C49.5044 168.905 49.5364 168.757 49.6004 168.616C49.6644 168.472 49.7578 168.347 49.8804 168.24C50.0031 168.131 50.1538 168.044 50.3324 167.98C50.5111 167.916 50.7151 167.884 50.9444 167.884C51.2111 167.884 51.4498 167.927 51.6604 168.012C51.8738 168.095 52.0578 168.209 52.2124 168.356L52.0524 168.616Z" fill="#312E3A"/>
<rect x="29" y="201" width="127" height="15" rx="2" fill="white"/>
<rect x="29" y="181" width="127" height="15" rx="2" fill="white"/>
<path d="M35.9854 189.26C36.0121 189.26 36.0362 189.271 36.0579 189.292L36.2479 189.5C36.1012 189.67 35.9229 189.802 35.7129 189.897C35.5046 189.993 35.2529 190.04 34.9579 190.04C34.6996 190.04 34.4654 189.996 34.2554 189.907C34.0454 189.817 33.8662 189.692 33.7179 189.532C33.5696 189.371 33.4546 189.177 33.3729 188.952C33.2912 188.727 33.2504 188.48 33.2504 188.21C33.2504 187.94 33.2937 187.692 33.3804 187.467C33.4687 187.242 33.5921 187.049 33.7504 186.887C33.9087 186.726 34.0979 186.601 34.3179 186.512C34.5396 186.422 34.7837 186.377 35.0504 186.377C35.3137 186.377 35.5404 186.418 35.7304 186.5C35.9221 186.582 36.0921 186.692 36.2404 186.832L36.0829 187.055C36.0712 187.072 36.0579 187.086 36.0429 187.097C36.0279 187.107 36.0062 187.112 35.9779 187.112C35.9562 187.112 35.9329 187.105 35.9079 187.09C35.8846 187.073 35.8562 187.053 35.8229 187.03C35.7896 187.007 35.7504 186.982 35.7054 186.955C35.6604 186.928 35.6071 186.903 35.5454 186.88C35.4837 186.857 35.4121 186.837 35.3304 186.822C35.2487 186.806 35.1546 186.797 35.0479 186.797C34.8562 186.797 34.6804 186.831 34.5204 186.897C34.3621 186.962 34.2254 187.056 34.1104 187.177C33.9954 187.299 33.9054 187.447 33.8404 187.622C33.7771 187.797 33.7454 187.993 33.7454 188.21C33.7454 188.433 33.7771 188.632 33.8404 188.807C33.9054 188.982 33.9929 189.131 34.1029 189.252C34.2146 189.372 34.3462 189.464 34.4979 189.527C34.6496 189.591 34.8129 189.622 34.9879 189.622C35.0946 189.622 35.1904 189.617 35.2754 189.605C35.3604 189.592 35.4387 189.572 35.5104 189.545C35.5837 189.518 35.6512 189.485 35.7129 189.445C35.7762 189.403 35.8396 189.354 35.9029 189.297C35.9312 189.272 35.9587 189.26 35.9854 189.26ZM37.8382 187.427C38.0232 187.427 38.1899 187.458 38.3382 187.52C38.4882 187.582 38.6149 187.669 38.7182 187.782C38.8232 187.896 38.9032 188.033 38.9582 188.195C39.0149 188.355 39.0432 188.534 39.0432 188.732C39.0432 188.932 39.0149 189.112 38.9582 189.272C38.9032 189.432 38.8232 189.569 38.7182 189.682C38.6149 189.796 38.4882 189.883 38.3382 189.945C38.1899 190.005 38.0232 190.035 37.8382 190.035C37.6532 190.035 37.4857 190.005 37.3357 189.945C37.1874 189.883 37.0607 189.796 36.9557 189.682C36.8507 189.569 36.7699 189.432 36.7132 189.272C36.6566 189.112 36.6282 188.932 36.6282 188.732C36.6282 188.534 36.6566 188.355 36.7132 188.195C36.7699 188.033 36.8507 187.896 36.9557 187.782C37.0607 187.669 37.1874 187.582 37.3357 187.52C37.4857 187.458 37.6532 187.427 37.8382 187.427ZM37.8382 189.688C38.0882 189.688 38.2749 189.604 38.3982 189.437C38.5216 189.269 38.5832 189.035 38.5832 188.735C38.5832 188.433 38.5216 188.198 38.3982 188.03C38.2749 187.862 38.0882 187.777 37.8382 187.777C37.7116 187.777 37.6016 187.799 37.5082 187.842C37.4149 187.886 37.3366 187.948 37.2732 188.03C37.2116 188.112 37.1649 188.212 37.1332 188.332C37.1032 188.451 37.0882 188.585 37.0882 188.735C37.0882 188.885 37.1032 189.019 37.1332 189.137C37.1649 189.256 37.2116 189.356 37.2732 189.437C37.3366 189.517 37.4149 189.579 37.5082 189.622C37.6016 189.666 37.7116 189.688 37.8382 189.688ZM39.9766 187.467V189.082C39.9766 189.274 40.0207 189.422 40.1091 189.527C40.1974 189.632 40.3307 189.685 40.5091 189.685C40.6391 189.685 40.7616 189.654 40.8766 189.592C40.9916 189.531 41.0974 189.445 41.1941 189.335V187.467H41.6391V190H41.3741C41.3107 190 41.2707 189.969 41.2541 189.907L41.2191 189.635C41.1091 189.757 40.9857 189.855 40.8491 189.93C40.7124 190.003 40.5557 190.04 40.3791 190.04C40.2407 190.04 40.1182 190.018 40.0116 189.972C39.9066 189.926 39.8182 189.861 39.7466 189.777C39.6749 189.694 39.6207 189.593 39.5841 189.475C39.5491 189.357 39.5316 189.226 39.5316 189.082V187.467H39.9766ZM42.3699 190V187.467H42.6249C42.6732 187.467 42.7065 187.477 42.7249 187.495C42.7432 187.513 42.7557 187.545 42.7624 187.59L42.7924 187.985C42.879 187.808 42.9857 187.671 43.1124 187.572C43.2407 187.472 43.3907 187.422 43.5624 187.422C43.6324 187.422 43.6957 187.431 43.7524 187.447C43.809 187.462 43.8615 187.484 43.9099 187.512L43.8524 187.845C43.8407 187.887 43.8149 187.907 43.7749 187.907C43.7515 187.907 43.7157 187.9 43.6674 187.885C43.619 187.868 43.5515 187.86 43.4649 187.86C43.3099 187.86 43.1799 187.905 43.0749 187.995C42.9715 188.085 42.8849 188.216 42.8149 188.387V190H42.3699ZM44.3865 190V187.467H44.6415C44.6898 187.467 44.7232 187.477 44.7415 187.495C44.7598 187.513 44.7723 187.545 44.779 187.59L44.809 187.985C44.8957 187.808 45.0023 187.671 45.129 187.572C45.2573 187.472 45.4073 187.422 45.579 187.422C45.649 187.422 45.7123 187.431 45.769 187.447C45.8257 187.462 45.8782 187.484 45.9265 187.512L45.869 187.845C45.8573 187.887 45.8315 187.907 45.7915 187.907C45.7682 187.907 45.7323 187.9 45.684 187.885C45.6357 187.868 45.5682 187.86 45.4815 187.86C45.3265 187.86 45.1965 187.905 45.0915 187.995C44.9882 188.085 44.9015 188.216 44.8315 188.387V190H44.3865ZM46.8981 187.467V190H46.4531V187.467H46.8981ZM46.9981 186.672C46.9981 186.716 46.9889 186.757 46.9706 186.795C46.9539 186.832 46.9306 186.865 46.9006 186.895C46.8723 186.923 46.8389 186.946 46.8006 186.962C46.7623 186.979 46.7214 186.987 46.6781 186.987C46.6348 186.987 46.5939 186.979 46.5556 186.962C46.5189 186.946 46.4856 186.923 46.4556 186.895C46.4273 186.865 46.4048 186.832 46.3881 186.795C46.3714 186.757 46.3631 186.716 46.3631 186.672C46.3631 186.629 46.3714 186.588 46.3881 186.55C46.4048 186.51 46.4273 186.476 46.4556 186.447C46.4856 186.417 46.5189 186.394 46.5556 186.377C46.5939 186.361 46.6348 186.352 46.6781 186.352C46.7214 186.352 46.7623 186.361 46.8006 186.377C46.8389 186.394 46.8723 186.417 46.9006 186.447C46.9306 186.476 46.9539 186.51 46.9706 186.55C46.9889 186.588 46.9981 186.629 46.9981 186.672ZM47.6824 190V187.467H47.9374C47.9857 187.467 48.019 187.477 48.0374 187.495C48.0557 187.513 48.0682 187.545 48.0749 187.59L48.1049 187.985C48.1915 187.808 48.2982 187.671 48.4249 187.572C48.5532 187.472 48.7032 187.422 48.8749 187.422C48.9449 187.422 49.0082 187.431 49.0649 187.447C49.1215 187.462 49.174 187.484 49.2224 187.512L49.1649 187.845C49.1532 187.887 49.1274 187.907 49.0874 187.907C49.064 187.907 49.0282 187.9 48.9799 187.885C48.9315 187.868 48.864 187.86 48.7774 187.86C48.6224 187.86 48.4924 187.905 48.3874 187.995C48.284 188.085 48.1974 188.216 48.1274 188.387V190H47.6824ZM52.7458 186.612C52.7458 186.676 52.7258 186.728 52.6858 186.77C52.6458 186.81 52.5783 186.83 52.4833 186.83H51.3583L51.1933 187.77C51.3799 187.73 51.5524 187.71 51.7108 187.71C51.8974 187.71 52.0616 187.737 52.2033 187.792C52.3466 187.847 52.4666 187.923 52.5633 188.02C52.6599 188.117 52.7324 188.231 52.7808 188.362C52.8308 188.494 52.8558 188.637 52.8558 188.792C52.8558 188.982 52.8224 189.154 52.7558 189.307C52.6891 189.461 52.5974 189.592 52.4808 189.702C52.3658 189.811 52.2299 189.894 52.0733 189.952C51.9166 190.011 51.7474 190.04 51.5658 190.04C51.4608 190.04 51.3599 190.029 51.2633 190.008C51.1666 189.987 51.0766 189.96 50.9933 189.925C50.9099 189.89 50.8324 189.85 50.7608 189.805C50.6891 189.76 50.6258 189.712 50.5708 189.662L50.7058 189.472C50.7358 189.429 50.7758 189.407 50.8258 189.407C50.8574 189.407 50.8941 189.421 50.9358 189.447C50.9791 189.472 51.0308 189.501 51.0908 189.532C51.1508 189.564 51.2208 189.593 51.3008 189.62C51.3824 189.645 51.4791 189.657 51.5908 189.657C51.7158 189.657 51.8283 189.637 51.9283 189.597C52.0283 189.557 52.1133 189.501 52.1833 189.427C52.2549 189.352 52.3099 189.263 52.3483 189.16C52.3866 189.057 52.4058 188.941 52.4058 188.812C52.4058 188.701 52.3891 188.6 52.3558 188.51C52.3241 188.42 52.2749 188.343 52.2083 188.28C52.1433 188.217 52.0616 188.167 51.9633 188.132C51.8649 188.097 51.7499 188.08 51.6183 188.08C51.5283 188.08 51.4349 188.087 51.3383 188.102C51.2416 188.117 51.1416 188.142 51.0383 188.175L50.7583 188.092L51.0483 186.417H52.7458V186.612ZM54.1587 188.702L53.3062 187.467H53.7337C53.7703 187.467 53.797 187.473 53.8137 187.485C53.8303 187.497 53.8453 187.513 53.8587 187.535L54.4787 188.485C54.4937 188.438 54.5153 188.392 54.5437 188.345L55.0887 187.545C55.1053 187.522 55.122 187.503 55.1387 187.49C55.1553 187.475 55.1762 187.467 55.2012 187.467H55.6112L54.7587 188.677L55.6462 190H55.2187C55.182 190 55.1528 189.991 55.1312 189.972C55.1112 189.952 55.0945 189.931 55.0812 189.907L54.4437 188.915C54.432 188.963 54.4145 189.007 54.3912 189.045L53.8012 189.907C53.7845 189.931 53.7662 189.952 53.7462 189.972C53.7278 189.991 53.702 190 53.6687 190H53.2712L54.1587 188.702ZM57.0525 190.858V187.467H57.3175C57.3808 187.467 57.4208 187.498 57.4375 187.56L57.475 187.86C57.5833 187.728 57.7067 187.622 57.845 187.542C57.985 187.462 58.1458 187.422 58.3275 187.422C58.4725 187.422 58.6042 187.451 58.7225 187.507C58.8408 187.562 58.9417 187.645 59.025 187.755C59.1083 187.863 59.1725 187.998 59.2175 188.16C59.2625 188.322 59.285 188.507 59.285 188.717C59.285 188.904 59.26 189.078 59.21 189.24C59.16 189.4 59.0883 189.539 58.995 189.657C58.9017 189.774 58.7867 189.867 58.65 189.935C58.515 190.002 58.3625 190.035 58.1925 190.035C58.0358 190.035 57.9017 190.009 57.79 189.957C57.68 189.906 57.5825 189.832 57.4975 189.737V190.858H57.0525ZM58.18 187.782C58.035 187.782 57.9075 187.816 57.7975 187.882C57.6892 187.949 57.5892 188.043 57.4975 188.165V189.39C57.5792 189.5 57.6683 189.577 57.765 189.622C57.8633 189.667 57.9725 189.69 58.0925 189.69C58.3275 189.69 58.5083 189.606 58.635 189.437C58.7617 189.269 58.825 189.029 58.825 188.717C58.825 188.552 58.81 188.411 58.78 188.292C58.7517 188.174 58.71 188.077 58.655 188.002C58.6 187.926 58.5325 187.87 58.4525 187.835C58.3725 187.8 58.2817 187.782 58.18 187.782ZM61.6713 190H61.4738C61.4305 190 61.3955 189.993 61.3688 189.98C61.3421 189.967 61.3246 189.938 61.3163 189.895L61.2663 189.66C61.1996 189.72 61.1346 189.774 61.0713 189.822C61.008 189.869 60.9413 189.909 60.8713 189.942C60.8013 189.974 60.7263 189.998 60.6463 190.015C60.568 190.032 60.4805 190.04 60.3838 190.04C60.2855 190.04 60.193 190.027 60.1063 190C60.0213 189.972 59.9471 189.93 59.8838 189.875C59.8205 189.82 59.7696 189.751 59.7313 189.667C59.6946 189.582 59.6763 189.482 59.6763 189.367C59.6763 189.267 59.7038 189.172 59.7588 189.08C59.8138 188.987 59.9021 188.904 60.0238 188.832C60.1471 188.761 60.308 188.702 60.5063 188.657C60.7046 188.611 60.9471 188.584 61.2338 188.577V188.38C61.2338 188.183 61.1913 188.035 61.1063 187.935C61.023 187.833 60.8988 187.782 60.7338 187.782C60.6255 187.782 60.5338 187.797 60.4588 187.825C60.3855 187.852 60.3213 187.882 60.2663 187.917C60.213 187.951 60.1663 187.982 60.1263 188.01C60.088 188.037 60.0496 188.05 60.0113 188.05C59.9813 188.05 59.9546 188.042 59.9313 188.027C59.9096 188.011 59.8921 187.991 59.8788 187.967L59.7988 187.825C59.9388 187.69 60.0896 187.589 60.2513 187.522C60.413 187.456 60.5921 187.422 60.7888 187.422C60.9305 187.422 61.0563 187.446 61.1663 187.492C61.2763 187.539 61.3688 187.604 61.4438 187.687C61.5188 187.771 61.5755 187.872 61.6138 187.99C61.6521 188.108 61.6713 188.238 61.6713 188.38V190ZM60.5163 189.727C60.5946 189.727 60.6663 189.72 60.7313 189.705C60.7963 189.688 60.8571 189.666 60.9138 189.637C60.9721 189.607 61.0271 189.572 61.0788 189.53C61.1321 189.488 61.1838 189.441 61.2338 189.387V188.86C61.0288 188.867 60.8546 188.883 60.7113 188.91C60.568 188.935 60.4513 188.968 60.3613 189.01C60.2713 189.052 60.2055 189.101 60.1638 189.157C60.1238 189.214 60.1038 189.277 60.1038 189.347C60.1038 189.414 60.1146 189.472 60.1363 189.52C60.158 189.568 60.1871 189.608 60.2238 189.64C60.2605 189.67 60.3038 189.692 60.3538 189.707C60.4038 189.721 60.458 189.727 60.5163 189.727ZM62.3455 190V187.467H62.6005C62.6488 187.467 62.6821 187.477 62.7005 187.495C62.7188 187.513 62.7313 187.545 62.738 187.59L62.768 187.985C62.8546 187.808 62.9613 187.671 63.088 187.572C63.2163 187.472 63.3663 187.422 63.538 187.422C63.608 187.422 63.6713 187.431 63.728 187.447C63.7846 187.462 63.8371 187.484 63.8855 187.512L63.828 187.845C63.8163 187.887 63.7905 187.907 63.7505 187.907C63.7271 187.907 63.6913 187.9 63.643 187.885C63.5946 187.868 63.5271 187.86 63.4405 187.86C63.2855 187.86 63.1555 187.905 63.0505 187.995C62.9471 188.085 62.8605 188.216 62.7905 188.387V190H62.3455ZM65.8239 187.467V190.188C65.8239 190.289 65.8105 190.383 65.7839 190.47C65.7572 190.558 65.7147 190.635 65.6564 190.7C65.5997 190.765 65.5255 190.816 65.4339 190.853C65.3439 190.891 65.2355 190.91 65.1089 190.91C65.0539 190.91 65.0039 190.906 64.9589 190.898C64.9139 190.889 64.8689 190.877 64.8239 190.86L64.8439 190.62C64.8472 190.598 64.8547 190.584 64.8664 190.578C64.878 190.573 64.8964 190.57 64.9214 190.57C64.9347 190.57 64.9489 190.57 64.9639 190.57C64.9789 190.572 64.9972 190.573 65.0189 190.573C65.1489 190.573 65.2414 190.542 65.2964 190.48C65.3514 190.42 65.3789 190.323 65.3789 190.188V187.467H65.8239ZM65.9239 186.672C65.9239 186.716 65.9147 186.757 65.8964 186.795C65.8797 186.832 65.8564 186.865 65.8264 186.895C65.798 186.923 65.7647 186.946 65.7264 186.962C65.688 186.979 65.6472 186.987 65.6039 186.987C65.5605 186.987 65.5197 186.979 65.4814 186.962C65.4447 186.946 65.4114 186.923 65.3814 186.895C65.353 186.865 65.3305 186.832 65.3139 186.795C65.2972 186.757 65.2889 186.716 65.2889 186.672C65.2889 186.629 65.2972 186.588 65.3139 186.55C65.3305 186.51 65.353 186.476 65.3814 186.447C65.4114 186.417 65.4447 186.394 65.4814 186.377C65.5197 186.361 65.5605 186.352 65.6039 186.352C65.6472 186.352 65.688 186.361 65.7264 186.377C65.7647 186.394 65.798 186.417 65.8264 186.447C65.8564 186.476 65.8797 186.51 65.8964 186.55C65.9147 186.588 65.9239 186.629 65.9239 186.672ZM67.6234 187.427C67.8084 187.427 67.9751 187.458 68.1234 187.52C68.2734 187.582 68.4001 187.669 68.5034 187.782C68.6084 187.896 68.6884 188.033 68.7434 188.195C68.8001 188.355 68.8284 188.534 68.8284 188.732C68.8284 188.932 68.8001 189.112 68.7434 189.272C68.6884 189.432 68.6084 189.569 68.5034 189.682C68.4001 189.796 68.2734 189.883 68.1234 189.945C67.9751 190.005 67.8084 190.035 67.6234 190.035C67.4384 190.035 67.2709 190.005 67.1209 189.945C66.9726 189.883 66.8459 189.796 66.7409 189.682C66.6359 189.569 66.5551 189.432 66.4984 189.272C66.4417 189.112 66.4134 188.932 66.4134 188.732C66.4134 188.534 66.4417 188.355 66.4984 188.195C66.5551 188.033 66.6359 187.896 66.7409 187.782C66.8459 187.669 66.9726 187.582 67.1209 187.52C67.2709 187.458 67.4384 187.427 67.6234 187.427ZM67.6234 189.688C67.8734 189.688 68.0601 189.604 68.1834 189.437C68.3067 189.269 68.3684 189.035 68.3684 188.735C68.3684 188.433 68.3067 188.198 68.1834 188.03C68.0601 187.862 67.8734 187.777 67.6234 187.777C67.4967 187.777 67.3867 187.799 67.2934 187.842C67.2001 187.886 67.1217 187.948 67.0584 188.03C66.9967 188.112 66.9501 188.212 66.9184 188.332C66.8884 188.451 66.8734 188.585 66.8734 188.735C66.8734 188.885 66.8884 189.019 66.9184 189.137C66.9501 189.256 66.9967 189.356 67.0584 189.437C67.1217 189.517 67.2001 189.579 67.2934 189.622C67.3867 189.666 67.4967 189.688 67.6234 189.688ZM69.7617 187.467V189.082C69.7617 189.274 69.8059 189.422 69.8942 189.527C69.9826 189.632 70.1159 189.685 70.2942 189.685C70.4242 189.685 70.5467 189.654 70.6617 189.592C70.7767 189.531 70.8826 189.445 70.9792 189.335V187.467H71.4242V190H71.1592C71.0959 190 71.0559 189.969 71.0392 189.907L71.0042 189.635C70.8942 189.757 70.7709 189.855 70.6342 189.93C70.4976 190.003 70.3409 190.04 70.1642 190.04C70.0259 190.04 69.9034 190.018 69.7967 189.972C69.6917 189.926 69.6034 189.861 69.5317 189.777C69.4601 189.694 69.4059 189.593 69.3692 189.475C69.3342 189.357 69.3167 189.226 69.3167 189.082V187.467H69.7617ZM72.155 190V187.467H72.41C72.4584 187.467 72.4917 187.477 72.51 187.495C72.5284 187.513 72.5409 187.545 72.5475 187.59L72.5775 187.985C72.6642 187.808 72.7709 187.671 72.8975 187.572C73.0259 187.472 73.1759 187.422 73.3475 187.422C73.4175 187.422 73.4809 187.431 73.5375 187.447C73.5942 187.462 73.6467 187.484 73.695 187.512L73.6375 187.845C73.6259 187.887 73.6 187.907 73.56 187.907C73.5367 187.907 73.5009 187.9 73.4525 187.885C73.4042 187.868 73.3367 187.86 73.25 187.86C73.095 187.86 72.965 187.905 72.86 187.995C72.7567 188.085 72.67 188.216 72.6 188.387V190H72.155ZM75.6216 187.885C75.6016 187.922 75.5708 187.94 75.5291 187.94C75.5041 187.94 75.4758 187.931 75.4441 187.912C75.4125 187.894 75.3733 187.874 75.3266 187.852C75.2816 187.829 75.2275 187.808 75.1641 187.79C75.1008 187.77 75.0258 187.76 74.9391 187.76C74.8641 187.76 74.7966 187.77 74.7366 187.79C74.6766 187.808 74.625 187.834 74.5816 187.867C74.54 187.901 74.5075 187.94 74.4841 187.985C74.4625 188.028 74.4516 188.076 74.4516 188.127C74.4516 188.192 74.47 188.247 74.5066 188.29C74.545 188.333 74.595 188.371 74.6566 188.402C74.7183 188.434 74.7883 188.462 74.8666 188.487C74.945 188.511 75.025 188.537 75.1066 188.565C75.19 188.592 75.2708 188.622 75.3491 188.655C75.4275 188.688 75.4975 188.73 75.5591 188.78C75.6208 188.83 75.67 188.892 75.7066 188.965C75.745 189.037 75.7641 189.123 75.7641 189.225C75.7641 189.342 75.7433 189.45 75.7016 189.55C75.66 189.648 75.5983 189.734 75.5166 189.807C75.435 189.879 75.335 189.936 75.2166 189.977C75.0983 190.019 74.9616 190.04 74.8066 190.04C74.63 190.04 74.47 190.012 74.3266 189.955C74.1833 189.897 74.0616 189.822 73.9616 189.732L74.0666 189.562C74.08 189.541 74.0958 189.524 74.1141 189.512C74.1325 189.501 74.1566 189.495 74.1866 189.495C74.2166 189.495 74.2483 189.507 74.2816 189.53C74.315 189.553 74.355 189.579 74.4016 189.607C74.45 189.636 74.5075 189.662 74.5741 189.685C74.6425 189.708 74.7275 189.72 74.8291 189.72C74.9158 189.72 74.9916 189.709 75.0566 189.688C75.1216 189.664 75.1758 189.633 75.2191 189.595C75.2625 189.557 75.2941 189.512 75.3141 189.462C75.3358 189.412 75.3466 189.359 75.3466 189.302C75.3466 189.232 75.3275 189.175 75.2891 189.13C75.2525 189.083 75.2033 189.044 75.1416 189.012C75.08 188.979 75.0091 188.951 74.9291 188.927C74.8508 188.902 74.77 188.877 74.6866 188.85C74.605 188.823 74.5241 188.793 74.4441 188.76C74.3658 188.725 74.2958 188.682 74.2341 188.63C74.1725 188.578 74.1225 188.515 74.0841 188.44C74.0475 188.363 74.0291 188.271 74.0291 188.162C74.0291 188.066 74.0491 187.973 74.0891 187.885C74.1291 187.795 74.1875 187.717 74.2641 187.65C74.3408 187.582 74.435 187.527 74.5466 187.488C74.6583 187.447 74.7858 187.427 74.9291 187.427C75.0958 187.427 75.245 187.454 75.3766 187.507C75.51 187.559 75.625 187.631 75.7216 187.722L75.6216 187.885Z" fill="black"/>
<path d="M36.3733 209.705C36.3966 209.745 36.4166 209.787 36.4333 209.832C36.4516 209.876 36.4691 209.92 36.4858 209.965C36.5024 209.918 36.5199 209.874 36.5383 209.832C36.5566 209.789 36.5774 209.746 36.6008 209.702L37.8133 207.5C37.8349 207.462 37.8574 207.438 37.8808 207.43C37.9041 207.422 37.9374 207.417 37.9808 207.417H38.3383V211H37.9133V208.367C37.9133 208.332 37.9141 208.295 37.9158 208.255C37.9174 208.215 37.9199 208.174 37.9233 208.132L36.6958 210.372C36.6541 210.447 36.5958 210.485 36.5208 210.485H36.4508C36.3758 210.485 36.3174 210.447 36.2758 210.372L35.0208 208.125C35.0258 208.168 35.0291 208.211 35.0308 208.252C35.0341 208.294 35.0358 208.332 35.0358 208.367V211H34.6108V207.417H34.9683C35.0116 207.417 35.0449 207.422 35.0683 207.43C35.0916 207.438 35.1141 207.462 35.1358 207.5L36.3733 209.705ZM41.0004 211H40.8029C40.7596 211 40.7246 210.993 40.6979 210.98C40.6712 210.967 40.6537 210.938 40.6454 210.895L40.5954 210.66C40.5287 210.72 40.4637 210.774 40.4004 210.822C40.3371 210.869 40.2704 210.909 40.2004 210.942C40.1304 210.974 40.0554 210.998 39.9754 211.015C39.8971 211.032 39.8096 211.04 39.7129 211.04C39.6146 211.04 39.5221 211.027 39.4354 211C39.3504 210.972 39.2762 210.93 39.2129 210.875C39.1496 210.82 39.0987 210.751 39.0604 210.667C39.0237 210.582 39.0054 210.482 39.0054 210.367C39.0054 210.267 39.0329 210.172 39.0879 210.08C39.1429 209.987 39.2312 209.904 39.3529 209.832C39.4762 209.761 39.6371 209.702 39.8354 209.657C40.0337 209.611 40.2762 209.584 40.5629 209.577V209.38C40.5629 209.183 40.5204 209.035 40.4354 208.935C40.3521 208.833 40.2279 208.782 40.0629 208.782C39.9546 208.782 39.8629 208.797 39.7879 208.825C39.7146 208.852 39.6504 208.882 39.5954 208.917C39.5421 208.951 39.4954 208.982 39.4554 209.01C39.4171 209.037 39.3787 209.05 39.3404 209.05C39.3104 209.05 39.2837 209.042 39.2604 209.027C39.2387 209.011 39.2212 208.991 39.2079 208.967L39.1279 208.825C39.2679 208.69 39.4187 208.589 39.5804 208.522C39.7421 208.456 39.9212 208.422 40.1179 208.422C40.2596 208.422 40.3854 208.446 40.4954 208.492C40.6054 208.539 40.6979 208.604 40.7729 208.687C40.8479 208.771 40.9046 208.872 40.9429 208.99C40.9812 209.108 41.0004 209.238 41.0004 209.38V211ZM39.8454 210.727C39.9237 210.727 39.9954 210.72 40.0604 210.705C40.1254 210.688 40.1862 210.666 40.2429 210.637C40.3012 210.607 40.3562 210.572 40.4079 210.53C40.4612 210.488 40.5129 210.441 40.5629 210.387V209.86C40.3579 209.867 40.1837 209.883 40.0404 209.91C39.8971 209.935 39.7804 209.968 39.6904 210.01C39.6004 210.052 39.5346 210.101 39.4929 210.157C39.4529 210.214 39.4329 210.277 39.4329 210.347C39.4329 210.414 39.4437 210.472 39.4654 210.52C39.4871 210.568 39.5162 210.608 39.5529 210.64C39.5896 210.67 39.6329 210.692 39.6829 210.707C39.7329 210.721 39.7871 210.727 39.8454 210.727ZM41.6746 211V208.467H41.9396C42.0029 208.467 42.0429 208.498 42.0596 208.56L42.0946 208.835C42.2046 208.713 42.3271 208.615 42.4621 208.54C42.5987 208.465 42.7562 208.427 42.9346 208.427C43.0729 208.427 43.1946 208.451 43.2996 208.497C43.4062 208.542 43.4946 208.607 43.5646 208.692C43.6362 208.776 43.6904 208.877 43.7271 208.995C43.7637 209.113 43.7821 209.244 43.7821 209.387V211H43.3371V209.387C43.3371 209.196 43.2929 209.047 43.2046 208.942C43.1179 208.836 42.9846 208.782 42.8046 208.782C42.6729 208.782 42.5496 208.814 42.4346 208.877C42.3212 208.941 42.2162 209.027 42.1196 209.135V211H41.6746ZM45.3054 208.425C45.4154 208.425 45.5179 208.437 45.6129 208.462C45.7096 208.486 45.7971 208.521 45.8754 208.567H46.5629V208.732C46.5629 208.787 46.5279 208.822 46.4579 208.837L46.1704 208.877C46.2271 208.986 46.2554 209.107 46.2554 209.24C46.2554 209.363 46.2312 209.476 46.1829 209.577C46.1362 209.677 46.0704 209.763 45.9854 209.835C45.9021 209.907 45.8021 209.962 45.6854 210C45.5704 210.038 45.4437 210.057 45.3054 210.057C45.1871 210.057 45.0754 210.043 44.9704 210.015C44.9171 210.048 44.8762 210.084 44.8479 210.122C44.8212 210.161 44.8079 210.198 44.8079 210.235C44.8079 210.295 44.8321 210.341 44.8804 210.372C44.9287 210.402 44.9929 210.424 45.0729 210.437C45.1529 210.451 45.2437 210.459 45.3454 210.462C45.4471 210.466 45.5504 210.472 45.6554 210.48C45.7621 210.487 45.8662 210.499 45.9679 210.517C46.0696 210.536 46.1604 210.566 46.2404 210.607C46.3204 210.649 46.3846 210.707 46.4329 210.78C46.4812 210.853 46.5054 210.948 46.5054 211.065C46.5054 211.173 46.4779 211.278 46.4229 211.38C46.3696 211.482 46.2921 211.572 46.1904 211.65C46.0887 211.73 45.9646 211.793 45.8179 211.84C45.6712 211.888 45.5054 211.913 45.3204 211.913C45.1354 211.913 44.9729 211.894 44.8329 211.858C44.6946 211.821 44.5796 211.772 44.4879 211.71C44.3962 211.648 44.3271 211.577 44.2804 211.495C44.2354 211.415 44.2129 211.331 44.2129 211.243C44.2129 211.118 44.2521 211.012 44.3304 210.925C44.4104 210.837 44.5196 210.767 44.6579 210.715C44.5862 210.682 44.5287 210.637 44.4854 210.582C44.4437 210.526 44.4229 210.451 44.4229 210.358C44.4229 210.321 44.4296 210.283 44.4429 210.245C44.4562 210.205 44.4762 210.166 44.5029 210.127C44.5312 210.089 44.5654 210.052 44.6054 210.017C44.6454 209.982 44.6921 209.952 44.7454 209.925C44.6204 209.855 44.5221 209.762 44.4504 209.647C44.3804 209.531 44.3454 209.395 44.3454 209.24C44.3454 209.117 44.3687 209.005 44.4154 208.905C44.4637 208.803 44.5304 208.717 44.6154 208.647C44.7004 208.576 44.8012 208.521 44.9179 208.482C45.0362 208.444 45.1654 208.425 45.3054 208.425ZM46.0954 211.138C46.0954 211.074 46.0779 211.023 46.0429 210.985C46.0079 210.947 45.9604 210.917 45.9004 210.897C45.8404 210.876 45.7712 210.86 45.6929 210.85C45.6146 210.84 45.5321 210.833 45.4454 210.83C45.3587 210.825 45.2704 210.82 45.1804 210.815C45.0904 210.81 45.0046 210.801 44.9229 210.787C44.8279 210.832 44.7504 210.887 44.6904 210.952C44.6321 211.018 44.6029 211.095 44.6029 211.185C44.6029 211.242 44.6171 211.294 44.6454 211.343C44.6754 211.393 44.7204 211.435 44.7804 211.47C44.8404 211.507 44.9154 211.535 45.0054 211.555C45.0971 211.577 45.2046 211.588 45.3279 211.588C45.4479 211.588 45.5554 211.577 45.6504 211.555C45.7454 211.533 45.8254 211.503 45.8904 211.463C45.9571 211.423 46.0079 211.375 46.0429 211.32C46.0779 211.265 46.0954 211.204 46.0954 211.138ZM45.3054 209.762C45.3954 209.762 45.4746 209.75 45.5429 209.725C45.6129 209.7 45.6712 209.665 45.7179 209.62C45.7646 209.575 45.7996 209.522 45.8229 209.46C45.8462 209.397 45.8579 209.327 45.8579 209.252C45.8579 209.097 45.8104 208.974 45.7154 208.882C45.6221 208.791 45.4854 208.745 45.3054 208.745C45.1271 208.745 44.9904 208.791 44.8954 208.882C44.8021 208.974 44.7554 209.097 44.7554 209.252C44.7554 209.327 44.7671 209.397 44.7904 209.46C44.8154 209.522 44.8512 209.575 44.8979 209.62C44.9446 209.665 45.0021 209.7 45.0704 209.725C45.1387 209.75 45.2171 209.762 45.3054 209.762ZM48.0091 208.427C48.1608 208.427 48.3008 208.453 48.4291 208.505C48.5574 208.555 48.6683 208.628 48.7616 208.725C48.8549 208.82 48.9274 208.938 48.9791 209.08C49.0324 209.22 49.0591 209.38 49.0591 209.56C49.0591 209.63 49.0516 209.677 49.0366 209.7C49.0216 209.723 48.9933 209.735 48.9516 209.735H47.2666C47.2699 209.895 47.2916 210.034 47.3316 210.152C47.3716 210.271 47.4266 210.37 47.4966 210.45C47.5666 210.528 47.6499 210.587 47.7466 210.627C47.8433 210.666 47.9516 210.685 48.0716 210.685C48.1833 210.685 48.2791 210.672 48.3591 210.647C48.4408 210.621 48.5108 210.592 48.5691 210.562C48.6274 210.532 48.6758 210.505 48.7141 210.48C48.7541 210.453 48.7883 210.44 48.8166 210.44C48.8533 210.44 48.8816 210.454 48.9016 210.482L49.0266 210.645C48.9716 210.712 48.9058 210.77 48.8291 210.82C48.7524 210.868 48.6699 210.908 48.5816 210.94C48.4949 210.972 48.4049 210.995 48.3116 211.01C48.2183 211.027 48.1258 211.035 48.0341 211.035C47.8591 211.035 47.6974 211.006 47.5491 210.947C47.4024 210.887 47.2749 210.801 47.1666 210.688C47.0599 210.572 46.9766 210.431 46.9166 210.262C46.8566 210.094 46.8266 209.901 46.8266 209.682C46.8266 209.506 46.8533 209.341 46.9066 209.187C46.9616 209.034 47.0399 208.902 47.1416 208.79C47.2433 208.677 47.3674 208.588 47.5141 208.525C47.6608 208.46 47.8258 208.427 48.0091 208.427ZM48.0191 208.755C47.8041 208.755 47.6349 208.817 47.5116 208.942C47.3883 209.066 47.3116 209.237 47.2816 209.457H48.6591C48.6591 209.354 48.6449 209.26 48.6166 209.175C48.5883 209.088 48.5466 209.014 48.4916 208.952C48.4366 208.889 48.3691 208.841 48.2891 208.807C48.2108 208.772 48.1208 208.755 48.0191 208.755ZM49.6287 211V208.467H49.8837C49.932 208.467 49.9653 208.477 49.9837 208.495C50.002 208.513 50.0145 208.545 50.0212 208.59L50.0512 208.985C50.1378 208.808 50.2445 208.671 50.3712 208.572C50.4995 208.472 50.6495 208.422 50.8212 208.422C50.8912 208.422 50.9545 208.431 51.0112 208.447C51.0678 208.462 51.1203 208.484 51.1687 208.512L51.1112 208.845C51.0995 208.887 51.0737 208.907 51.0337 208.907C51.0103 208.907 50.9745 208.9 50.9262 208.885C50.8778 208.868 50.8103 208.86 50.7237 208.86C50.5687 208.86 50.4387 208.905 50.3337 208.995C50.2303 209.085 50.1437 209.216 50.0737 209.387V211H49.6287ZM52.9646 210.66H53.7346V208.217C53.7346 208.144 53.7371 208.07 53.7421 207.995L53.1021 208.542C53.0854 208.556 53.0687 208.566 53.0521 208.572C53.0354 208.577 53.0196 208.58 53.0046 208.58C52.9796 208.58 52.9571 208.575 52.9371 208.565C52.9171 208.553 52.9021 208.54 52.8921 208.525L52.7521 208.332L53.8171 207.41H54.1796V210.66H54.8846V211H52.9646V210.66ZM56.5793 211V208.847L56.2993 208.815C56.2643 208.807 56.2351 208.794 56.2118 208.777C56.1901 208.759 56.1793 208.733 56.1793 208.7V208.517H56.5793V208.272C56.5793 208.127 56.5993 207.999 56.6393 207.887C56.6809 207.774 56.7393 207.679 56.8143 207.602C56.8909 207.524 56.9826 207.465 57.0893 207.425C57.1959 207.385 57.3159 207.365 57.4493 207.365C57.5626 207.365 57.6676 207.382 57.7643 207.415L57.7543 207.637C57.7526 207.671 57.7384 207.691 57.7118 207.697C57.6851 207.704 57.6476 207.707 57.5993 207.707H57.5218C57.4451 207.707 57.3751 207.717 57.3118 207.737C57.2501 207.757 57.1968 207.79 57.1518 207.835C57.1068 207.88 57.0718 207.939 57.0468 208.012C57.0234 208.086 57.0118 208.177 57.0118 208.285V208.517H57.7443V208.84H57.0268V211H56.5793ZM58.1638 211V208.467H58.4188C58.4672 208.467 58.5005 208.477 58.5188 208.495C58.5372 208.513 58.5497 208.545 58.5563 208.59L58.5863 208.985C58.673 208.808 58.7797 208.671 58.9063 208.572C59.0347 208.472 59.1847 208.422 59.3563 208.422C59.4263 208.422 59.4897 208.431 59.5463 208.447C59.603 208.462 59.6555 208.484 59.7038 208.512L59.6463 208.845C59.6347 208.887 59.6088 208.907 59.5688 208.907C59.5455 208.907 59.5097 208.9 59.4613 208.885C59.413 208.868 59.3455 208.86 59.2588 208.86C59.1038 208.86 58.9738 208.905 58.8688 208.995C58.7655 209.085 58.6788 209.216 58.6088 209.387V211H58.1638ZM60.5654 208.467V210.082C60.5654 210.274 60.6096 210.422 60.6979 210.527C60.7863 210.632 60.9196 210.685 61.0979 210.685C61.2279 210.685 61.3504 210.654 61.4654 210.592C61.5804 210.531 61.6863 210.445 61.7829 210.335V208.467H62.2279V211H61.9629C61.8996 211 61.8596 210.969 61.8429 210.907L61.8079 210.635C61.6979 210.757 61.5746 210.855 61.4379 210.93C61.3013 211.003 61.1446 211.04 60.9679 211.04C60.8296 211.04 60.7071 211.018 60.6004 210.972C60.4954 210.926 60.4071 210.861 60.3354 210.777C60.2638 210.694 60.2096 210.593 60.1729 210.475C60.1379 210.357 60.1204 210.226 60.1204 210.082V208.467H60.5654ZM63.4538 208.467V211H63.0088V208.467H63.4538ZM63.5538 207.672C63.5538 207.716 63.5446 207.757 63.5263 207.795C63.5096 207.832 63.4863 207.865 63.4563 207.895C63.4279 207.923 63.3946 207.946 63.3563 207.962C63.3179 207.979 63.2771 207.987 63.2338 207.987C63.1904 207.987 63.1496 207.979 63.1113 207.962C63.0746 207.946 63.0413 207.923 63.0113 207.895C62.9829 207.865 62.9604 207.832 62.9438 207.795C62.9271 207.757 62.9188 207.716 62.9188 207.672C62.9188 207.629 62.9271 207.588 62.9438 207.55C62.9604 207.51 62.9829 207.476 63.0113 207.447C63.0413 207.417 63.0746 207.394 63.1113 207.377C63.1496 207.361 63.1904 207.352 63.2338 207.352C63.2771 207.352 63.3179 207.361 63.3563 207.377C63.3946 207.394 63.4279 207.417 63.4563 207.447C63.4863 207.476 63.5096 207.51 63.5263 207.55C63.5446 207.588 63.5538 207.629 63.5538 207.672ZM65.0055 211.04C64.8055 211.04 64.6514 210.984 64.543 210.872C64.4364 210.761 64.383 210.6 64.383 210.39V208.84H64.078C64.0514 208.84 64.0289 208.832 64.0105 208.817C63.9922 208.801 63.983 208.776 63.983 208.742V208.565L64.398 208.512L64.5005 207.73C64.5039 207.705 64.5147 207.685 64.533 207.67C64.5514 207.653 64.5747 207.645 64.603 207.645H64.828V208.517H65.553V208.84H64.828V210.36C64.828 210.467 64.8539 210.546 64.9055 210.597C64.9572 210.649 65.0239 210.675 65.1055 210.675C65.1522 210.675 65.1922 210.669 65.2255 210.657C65.2605 210.644 65.2905 210.63 65.3155 210.615C65.3405 210.6 65.3614 210.587 65.378 210.575C65.3964 210.562 65.4122 210.555 65.4255 210.555C65.4489 210.555 65.4697 210.569 65.488 210.597L65.618 210.81C65.5414 210.882 65.4489 210.938 65.3405 210.98C65.2322 211.02 65.1205 211.04 65.0055 211.04ZM67.0701 211.858V208.467H67.3351C67.3984 208.467 67.4384 208.498 67.4551 208.56L67.4926 208.86C67.6009 208.728 67.7242 208.622 67.8626 208.542C68.0026 208.462 68.1634 208.422 68.3451 208.422C68.4901 208.422 68.6217 208.451 68.7401 208.507C68.8584 208.562 68.9592 208.645 69.0426 208.755C69.1259 208.863 69.1901 208.998 69.2351 209.16C69.2801 209.322 69.3026 209.507 69.3026 209.717C69.3026 209.904 69.2776 210.078 69.2276 210.24C69.1776 210.4 69.1059 210.539 69.0126 210.657C68.9192 210.774 68.8042 210.867 68.6676 210.935C68.5326 211.002 68.3801 211.035 68.2101 211.035C68.0534 211.035 67.9192 211.009 67.8076 210.957C67.6976 210.906 67.6001 210.832 67.5151 210.737V211.858H67.0701ZM68.1976 208.782C68.0526 208.782 67.9251 208.816 67.8151 208.882C67.7067 208.949 67.6067 209.043 67.5151 209.165V210.39C67.5967 210.5 67.6859 210.577 67.7826 210.622C67.8809 210.667 67.9901 210.69 68.1101 210.69C68.3451 210.69 68.5259 210.606 68.6526 210.437C68.7792 210.269 68.8426 210.029 68.8426 209.717C68.8426 209.552 68.8276 209.411 68.7976 209.292C68.7692 209.174 68.7276 209.077 68.6726 209.002C68.6176 208.926 68.5501 208.87 68.4701 208.835C68.3901 208.8 68.2992 208.782 68.1976 208.782ZM71.6889 211H71.4914C71.448 211 71.413 210.993 71.3864 210.98C71.3597 210.967 71.3422 210.938 71.3339 210.895L71.2839 210.66C71.2172 210.72 71.1522 210.774 71.0889 210.822C71.0255 210.869 70.9589 210.909 70.8889 210.942C70.8189 210.974 70.7439 210.998 70.6639 211.015C70.5855 211.032 70.498 211.04 70.4014 211.04C70.303 211.04 70.2105 211.027 70.1239 211C70.0389 210.972 69.9647 210.93 69.9014 210.875C69.838 210.82 69.7872 210.751 69.7489 210.667C69.7122 210.582 69.6939 210.482 69.6939 210.367C69.6939 210.267 69.7214 210.172 69.7764 210.08C69.8314 209.987 69.9197 209.904 70.0414 209.832C70.1647 209.761 70.3255 209.702 70.5239 209.657C70.7222 209.611 70.9647 209.584 71.2514 209.577V209.38C71.2514 209.183 71.2089 209.035 71.1239 208.935C71.0405 208.833 70.9164 208.782 70.7514 208.782C70.643 208.782 70.5514 208.797 70.4764 208.825C70.403 208.852 70.3389 208.882 70.2839 208.917C70.2305 208.951 70.1839 208.982 70.1439 209.01C70.1055 209.037 70.0672 209.05 70.0289 209.05C69.9989 209.05 69.9722 209.042 69.9489 209.027C69.9272 209.011 69.9097 208.991 69.8964 208.967L69.8164 208.825C69.9564 208.69 70.1072 208.589 70.2689 208.522C70.4305 208.456 70.6097 208.422 70.8064 208.422C70.948 208.422 71.0739 208.446 71.1839 208.492C71.2939 208.539 71.3864 208.604 71.4614 208.687C71.5364 208.771 71.593 208.872 71.6314 208.99C71.6697 209.108 71.6889 209.238 71.6889 209.38V211ZM70.5339 210.727C70.6122 210.727 70.6839 210.72 70.7489 210.705C70.8139 210.688 70.8747 210.666 70.9314 210.637C70.9897 210.607 71.0447 210.572 71.0964 210.53C71.1497 210.488 71.2014 210.441 71.2514 210.387V209.86C71.0464 209.867 70.8722 209.883 70.7289 209.91C70.5855 209.935 70.4689 209.968 70.3789 210.01C70.2889 210.052 70.223 210.101 70.1814 210.157C70.1414 210.214 70.1214 210.277 70.1214 210.347C70.1214 210.414 70.1322 210.472 70.1539 210.52C70.1755 210.568 70.2047 210.608 70.2414 210.64C70.278 210.67 70.3214 210.692 70.3714 210.707C70.4214 210.721 70.4755 210.727 70.5339 210.727ZM72.363 211V208.467H72.618C72.6664 208.467 72.6997 208.477 72.718 208.495C72.7364 208.513 72.7489 208.545 72.7555 208.59L72.7855 208.985C72.8722 208.808 72.9789 208.671 73.1055 208.572C73.2339 208.472 73.3839 208.422 73.5555 208.422C73.6255 208.422 73.6889 208.431 73.7455 208.447C73.8022 208.462 73.8547 208.484 73.903 208.512L73.8455 208.845C73.8339 208.887 73.808 208.907 73.768 208.907C73.7447 208.907 73.7089 208.9 73.6605 208.885C73.6122 208.868 73.5447 208.86 73.458 208.86C73.303 208.86 73.173 208.905 73.068 208.995C72.9647 209.085 72.878 209.216 72.808 209.387V211H72.363ZM75.8414 208.467V211.188C75.8414 211.289 75.8281 211.383 75.8014 211.47C75.7748 211.558 75.7323 211.635 75.6739 211.7C75.6173 211.765 75.5431 211.816 75.4514 211.853C75.3614 211.891 75.2531 211.91 75.1264 211.91C75.0714 211.91 75.0214 211.906 74.9764 211.898C74.9314 211.889 74.8864 211.877 74.8414 211.86L74.8614 211.62C74.8648 211.598 74.8723 211.584 74.8839 211.578C74.8956 211.573 74.9139 211.57 74.9389 211.57C74.9523 211.57 74.9664 211.57 74.9814 211.57C74.9964 211.572 75.0148 211.573 75.0364 211.573C75.1664 211.573 75.2589 211.542 75.3139 211.48C75.3689 211.42 75.3964 211.323 75.3964 211.188V208.467H75.8414ZM75.9414 207.672C75.9414 207.716 75.9323 207.757 75.9139 207.795C75.8973 207.832 75.8739 207.865 75.8439 207.895C75.8156 207.923 75.7823 207.946 75.7439 207.962C75.7056 207.979 75.6648 207.987 75.6214 207.987C75.5781 207.987 75.5373 207.979 75.4989 207.962C75.4623 207.946 75.4289 207.923 75.3989 207.895C75.3706 207.865 75.3481 207.832 75.3314 207.795C75.3148 207.757 75.3064 207.716 75.3064 207.672C75.3064 207.629 75.3148 207.588 75.3314 207.55C75.3481 207.51 75.3706 207.476 75.3989 207.447C75.4289 207.417 75.4623 207.394 75.4989 207.377C75.5373 207.361 75.5781 207.352 75.6214 207.352C75.6648 207.352 75.7056 207.361 75.7439 207.377C75.7823 207.394 75.8156 207.417 75.8439 207.447C75.8739 207.476 75.8973 207.51 75.9139 207.55C75.9323 207.588 75.9414 207.629 75.9414 207.672ZM77.641 208.427C77.826 208.427 77.9926 208.458 78.141 208.52C78.291 208.582 78.4176 208.669 78.521 208.782C78.626 208.896 78.706 209.033 78.761 209.195C78.8176 209.355 78.846 209.534 78.846 209.732C78.846 209.932 78.8176 210.112 78.761 210.272C78.706 210.432 78.626 210.569 78.521 210.682C78.4176 210.796 78.291 210.883 78.141 210.945C77.9926 211.005 77.826 211.035 77.641 211.035C77.456 211.035 77.2885 211.005 77.1385 210.945C76.9901 210.883 76.8635 210.796 76.7585 210.682C76.6535 210.569 76.5726 210.432 76.516 210.272C76.4593 210.112 76.431 209.932 76.431 209.732C76.431 209.534 76.4593 209.355 76.516 209.195C76.5726 209.033 76.6535 208.896 76.7585 208.782C76.8635 208.669 76.9901 208.582 77.1385 208.52C77.2885 208.458 77.456 208.427 77.641 208.427ZM77.641 210.688C77.891 210.688 78.0776 210.604 78.201 210.437C78.3243 210.269 78.386 210.035 78.386 209.735C78.386 209.433 78.3243 209.198 78.201 209.03C78.0776 208.862 77.891 208.777 77.641 208.777C77.5143 208.777 77.4043 208.799 77.311 208.842C77.2176 208.886 77.1393 208.948 77.076 209.03C77.0143 209.112 76.9676 209.212 76.936 209.332C76.906 209.451 76.891 209.585 76.891 209.735C76.891 209.885 76.906 210.019 76.936 210.137C76.9676 210.256 77.0143 210.356 77.076 210.437C77.1393 210.517 77.2176 210.579 77.311 210.622C77.4043 210.666 77.5143 210.688 77.641 210.688ZM79.7793 208.467V210.082C79.7793 210.274 79.8235 210.422 79.9118 210.527C80.0001 210.632 80.1335 210.685 80.3118 210.685C80.4418 210.685 80.5643 210.654 80.6793 210.592C80.7943 210.531 80.9001 210.445 80.9968 210.335V208.467H81.4418V211H81.1768C81.1135 211 81.0735 210.969 81.0568 210.907L81.0218 210.635C80.9118 210.757 80.7885 210.855 80.6518 210.93C80.5151 211.003 80.3585 211.04 80.1818 211.04C80.0435 211.04 79.921 211.018 79.8143 210.972C79.7093 210.926 79.621 210.861 79.5493 210.777C79.4776 210.694 79.4235 210.593 79.3868 210.475C79.3518 210.357 79.3343 210.226 79.3343 210.082V208.467H79.7793ZM82.1726 211V208.467H82.4276C82.476 208.467 82.5093 208.477 82.5276 208.495C82.546 208.513 82.5585 208.545 82.5651 208.59L82.5951 208.985C82.6818 208.808 82.7885 208.671 82.9151 208.572C83.0435 208.472 83.1935 208.422 83.3651 208.422C83.4351 208.422 83.4985 208.431 83.5551 208.447C83.6118 208.462 83.6643 208.484 83.7126 208.512L83.6551 208.845C83.6435 208.887 83.6176 208.907 83.5776 208.907C83.5543 208.907 83.5185 208.9 83.4701 208.885C83.4218 208.868 83.3543 208.86 83.2676 208.86C83.1126 208.86 82.9826 208.905 82.8776 208.995C82.7743 209.085 82.6876 209.216 82.6176 209.387V211H82.1726Z" fill="black"/>
<rect x="20" y="26" width="20" height="20" rx="5" fill="#198CD9"/>
<circle cx="30" cy="36" r="6" fill="white"/>
<path d="M32.729 34.1236C32.729 34.452 32.4733 34.6952 32.1859 34.6952C31.8986 34.6952 31.6428 34.452 31.6428 34.1236C31.6428 33.7952 31.8986 33.5521 32.1859 33.5521C32.4733 33.5521 32.729 33.7952 32.729 34.1236Z" stroke="#A1B761"/>
<mask id="path-23-inside-1" fill="white">
<ellipse cx="32.1859" cy="34.1236" rx="0.625851" ry="0.642911"/>
</mask>
<path d="M31.8118 34.1236C31.8118 33.9519 31.9541 33.7665 32.1859 33.7665V35.7665C33.109 35.7665 33.8118 35.0055 33.8118 34.1236H31.8118ZM32.1859 33.7665C32.4177 33.7665 32.5601 33.9519 32.5601 34.1236H30.5601C30.5601 35.0055 31.2628 35.7665 32.1859 35.7665V33.7665ZM32.5601 34.1236C32.5601 34.2953 32.4177 34.4807 32.1859 34.4807V32.4807C31.2628 32.4807 30.5601 33.2418 30.5601 34.1236H32.5601ZM32.1859 34.4807C31.9541 34.4807 31.8118 34.2953 31.8118 34.1236H33.8118C33.8118 33.2418 33.109 32.4807 32.1859 32.4807V34.4807Z" fill="#A1B761" mask="url(#path-23-inside-1)"/>
<rect width="0.4" height="0.00559312" rx="0.00279656" transform="matrix(0.839152 -0.543898 0 -1 33.3999 33.4232)" fill="#A1B761"/>
<line x1="26.5" y1="39" x2="26.5" y2="33.1463" stroke="#198CD9"/>
<line x1="27" y1="38.5" x2="32.7143" y2="38.5" stroke="#198CD9"/>
<path d="M27.0715 38.8537L29.358 36.2582C29.5846 36.001 29.9108 35.8537 30.2535 35.8537V35.8537C30.6724 35.8537 31.0606 35.634 31.2764 35.2749L31.5001 34.9025" stroke="#198CD9"/>
<path d="M57.484 36.2185V38H56.5425V32.939H58.191C58.5293 32.939 58.8222 32.9787 59.0695 33.058C59.3168 33.1373 59.521 33.2482 59.682 33.3905C59.843 33.5328 59.962 33.7032 60.039 33.9015C60.116 34.0998 60.1545 34.3168 60.1545 34.5525C60.1545 34.7975 60.1137 35.0227 60.032 35.228C59.9503 35.431 59.8278 35.606 59.6645 35.753C59.5012 35.9 59.297 36.0143 59.052 36.096C58.807 36.1777 58.52 36.2185 58.191 36.2185H57.484ZM57.484 35.4835H58.191C58.3637 35.4835 58.5142 35.4625 58.6425 35.4205C58.7708 35.3762 58.877 35.3143 58.961 35.235C59.045 35.1533 59.108 35.0553 59.15 34.941C59.192 34.8243 59.213 34.6948 59.213 34.5525C59.213 34.4172 59.192 34.2947 59.15 34.185C59.108 34.0753 59.045 33.982 58.961 33.905C58.877 33.828 58.7708 33.7697 58.6425 33.73C58.5142 33.688 58.3637 33.667 58.191 33.667H57.484V35.4835ZM63.4733 38H63.0848C63.0031 38 62.9389 37.9883 62.8923 37.965C62.8456 37.9393 62.8106 37.8892 62.7873 37.8145L62.7103 37.559C62.6193 37.6407 62.5294 37.713 62.4408 37.776C62.3544 37.8367 62.2646 37.888 62.1713 37.93C62.0779 37.972 61.9788 38.0035 61.8738 38.0245C61.7688 38.0455 61.6521 38.056 61.5238 38.056C61.3721 38.056 61.2321 38.0362 61.1038 37.9965C60.9754 37.9545 60.8646 37.8927 60.7713 37.811C60.6803 37.7293 60.6091 37.6278 60.5578 37.5065C60.5064 37.3852 60.4808 37.244 60.4808 37.083C60.4808 36.9477 60.5158 36.8147 60.5858 36.684C60.6581 36.551 60.7771 36.432 60.9428 36.327C61.1084 36.2197 61.3289 36.131 61.6043 36.061C61.8796 35.991 62.2214 35.9513 62.6298 35.942V35.732C62.6298 35.4917 62.5784 35.3143 62.4758 35.2C62.3754 35.0833 62.2284 35.025 62.0348 35.025C61.8948 35.025 61.7781 35.0413 61.6848 35.074C61.5914 35.1067 61.5098 35.144 61.4398 35.186C61.3721 35.2257 61.3091 35.2618 61.2508 35.2945C61.1924 35.3272 61.1283 35.3435 61.0583 35.3435C60.9999 35.3435 60.9498 35.3283 60.9078 35.298C60.8658 35.2677 60.8319 35.2303 60.8063 35.186L60.6488 34.9095C61.0618 34.5315 61.5599 34.3425 62.1433 34.3425C62.3533 34.3425 62.5399 34.3775 62.7033 34.4475C62.8689 34.5152 63.0089 34.6108 63.1233 34.7345C63.2376 34.8558 63.3239 35.0017 63.3823 35.172C63.4429 35.3423 63.4733 35.529 63.4733 35.732V38ZM61.7933 37.461C61.8819 37.461 61.9636 37.4528 62.0383 37.4365C62.1129 37.4202 62.1829 37.3957 62.2483 37.363C62.3159 37.3303 62.3801 37.2907 62.4408 37.244C62.5038 37.195 62.5668 37.1378 62.6298 37.0725V36.467C62.3778 36.4787 62.1666 36.5008 61.9963 36.5335C61.8283 36.5638 61.6929 36.6035 61.5903 36.6525C61.4876 36.7015 61.4141 36.7587 61.3698 36.824C61.3278 36.8893 61.3068 36.9605 61.3068 37.0375C61.3068 37.1892 61.3511 37.2977 61.4398 37.363C61.5308 37.4283 61.6486 37.461 61.7933 37.461ZM64.3233 38V34.409H64.8308C64.9195 34.409 64.9813 34.4253 65.0163 34.458C65.0513 34.4907 65.0747 34.5467 65.0863 34.626L65.1388 35.06C65.2672 34.8383 65.4177 34.6633 65.5903 34.535C65.763 34.4067 65.9567 34.3425 66.1713 34.3425C66.3487 34.3425 66.4957 34.3833 66.6123 34.465L66.5003 35.1125C66.4933 35.1545 66.4782 35.1848 66.4548 35.2035C66.4315 35.2198 66.4 35.228 66.3603 35.228C66.3253 35.228 66.2775 35.2198 66.2168 35.2035C66.1562 35.1872 66.0757 35.179 65.9753 35.179C65.7957 35.179 65.6417 35.2292 65.5133 35.3295C65.385 35.4275 65.2765 35.5722 65.1878 35.7635V38H64.3233ZM68.3603 38.056C68.0499 38.056 67.8108 37.9685 67.6427 37.7935C67.4748 37.6162 67.3908 37.3723 67.3908 37.062V35.0565H67.0268C66.9801 35.0565 66.9393 35.0413 66.9043 35.011C66.8716 34.9807 66.8553 34.9352 66.8553 34.8745V34.5315L67.4328 34.437L67.6148 33.457C67.6241 33.4103 67.6451 33.3742 67.6778 33.3485C67.7128 33.3228 67.7559 33.31 67.8073 33.31H68.2553V34.4405H69.2003V35.0565H68.2553V37.0025C68.2553 37.1145 68.2833 37.202 68.3393 37.265C68.3953 37.328 68.4699 37.3595 68.5633 37.3595C68.6169 37.3595 68.6613 37.3537 68.6962 37.342C68.7336 37.328 68.7651 37.314 68.7908 37.3C68.8188 37.286 68.8433 37.2732 68.8643 37.2615C68.8853 37.2475 68.9063 37.2405 68.9273 37.2405C68.9529 37.2405 68.9739 37.2475 68.9903 37.2615C69.0066 37.2732 69.0241 37.2918 69.0428 37.3175L69.3018 37.7375C69.1758 37.8425 69.0311 37.9218 68.8678 37.9755C68.7044 38.0292 68.5353 38.056 68.3603 38.056ZM72.7018 38H72.3133C72.2316 38 72.1674 37.9883 72.1208 37.965C72.0741 37.9393 72.0391 37.8892 72.0158 37.8145L71.9388 37.559C71.8478 37.6407 71.7579 37.713 71.6693 37.776C71.5829 37.8367 71.4931 37.888 71.3998 37.93C71.3064 37.972 71.2073 38.0035 71.1023 38.0245C70.9973 38.0455 70.8806 38.056 70.7523 38.056C70.6006 38.056 70.4606 38.0362 70.3323 37.9965C70.2039 37.9545 70.0931 37.8927 69.9998 37.811C69.9088 37.7293 69.8376 37.6278 69.7863 37.5065C69.7349 37.3852 69.7093 37.244 69.7093 37.083C69.7093 36.9477 69.7443 36.8147 69.8143 36.684C69.8866 36.551 70.0056 36.432 70.1713 36.327C70.3369 36.2197 70.5574 36.131 70.8328 36.061C71.1081 35.991 71.4499 35.9513 71.8583 35.942V35.732C71.8583 35.4917 71.8069 35.3143 71.7043 35.2C71.6039 35.0833 71.4569 35.025 71.2633 35.025C71.1233 35.025 71.0066 35.0413 70.9133 35.074C70.8199 35.1067 70.7383 35.144 70.6683 35.186C70.6006 35.2257 70.5376 35.2618 70.4793 35.2945C70.4209 35.3272 70.3568 35.3435 70.2868 35.3435C70.2284 35.3435 70.1783 35.3283 70.1363 35.298C70.0943 35.2677 70.0604 35.2303 70.0348 35.186L69.8773 34.9095C70.2903 34.5315 70.7884 34.3425 71.3718 34.3425C71.5818 34.3425 71.7684 34.3775 71.9318 34.4475C72.0974 34.5152 72.2374 34.6108 72.3518 34.7345C72.4661 34.8558 72.5524 35.0017 72.6108 35.172C72.6714 35.3423 72.7018 35.529 72.7018 35.732V38ZM71.0218 37.461C71.1104 37.461 71.1921 37.4528 71.2668 37.4365C71.3414 37.4202 71.4114 37.3957 71.4768 37.363C71.5444 37.3303 71.6086 37.2907 71.6693 37.244C71.7323 37.195 71.7953 37.1378 71.8583 37.0725V36.467C71.6063 36.4787 71.3951 36.5008 71.2248 36.5335C71.0568 36.5638 70.9214 36.6035 70.8188 36.6525C70.7161 36.7015 70.6426 36.7587 70.5983 36.824C70.5563 36.8893 70.5353 36.9605 70.5353 37.0375C70.5353 37.1892 70.5796 37.2977 70.6683 37.363C70.7593 37.4283 70.8771 37.461 71.0218 37.461ZM74.7943 34.346C74.9483 34.346 75.093 34.3623 75.2283 34.395C75.3637 34.4253 75.4873 34.4708 75.5993 34.5315H76.6318V34.8535C76.6318 34.9072 76.6178 34.9492 76.5898 34.9795C76.5618 35.0098 76.514 35.0308 76.4463 35.0425L76.1243 35.102C76.1477 35.1627 76.1652 35.2268 76.1768 35.2945C76.1908 35.3622 76.1978 35.4333 76.1978 35.508C76.1978 35.6853 76.1617 35.8463 76.0893 35.991C76.0193 36.1333 75.9213 36.2547 75.7953 36.355C75.6717 36.4553 75.5235 36.5335 75.3508 36.5895C75.1805 36.6432 74.995 36.67 74.7943 36.67C74.659 36.67 74.5272 36.6572 74.3988 36.6315C74.2868 36.6992 74.2308 36.775 74.2308 36.859C74.2308 36.9313 74.2635 36.985 74.3288 37.02C74.3965 37.0527 74.484 37.076 74.5913 37.09C74.701 37.104 74.8247 37.1133 74.9623 37.118C75.1 37.1203 75.2412 37.1273 75.3858 37.139C75.5305 37.1507 75.6717 37.1717 75.8093 37.202C75.947 37.23 76.0695 37.2755 76.1768 37.3385C76.2865 37.4015 76.374 37.4878 76.4393 37.5975C76.507 37.7048 76.5408 37.8437 76.5408 38.014C76.5408 38.1727 76.5012 38.3267 76.4218 38.476C76.3448 38.6253 76.2317 38.7583 76.0823 38.875C75.9353 38.9917 75.7545 39.085 75.5398 39.155C75.3252 39.2273 75.0802 39.2635 74.8048 39.2635C74.5318 39.2635 74.295 39.2367 74.0943 39.183C73.8937 39.1317 73.7268 39.0617 73.5938 38.973C73.4632 38.8867 73.3652 38.7863 73.2998 38.672C73.2345 38.5577 73.2018 38.4387 73.2018 38.315C73.2018 38.147 73.2532 38.0058 73.3558 37.8915C73.4585 37.7772 73.6008 37.6862 73.7828 37.6185C73.6942 37.5695 73.623 37.5042 73.5693 37.4225C73.5157 37.3408 73.4888 37.2347 73.4888 37.104C73.4888 37.0503 73.4982 36.9955 73.5168 36.9395C73.5355 36.8812 73.5635 36.824 73.6008 36.768C73.6405 36.712 73.6895 36.6595 73.7478 36.6105C73.8062 36.5592 73.875 36.5137 73.9543 36.474C73.7723 36.376 73.6288 36.2453 73.5238 36.082C73.4212 35.9187 73.3698 35.7273 73.3698 35.508C73.3698 35.3307 73.4048 35.1708 73.4748 35.0285C73.5472 34.8838 73.6463 34.7613 73.7723 34.661C73.9007 34.5583 74.0512 34.4802 74.2238 34.4265C74.3988 34.3728 74.589 34.346 74.7943 34.346ZM75.7428 38.161C75.7428 38.091 75.7218 38.0338 75.6798 37.9895C75.6378 37.9452 75.5807 37.9113 75.5083 37.888C75.436 37.8623 75.3508 37.8437 75.2528 37.832C75.1572 37.8203 75.0545 37.8122 74.9448 37.8075C74.8375 37.8005 74.7255 37.7947 74.6088 37.79C74.4945 37.783 74.3837 37.7725 74.2763 37.7585C74.1783 37.8122 74.099 37.8763 74.0383 37.951C73.98 38.0233 73.9508 38.1073 73.9508 38.203C73.9508 38.266 73.966 38.3243 73.9963 38.378C74.029 38.434 74.0792 38.4818 74.1468 38.5215C74.2168 38.5612 74.3067 38.5915 74.4163 38.6125C74.526 38.6358 74.6602 38.6475 74.8188 38.6475C74.9798 38.6475 75.1187 38.6347 75.2353 38.609C75.352 38.5857 75.4477 38.5518 75.5223 38.5075C75.5993 38.4655 75.6553 38.4142 75.6903 38.3535C75.7253 38.2952 75.7428 38.231 75.7428 38.161ZM74.7943 36.117C74.9017 36.117 74.995 36.103 75.0743 36.075C75.1537 36.0447 75.219 36.0038 75.2703 35.9525C75.324 35.9012 75.3637 35.8393 75.3893 35.767C75.4173 35.6947 75.4313 35.6153 75.4313 35.529C75.4313 35.3517 75.3777 35.2117 75.2703 35.109C75.1653 35.004 75.0067 34.9515 74.7943 34.9515C74.582 34.9515 74.4222 35.004 74.3148 35.109C74.2098 35.2117 74.1573 35.3517 74.1573 35.529C74.1573 35.613 74.1702 35.6912 74.1958 35.7635C74.2238 35.8358 74.2635 35.8988 74.3148 35.9525C74.3685 36.0038 74.435 36.0447 74.5143 36.075C74.596 36.103 74.6893 36.117 74.7943 36.117ZM78.6589 34.353C78.8852 34.353 79.0929 34.3892 79.2819 34.4615C79.4732 34.5338 79.6377 34.64 79.7754 34.78C79.9131 34.9177 80.0204 35.088 80.0974 35.291C80.1744 35.4917 80.2129 35.7215 80.2129 35.9805C80.2129 36.0458 80.2094 36.1007 80.2024 36.145C80.1977 36.187 80.1872 36.2208 80.1709 36.2465C80.1569 36.2698 80.1371 36.2873 80.1114 36.299C80.0857 36.3083 80.0531 36.313 80.0134 36.313H77.7944C77.8201 36.6817 77.9192 36.9523 78.0919 37.125C78.2646 37.2977 78.4932 37.384 78.7779 37.384C78.9179 37.384 79.0381 37.3677 79.1384 37.335C79.2411 37.3023 79.3297 37.2662 79.4044 37.2265C79.4814 37.1868 79.5479 37.1507 79.6039 37.118C79.6622 37.0853 79.7182 37.069 79.7719 37.069C79.8069 37.069 79.8372 37.076 79.8629 37.09C79.8886 37.104 79.9107 37.1238 79.9294 37.1495L80.1814 37.4645C80.0857 37.5765 79.9784 37.671 79.8594 37.748C79.7404 37.8227 79.6156 37.8833 79.4849 37.93C79.3566 37.9743 79.2247 38.0058 79.0894 38.0245C78.9564 38.0432 78.8269 38.0525 78.7009 38.0525C78.4512 38.0525 78.2191 38.0117 78.0044 37.93C77.7897 37.846 77.6031 37.7235 77.4444 37.5625C77.2857 37.3992 77.1609 37.1985 77.0699 36.9605C76.9789 36.7202 76.9334 36.4425 76.9334 36.1275C76.9334 35.8825 76.9731 35.6527 77.0524 35.438C77.1317 35.221 77.2449 35.0332 77.3919 34.8745C77.5412 34.7135 77.7221 34.5863 77.9344 34.493C78.1491 34.3997 78.3906 34.353 78.6589 34.353ZM78.6764 34.9725C78.4244 34.9725 78.2272 35.0437 78.0849 35.186C77.9426 35.3283 77.8516 35.5302 77.8119 35.7915H79.4359C79.4359 35.6795 79.4207 35.5745 79.3904 35.4765C79.3601 35.3762 79.3134 35.2887 79.2504 35.214C79.1874 35.1393 79.1081 35.081 79.0124 35.039C78.9167 34.9947 78.8047 34.9725 78.6764 34.9725ZM80.9141 38V34.409H81.4216C81.5103 34.409 81.5721 34.4253 81.6071 34.458C81.6421 34.4907 81.6655 34.5467 81.6771 34.626L81.7296 35.06C81.858 34.8383 82.0085 34.6633 82.1811 34.535C82.3538 34.4067 82.5475 34.3425 82.7621 34.3425C82.9395 34.3425 83.0865 34.3833 83.2031 34.465L83.0911 35.1125C83.0841 35.1545 83.069 35.1848 83.0456 35.2035C83.0223 35.2198 82.9908 35.228 82.9511 35.228C82.9161 35.228 82.8683 35.2198 82.8076 35.2035C82.747 35.1872 82.6665 35.179 82.5661 35.179C82.3865 35.179 82.2325 35.2292 82.1041 35.3295C81.9758 35.4275 81.8673 35.5722 81.7786 35.7635V38H80.9141Z" fill="#198CD9"/>
<defs>
<filter id="filter0_d" x="103" y="218" width="48" height="23" filterUnits="userSpaceOnUse" color-interpolation-filters="sRGB">
<feFlood flood-opacity="0" result="BackgroundImageFix"/>
<feColorMatrix in="SourceAlpha" type="matrix" values="0 0 0 0 0 0 0 0 0 0 0 0 0 0 0 0 0 0 127 0"/>
<feOffset dy="4"/>
<feGaussianBlur stdDeviation="2"/>
<feColorMatrix type="matrix" values="0 0 0 0 0 0 0 0 0 0 0 0 0 0 0 0 0 0 0.25 0"/>
<feBlend mode="normal" in2="BackgroundImageFix" result="effect1_dropShadow"/>
<feBlend mode="normal" in="SourceGraphic" in2="effect1_dropShadow" result="shape"/>
</filter>
<filter id="filter1_d" x="0" y="0" width="182" height="266" filterUnits="userSpaceOnUse" color-interpolation-filters="sRGB">
<feFlood flood-opacity="0" result="BackgroundImageFix"/>
<feColorMatrix in="SourceAlpha" type="matrix" values="0 0 0 0 0 0 0 0 0 0 0 0 0 0 0 0 0 0 127 0"/>
<feOffset dy="4"/>
<feGaussianBlur stdDeviation="5"/>
<feColorMatrix type="matrix" values="0 0 0 0 0 0 0 0 0 0 0 0 0 0 0 0 0 0 0.25 0"/>
<feBlend mode="normal" in2="BackgroundImageFix" result="effect1_dropShadow"/>
<feBlend mode="normal" in="SourceGraphic" in2="effect1_dropShadow" result="shape"/>
</filter>
<linearGradient id="paint0_linear" x1="144.333" y1="233" x2="127" y2="233" gradientUnits="userSpaceOnUse">
<stop stop-color="#00E676"/>
<stop offset="1" stop-color="#00E676" stop-opacity="0.83"/>
</linearGradient>
</defs>
</svg>
