<svg width="182" height="266" viewBox="0 0 182 266" fill="none" xmlns="http://www.w3.org/2000/svg">
<g filter="url(#filter0_d)">
<rect x="10" y="6" width="162" height="246" rx="15" fill="#F5F5F5"/>
</g>
<rect x="145.857" y="31" width="17.1429" height="1.25" rx="0.625" fill="#312E3A"/>
<rect x="143" y="37.875" width="20" height="1.25" rx="0.625" fill="#312E3A"/>
<rect x="151.572" y="44.75" width="11.4286" height="1.25" rx="0.625" fill="#312E3A"/>
<g filter="url(#filter1_d)">
<rect x="126" y="133" width="60" height="70" rx="3" transform="rotate(90 126 133)" fill="#E7E7E7"/>
</g>
<circle cx="89.5" cy="152.5" r="11" stroke="#ADC3D1" stroke-opacity="0.7" stroke-width="3"/>
<path fill-rule="evenodd" clip-rule="evenodd" d="M95.5821 161.252C95.3428 160.594 95.5832 159.868 96.0997 159.396C98.855 156.878 99.975 152.855 98.6191 149.129C97.2632 145.404 93.8193 143.042 90.09 142.884C89.391 142.855 88.7397 142.452 88.5004 141.795C88.1651 140.874 88.7619 139.871 89.7423 139.875C94.8291 139.896 99.5968 143.044 101.438 148.103C103.28 153.162 101.651 158.638 97.7675 161.924C97.0191 162.557 95.9175 162.173 95.5821 161.252Z" fill="#198CD9"/>
<path d="M86.3485 154.19H87.108V154.547C87.108 154.585 87.0963 154.616 87.073 154.642C87.052 154.668 87.0182 154.68 86.9715 154.68H86.3485V156H85.799V154.68H83.5765C83.5298 154.68 83.489 154.668 83.454 154.642C83.4213 154.614 83.4003 154.58 83.391 154.54L83.328 154.222L85.7675 150.984H86.3485V154.19ZM85.799 152.122C85.799 152.061 85.8002 151.996 85.8025 151.926C85.8072 151.856 85.8153 151.784 85.827 151.709L84.0035 154.19H85.799V152.122ZM91.0985 153.494C91.0985 153.933 91.0507 154.313 90.955 154.635C90.8617 154.955 90.7334 155.219 90.57 155.429C90.4067 155.639 90.213 155.796 89.989 155.898C89.7674 156.001 89.5294 156.053 89.275 156.053C89.0184 156.053 88.7792 156.001 88.5575 155.898C88.3382 155.796 88.1469 155.639 87.9835 155.429C87.8202 155.219 87.6919 154.955 87.5985 154.635C87.5052 154.313 87.4585 153.933 87.4585 153.494C87.4585 153.055 87.5052 152.675 87.5985 152.353C87.6919 152.031 87.8202 151.765 87.9835 151.555C88.1469 151.343 88.3382 151.185 88.5575 151.082C88.7792 150.98 89.0184 150.928 89.275 150.928C89.5294 150.928 89.7674 150.98 89.989 151.082C90.213 151.185 90.4067 151.343 90.57 151.555C90.7334 151.765 90.8617 152.031 90.955 152.353C91.0507 152.675 91.0985 153.055 91.0985 153.494ZM90.451 153.494C90.451 153.111 90.4184 152.79 90.353 152.531C90.29 152.27 90.2037 152.06 90.094 151.901C89.9867 151.743 89.8619 151.63 89.7195 151.562C89.5772 151.492 89.429 151.457 89.275 151.457C89.121 151.457 88.9729 151.492 88.8305 151.562C88.6882 151.63 88.5634 151.743 88.456 151.901C88.3487 152.06 88.2624 152.27 88.197 152.531C88.134 152.79 88.1025 153.111 88.1025 153.494C88.1025 153.877 88.134 154.197 88.197 154.456C88.2624 154.715 88.3487 154.924 88.456 155.083C88.5634 155.242 88.6882 155.356 88.8305 155.426C88.9729 155.494 89.121 155.527 89.275 155.527C89.429 155.527 89.5772 155.494 89.7195 155.426C89.8619 155.356 89.9867 155.242 90.094 155.083C90.2037 154.924 90.29 154.715 90.353 154.456C90.4184 154.197 90.451 153.877 90.451 153.494ZM93.7836 152.195C93.7836 152.391 93.7532 152.568 93.6926 152.724C93.6319 152.878 93.5502 153.009 93.4476 153.116C93.3472 153.221 93.2294 153.301 93.0941 153.357C92.9587 153.413 92.8176 153.441 92.6706 153.441C92.5119 153.441 92.3649 153.413 92.2296 153.357C92.0966 153.301 91.9799 153.221 91.8796 153.116C91.7792 153.009 91.7011 152.878 91.6451 152.724C91.5891 152.568 91.5611 152.391 91.5611 152.195C91.5611 151.995 91.5891 151.816 91.6451 151.66C91.7011 151.504 91.7792 151.372 91.8796 151.264C91.9799 151.157 92.0966 151.075 92.2296 151.019C92.3649 150.963 92.5119 150.935 92.6706 150.935C92.8269 150.935 92.9727 150.963 93.1081 151.019C93.2457 151.075 93.3636 151.157 93.4616 151.264C93.5619 151.372 93.6401 151.504 93.6961 151.66C93.7544 151.816 93.7836 151.995 93.7836 152.195ZM93.2971 152.195C93.2971 152.041 93.2807 151.911 93.2481 151.803C93.2154 151.696 93.1699 151.609 93.1116 151.541C93.0556 151.471 92.9891 151.421 92.9121 151.39C92.8374 151.36 92.7569 151.345 92.6706 151.345C92.5842 151.345 92.5026 151.36 92.4256 151.39C92.3509 151.421 92.2856 151.471 92.2296 151.541C92.1736 151.609 92.1292 151.696 92.0966 151.803C92.0662 151.911 92.0511 152.041 92.0511 152.195C92.0511 152.347 92.0662 152.477 92.0966 152.584C92.1292 152.689 92.1736 152.775 92.2296 152.843C92.2856 152.908 92.3509 152.956 92.4256 152.986C92.5026 153.014 92.5842 153.028 92.6706 153.028C92.7569 153.028 92.8374 153.014 92.9121 152.986C92.9891 152.956 93.0556 152.908 93.1116 152.843C93.1699 152.775 93.2154 152.689 93.2481 152.584C93.2807 152.477 93.2971 152.347 93.2971 152.195ZM95.5371 151.11C95.5674 151.071 95.5989 151.04 95.6316 151.019C95.6666 150.996 95.7121 150.984 95.7681 150.984H96.2161L92.5516 155.898C92.5282 155.929 92.5002 155.953 92.4676 155.972C92.4349 155.991 92.3964 156 92.3521 156H91.8901L95.5371 151.11ZM96.5556 154.817C96.5556 155.013 96.5252 155.188 96.4646 155.342C96.4039 155.496 96.3222 155.627 96.2196 155.734C96.1192 155.839 96.0014 155.919 95.8661 155.975C95.7331 156.032 95.5931 156.06 95.4461 156.06C95.2874 156.06 95.1404 156.032 95.0051 155.975C94.8721 155.919 94.7554 155.839 94.6551 155.734C94.5547 155.627 94.4766 155.496 94.4206 155.342C94.3646 155.188 94.3366 155.013 94.3366 154.817C94.3366 154.616 94.3646 154.438 94.4206 154.281C94.4766 154.123 94.5547 153.99 94.6551 153.882C94.7554 153.775 94.8721 153.693 95.0051 153.637C95.1404 153.581 95.2874 153.553 95.4461 153.553C95.6024 153.553 95.7482 153.581 95.8836 153.637C96.0189 153.693 96.1367 153.775 96.2371 153.882C96.3374 153.99 96.4156 154.123 96.4716 154.281C96.5276 154.438 96.5556 154.616 96.5556 154.817ZM96.0726 154.817C96.0726 154.663 96.0562 154.532 96.0236 154.425C95.9909 154.315 95.9454 154.227 95.8871 154.159C95.8311 154.091 95.7646 154.042 95.6876 154.012C95.6129 153.982 95.5324 153.966 95.4461 153.966C95.3597 153.966 95.2781 153.982 95.2011 154.012C95.1264 154.042 95.0611 154.091 95.0051 154.159C94.9491 154.227 94.9047 154.315 94.8721 154.425C94.8417 154.532 94.8266 154.663 94.8266 154.817C94.8266 154.969 94.8417 155.097 94.8721 155.202C94.9047 155.307 94.9491 155.393 95.0051 155.461C95.0611 155.526 95.1264 155.574 95.2011 155.604C95.2781 155.632 95.3597 155.646 95.4461 155.646C95.5324 155.646 95.6129 155.632 95.6876 155.604C95.7646 155.574 95.8311 155.526 95.8871 155.461C95.9454 155.393 95.9909 155.307 96.0236 155.202C96.0562 155.097 96.0726 154.969 96.0726 154.817Z" fill="#198CD9"/>
<rect x="23" y="29" width="20" height="20" rx="5" fill="#198CD9"/>
<circle cx="33" cy="39" r="6" fill="white"/>
<path d="M35.729 37.1236C35.729 37.452 35.4733 37.6951 35.1859 37.6951C34.8986 37.6951 34.6428 37.452 34.6428 37.1236C34.6428 36.7952 34.8986 36.5521 35.1859 36.5521C35.4733 36.5521 35.729 36.7952 35.729 37.1236Z" stroke="#A1B761"/>
<mask id="path-12-inside-1" fill="white">
<ellipse cx="35.1859" cy="37.1236" rx="0.625851" ry="0.642911"/>
</mask>
<path d="M34.8118 37.1236C34.8118 36.9519 34.9541 36.7665 35.1859 36.7665V38.7665C36.109 38.7665 36.8118 38.0055 36.8118 37.1236H34.8118ZM35.1859 36.7665C35.4177 36.7665 35.5601 36.9519 35.5601 37.1236H33.5601C33.5601 38.0055 34.2628 38.7665 35.1859 38.7665V36.7665ZM35.5601 37.1236C35.5601 37.2953 35.4177 37.4807 35.1859 37.4807V35.4807C34.2628 35.4807 33.5601 36.2418 33.5601 37.1236H35.5601ZM35.1859 37.4807C34.9541 37.4807 34.8118 37.2953 34.8118 37.1236H36.8118C36.8118 36.2418 36.109 35.4807 35.1859 35.4807V37.4807Z" fill="#A1B761" mask="url(#path-12-inside-1)"/>
<rect width="0.4" height="0.00559312" rx="0.00279656" transform="matrix(0.839152 -0.543898 0 -1 36.3999 36.4232)" fill="#A1B761"/>
<line x1="29.5" y1="42" x2="29.5" y2="36.1463" stroke="#198CD9"/>
<line x1="30" y1="41.5" x2="35.7143" y2="41.5" stroke="#198CD9"/>
<path d="M30.0715 41.8537L32.358 39.2582C32.5846 39.001 32.9108 38.8537 33.2535 38.8537V38.8537C33.6724 38.8537 34.0606 38.634 34.2764 38.2749L34.5001 37.9025" stroke="#198CD9"/>
<path fill-rule="evenodd" clip-rule="evenodd" d="M174 82.539C170.1 83.4941 166.027 84 161.819 84C133.146 84 117 53.2493 117 23.3428C117 17.6614 117.887 12.1515 119.532 7H164C169.523 7 174 11.4772 174 17V82.539Z" fill="#198CD9" fill-opacity="0.3"/>
<circle cx="64" cy="185" r="4" fill="#198CD9"/>
<path d="M64.2287 185.715C64.2287 185.918 64.2037 186.102 64.1537 186.265C64.1037 186.428 64.0287 186.567 63.9287 186.682C63.8304 186.797 63.707 186.886 63.5587 186.947C63.4104 187.009 63.2379 187.04 63.0412 187.04C62.9512 187.04 62.8629 187.034 62.7762 187.023C62.6895 187.013 62.5987 186.996 62.5037 186.972L62.5387 186.572C62.542 186.536 62.5554 186.507 62.5787 186.485C62.6037 186.462 62.6395 186.45 62.6862 186.45C62.7145 186.45 62.7512 186.456 62.7962 186.467C62.8429 186.479 62.9012 186.485 62.9712 186.485C63.0662 186.485 63.1504 186.472 63.2237 186.445C63.297 186.417 63.3579 186.372 63.4062 186.312C63.4562 186.252 63.4937 186.175 63.5187 186.08C63.5437 185.983 63.5562 185.867 63.5562 185.73V183.385H64.2287V185.715Z" fill="white"/>
<g filter="url(#filter2_d)">
<rect x="108" y="217" width="40" height="15" rx="5" fill="url(#paint0_linear)"/>
</g>
<path d="M116.034 223.481V224.711H117.201V225.26H116.034V226.496H115.434V225.26H114.273V224.711H115.434V223.481H116.034ZM123.24 224.831C123.24 225.149 123.187 225.444 123.081 225.716C122.975 225.986 122.826 226.22 122.634 226.418C122.442 226.616 122.211 226.771 121.941 226.883C121.671 226.993 121.372 227.048 121.044 227.048C120.716 227.048 120.416 226.993 120.144 226.883C119.874 226.771 119.642 226.616 119.448 226.418C119.256 226.22 119.107 225.986 119.001 225.716C118.895 225.444 118.842 225.149 118.842 224.831C118.842 224.513 118.895 224.219 119.001 223.949C119.107 223.677 119.256 223.442 119.448 223.244C119.642 223.046 119.874 222.892 120.144 222.782C120.416 222.67 120.716 222.614 121.044 222.614C121.372 222.614 121.671 222.67 121.941 222.782C122.211 222.894 122.442 223.049 122.634 223.247C122.826 223.443 122.975 223.677 123.081 223.949C123.187 224.219 123.24 224.513 123.24 224.831ZM122.412 224.831C122.412 224.593 122.38 224.38 122.316 224.192C122.254 224.002 122.164 223.841 122.046 223.709C121.928 223.577 121.784 223.476 121.614 223.406C121.446 223.336 121.256 223.301 121.044 223.301C120.832 223.301 120.641 223.336 120.471 223.406C120.301 223.476 120.156 223.577 120.036 223.709C119.918 223.841 119.827 224.002 119.763 224.192C119.699 224.38 119.667 224.593 119.667 224.831C119.667 225.069 119.699 225.283 119.763 225.473C119.827 225.661 119.918 225.821 120.036 225.953C120.156 226.083 120.301 226.183 120.471 226.253C120.641 226.323 120.832 226.358 121.044 226.358C121.256 226.358 121.446 226.323 121.614 226.253C121.784 226.183 121.928 226.083 122.046 225.953C122.164 225.821 122.254 225.661 122.316 225.473C122.38 225.283 122.412 225.069 122.412 224.831ZM123.844 227V222.542H124.585V224.3C124.707 224.17 124.845 224.067 124.999 223.991C125.153 223.913 125.333 223.874 125.539 223.874C125.707 223.874 125.86 223.909 125.998 223.979C126.138 224.047 126.258 224.147 126.358 224.279C126.46 224.411 126.538 224.574 126.592 224.768C126.648 224.962 126.676 225.185 126.676 225.437C126.676 225.667 126.645 225.88 126.583 226.076C126.521 226.272 126.432 226.442 126.316 226.586C126.202 226.73 126.063 226.843 125.899 226.925C125.737 227.005 125.555 227.045 125.353 227.045C125.259 227.045 125.173 227.035 125.095 227.015C125.017 226.997 124.946 226.971 124.882 226.937C124.818 226.903 124.758 226.862 124.702 226.814C124.648 226.764 124.596 226.709 124.546 226.649L124.513 226.856C124.501 226.908 124.48 226.945 124.45 226.967C124.422 226.989 124.383 227 124.333 227H123.844ZM125.284 224.45C125.13 224.45 124.998 224.483 124.888 224.549C124.78 224.613 124.679 224.704 124.585 224.822V226.202C124.669 226.306 124.76 226.379 124.858 226.421C124.958 226.461 125.066 226.481 125.182 226.481C125.294 226.481 125.395 226.46 125.485 226.418C125.575 226.376 125.651 226.312 125.713 226.226C125.777 226.14 125.826 226.032 125.86 225.902C125.894 225.77 125.911 225.615 125.911 225.437C125.911 225.257 125.896 225.105 125.866 224.981C125.838 224.855 125.797 224.753 125.743 224.675C125.689 224.597 125.623 224.54 125.545 224.504C125.469 224.468 125.382 224.45 125.284 224.45ZM128.046 223.922V227.105C128.046 227.239 128.028 227.365 127.992 227.483C127.958 227.601 127.902 227.704 127.824 227.792C127.748 227.882 127.647 227.952 127.521 228.002C127.397 228.054 127.245 228.08 127.065 228.08C126.995 228.08 126.93 228.075 126.87 228.065C126.81 228.057 126.749 228.043 126.687 228.023L126.711 227.624C126.717 227.584 126.733 227.558 126.759 227.546C126.785 227.536 126.835 227.531 126.909 227.531C126.983 227.531 127.045 227.523 127.095 227.507C127.147 227.493 127.188 227.469 127.218 227.435C127.25 227.403 127.272 227.36 127.284 227.306C127.298 227.252 127.305 227.185 127.305 227.105V223.922H128.046ZM128.157 223.025C128.157 223.089 128.144 223.149 128.118 223.205C128.092 223.261 128.057 223.31 128.013 223.352C127.971 223.394 127.921 223.428 127.863 223.454C127.805 223.478 127.743 223.49 127.677 223.49C127.613 223.49 127.552 223.478 127.494 223.454C127.438 223.428 127.389 223.394 127.347 223.352C127.305 223.31 127.271 223.261 127.245 223.205C127.221 223.149 127.209 223.089 127.209 223.025C127.209 222.959 127.221 222.897 127.245 222.839C127.271 222.781 127.305 222.731 127.347 222.689C127.389 222.647 127.438 222.614 127.494 222.59C127.552 222.564 127.613 222.551 127.677 222.551C127.743 222.551 127.805 222.564 127.863 222.59C127.921 222.614 127.971 222.647 128.013 222.689C128.057 222.731 128.092 222.781 128.118 222.839C128.144 222.897 128.157 222.959 128.157 223.025ZM130.141 223.874C130.335 223.874 130.513 223.905 130.675 223.967C130.839 224.029 130.98 224.12 131.098 224.24C131.216 224.358 131.308 224.504 131.374 224.678C131.44 224.85 131.473 225.047 131.473 225.269C131.473 225.325 131.47 225.372 131.464 225.41C131.46 225.446 131.451 225.475 131.437 225.497C131.425 225.517 131.408 225.532 131.386 225.542C131.364 225.55 131.336 225.554 131.302 225.554H129.4C129.422 225.87 129.507 226.102 129.655 226.25C129.803 226.398 129.999 226.472 130.243 226.472C130.363 226.472 130.466 226.458 130.552 226.43C130.64 226.402 130.716 226.371 130.78 226.337C130.846 226.303 130.903 226.272 130.951 226.244C131.001 226.216 131.049 226.202 131.095 226.202C131.125 226.202 131.151 226.208 131.173 226.22C131.195 226.232 131.214 226.249 131.23 226.271L131.446 226.541C131.364 226.637 131.272 226.718 131.17 226.784C131.068 226.848 130.961 226.9 130.849 226.94C130.739 226.978 130.626 227.005 130.51 227.021C130.396 227.037 130.285 227.045 130.177 227.045C129.963 227.045 129.764 227.01 129.58 226.94C129.396 226.868 129.236 226.763 129.1 226.625C128.964 226.485 128.857 226.313 128.779 226.109C128.701 225.903 128.662 225.665 128.662 225.395C128.662 225.185 128.696 224.988 128.764 224.804C128.832 224.618 128.929 224.457 129.055 224.321C129.183 224.183 129.338 224.074 129.52 223.994C129.704 223.914 129.911 223.874 130.141 223.874ZM130.156 224.405C129.94 224.405 129.771 224.466 129.649 224.588C129.527 224.71 129.449 224.883 129.415 225.107H130.807C130.807 225.011 130.794 224.921 130.768 224.837C130.742 224.751 130.702 224.676 130.648 224.612C130.594 224.548 130.526 224.498 130.444 224.462C130.362 224.424 130.266 224.405 130.156 224.405ZM134.237 224.573C134.215 224.601 134.193 224.623 134.171 224.639C134.151 224.655 134.121 224.663 134.081 224.663C134.043 224.663 134.006 224.652 133.97 224.63C133.934 224.606 133.891 224.58 133.841 224.552C133.791 224.522 133.731 224.496 133.661 224.474C133.593 224.45 133.508 224.438 133.406 224.438C133.276 224.438 133.162 224.462 133.064 224.51C132.966 224.556 132.884 224.623 132.818 224.711C132.754 224.799 132.706 224.906 132.674 225.032C132.642 225.156 132.626 225.297 132.626 225.455C132.626 225.619 132.643 225.765 132.677 225.893C132.713 226.021 132.764 226.129 132.83 226.217C132.896 226.303 132.976 226.369 133.07 226.415C133.164 226.459 133.27 226.481 133.388 226.481C133.506 226.481 133.601 226.467 133.673 226.439C133.747 226.409 133.809 226.377 133.859 226.343C133.909 226.307 133.952 226.275 133.988 226.247C134.026 226.217 134.068 226.202 134.114 226.202C134.174 226.202 134.219 226.225 134.249 226.271L134.462 226.541C134.38 226.637 134.291 226.718 134.195 226.784C134.099 226.848 133.999 226.9 133.895 226.94C133.793 226.978 133.687 227.005 133.577 227.021C133.467 227.037 133.358 227.045 133.25 227.045C133.06 227.045 132.881 227.01 132.713 226.94C132.545 226.868 132.398 226.764 132.272 226.628C132.148 226.492 132.049 226.326 131.975 226.13C131.903 225.932 131.867 225.707 131.867 225.455C131.867 225.229 131.899 225.02 131.963 224.828C132.029 224.634 132.125 224.467 132.251 224.327C132.377 224.185 132.533 224.074 132.719 223.994C132.905 223.914 133.119 223.874 133.361 223.874C133.591 223.874 133.792 223.911 133.964 223.985C134.138 224.059 134.294 224.165 134.432 224.303L134.237 224.573ZM135.944 227.048C135.678 227.048 135.473 226.973 135.329 226.823C135.185 226.671 135.113 226.462 135.113 226.196V224.477H134.801C134.761 224.477 134.726 224.464 134.696 224.438C134.668 224.412 134.654 224.373 134.654 224.321V224.027L135.149 223.946L135.305 223.106C135.313 223.066 135.331 223.035 135.359 223.013C135.389 222.991 135.426 222.98 135.47 222.98H135.854V223.949H136.664V224.477H135.854V226.145C135.854 226.241 135.878 226.316 135.926 226.37C135.974 226.424 136.038 226.451 136.118 226.451C136.164 226.451 136.202 226.446 136.232 226.436C136.264 226.424 136.291 226.412 136.313 226.4C136.337 226.388 136.358 226.377 136.376 226.367C136.394 226.355 136.412 226.349 136.43 226.349C136.452 226.349 136.47 226.355 136.484 226.367C136.498 226.377 136.513 226.393 136.529 226.415L136.751 226.775C136.643 226.865 136.519 226.933 136.379 226.979C136.239 227.025 136.094 227.048 135.944 227.048ZM138.042 223.922V227H137.301V223.922H138.042ZM138.153 223.025C138.153 223.089 138.14 223.149 138.114 223.205C138.088 223.261 138.053 223.31 138.009 223.352C137.967 223.394 137.917 223.428 137.859 223.454C137.801 223.478 137.739 223.49 137.673 223.49C137.609 223.49 137.548 223.478 137.49 223.454C137.434 223.428 137.385 223.394 137.343 223.352C137.301 223.31 137.267 223.261 137.241 223.205C137.217 223.149 137.205 223.089 137.205 223.025C137.205 222.959 137.217 222.897 137.241 222.839C137.267 222.781 137.301 222.731 137.343 222.689C137.385 222.647 137.434 222.614 137.49 222.59C137.548 222.564 137.609 222.551 137.673 222.551C137.739 222.551 137.801 222.564 137.859 222.59C137.917 222.614 137.967 222.647 138.009 222.689C138.053 222.731 138.088 222.781 138.114 222.839C138.14 222.897 138.153 222.959 138.153 223.025ZM139.014 227V224.48L138.747 224.438C138.689 224.428 138.642 224.408 138.606 224.378C138.572 224.348 138.555 224.306 138.555 224.252V223.949H139.014V223.721C139.014 223.545 139.04 223.387 139.092 223.247C139.146 223.107 139.222 222.988 139.32 222.89C139.42 222.792 139.541 222.717 139.683 222.665C139.825 222.613 139.985 222.587 140.163 222.587C140.305 222.587 140.437 222.606 140.559 222.644L140.544 223.016C140.54 223.074 140.513 223.11 140.463 223.124C140.413 223.138 140.355 223.145 140.289 223.145C140.201 223.145 140.122 223.155 140.052 223.175C139.984 223.193 139.926 223.226 139.878 223.274C139.83 223.32 139.793 223.382 139.767 223.46C139.743 223.536 139.731 223.631 139.731 223.745V223.949H140.532V224.477H139.755V227H139.014Z" fill="#312E3A"/>
<path d="M70.8442 174.124V176H70.1687V170.984H71.6492C71.9666 170.984 72.2419 171.022 72.4752 171.096C72.7109 171.169 72.9057 171.273 73.0597 171.408C73.2137 171.543 73.3281 171.707 73.4027 171.898C73.4797 172.089 73.5182 172.303 73.5182 172.538C73.5182 172.772 73.4774 172.985 73.3957 173.179C73.3141 173.373 73.1939 173.539 73.0352 173.679C72.8789 173.819 72.6841 173.929 72.4507 174.008C72.2174 174.085 71.9502 174.124 71.6492 174.124H70.8442ZM70.8442 173.585H71.6492C71.8429 173.585 72.0132 173.559 72.1602 173.508C72.3096 173.457 72.4344 173.385 72.5347 173.294C72.6351 173.201 72.7109 173.09 72.7622 172.962C72.8136 172.834 72.8392 172.692 72.8392 172.538C72.8392 172.219 72.7401 171.969 72.5417 171.789C72.3457 171.61 72.0482 171.52 71.6492 171.52H70.8442V173.585ZM75.581 172.398C75.7933 172.398 75.9893 172.435 76.169 172.507C76.3487 172.577 76.5038 172.68 76.6345 172.815C76.7652 172.948 76.8667 173.114 76.939 173.312C77.0137 173.508 77.051 173.732 77.051 173.984C77.051 174.082 77.0405 174.147 77.0195 174.18C76.9985 174.213 76.9588 174.229 76.9005 174.229H74.5415C74.5462 174.453 74.5765 174.648 74.6325 174.813C74.6885 174.979 74.7655 175.118 74.8635 175.23C74.9615 175.34 75.0782 175.422 75.2135 175.478C75.3488 175.532 75.5005 175.559 75.6685 175.559C75.8248 175.559 75.959 175.541 76.071 175.506C76.1853 175.469 76.2833 175.429 76.365 175.387C76.4467 175.345 76.5143 175.307 76.568 175.272C76.624 175.235 76.6718 175.216 76.7115 175.216C76.7628 175.216 76.8025 175.236 76.8305 175.275L77.0055 175.503C76.9285 175.596 76.8363 175.678 76.729 175.748C76.6217 175.816 76.5062 175.872 76.3825 175.916C76.2612 175.96 76.1352 175.993 76.0045 176.014C75.8738 176.037 75.7443 176.049 75.616 176.049C75.371 176.049 75.1447 176.008 74.937 175.926C74.7317 175.842 74.5532 175.721 74.4015 175.562C74.2522 175.401 74.1355 175.203 74.0515 174.967C73.9675 174.732 73.9255 174.461 73.9255 174.155C73.9255 173.908 73.9628 173.677 74.0375 173.462C74.1145 173.248 74.2242 173.062 74.3665 172.906C74.5088 172.747 74.6827 172.624 74.888 172.535C75.0933 172.444 75.3243 172.398 75.581 172.398ZM75.595 172.857C75.294 172.857 75.0572 172.944 74.8845 173.119C74.7118 173.292 74.6045 173.532 74.5625 173.84H76.491C76.491 173.696 76.4712 173.564 76.4315 173.445C76.3918 173.324 76.3335 173.22 76.2565 173.133C76.1795 173.045 76.085 172.977 75.973 172.93C75.8633 172.881 75.7373 172.857 75.595 172.857ZM77.8484 176V172.454H78.2054C78.2731 172.454 78.3197 172.467 78.3454 172.493C78.3711 172.519 78.3886 172.563 78.3979 172.626L78.4399 173.179C78.5612 172.932 78.7106 172.739 78.8879 172.601C79.0676 172.461 79.2776 172.391 79.5179 172.391C79.6159 172.391 79.7046 172.403 79.7839 172.426C79.8632 172.447 79.9367 172.478 80.0044 172.517L79.9239 172.983C79.9076 173.041 79.8714 173.07 79.8154 173.07C79.7827 173.07 79.7326 173.06 79.6649 173.039C79.5972 173.016 79.5027 173.004 79.3814 173.004C79.1644 173.004 78.9824 173.067 78.8354 173.193C78.6907 173.319 78.5694 173.502 78.4714 173.742V176H77.8484ZM83.1671 176C83.0785 176 83.0225 175.957 82.9991 175.87L82.9431 175.44C82.7915 175.624 82.6176 175.772 82.4216 175.885C82.228 175.994 82.0051 176.049 81.7531 176.049C81.5501 176.049 81.3658 176.01 81.2001 175.933C81.0345 175.854 80.8933 175.739 80.7766 175.587C80.66 175.435 80.5701 175.246 80.5071 175.02C80.4441 174.794 80.4126 174.533 80.4126 174.239C80.4126 173.978 80.4476 173.735 80.5176 173.511C80.5876 173.285 80.688 173.089 80.8186 172.923C80.9516 172.758 81.1126 172.628 81.3016 172.535C81.4906 172.439 81.7053 172.391 81.9456 172.391C82.1626 172.391 82.3481 172.429 82.5021 172.503C82.6561 172.576 82.7938 172.678 82.9151 172.811V170.844H83.5381V176H83.1671ZM81.9596 175.545C82.1626 175.545 82.34 175.498 82.4916 175.405C82.6456 175.312 82.7868 175.18 82.9151 175.009V173.294C82.8008 173.14 82.6748 173.033 82.5371 172.972C82.4018 172.909 82.2513 172.878 82.0856 172.878C81.7543 172.878 81.5 172.996 81.3226 173.231C81.1453 173.467 81.0566 173.803 81.0566 174.239C81.0566 174.47 81.0765 174.669 81.1161 174.834C81.1558 174.998 81.2141 175.133 81.2911 175.24C81.3681 175.345 81.4626 175.422 81.5746 175.471C81.6866 175.52 81.815 175.545 81.9596 175.545ZM84.5818 176V172.454H84.9388C85.0065 172.454 85.0531 172.467 85.0788 172.493C85.1045 172.519 85.122 172.563 85.1313 172.626L85.1733 173.179C85.2946 172.932 85.444 172.739 85.6213 172.601C85.801 172.461 86.011 172.391 86.2513 172.391C86.3493 172.391 86.438 172.403 86.5173 172.426C86.5966 172.447 86.6701 172.478 86.7378 172.517L86.6573 172.983C86.641 173.041 86.6048 173.07 86.5488 173.07C86.5161 173.07 86.466 173.06 86.3983 173.039C86.3306 173.016 86.2361 173.004 86.1148 173.004C85.8978 173.004 85.7158 173.067 85.5688 173.193C85.4241 173.319 85.3028 173.502 85.2048 173.742V176H84.5818ZM88.8085 172.398C89.0209 172.398 89.2169 172.435 89.3965 172.507C89.5762 172.577 89.7314 172.68 89.862 172.815C89.9927 172.948 90.0942 173.114 90.1665 173.312C90.2412 173.508 90.2785 173.732 90.2785 173.984C90.2785 174.082 90.268 174.147 90.247 174.18C90.226 174.213 90.1864 174.229 90.128 174.229H87.769C87.7737 174.453 87.804 174.648 87.86 174.813C87.916 174.979 87.993 175.118 88.091 175.23C88.189 175.34 88.3057 175.422 88.441 175.478C88.5764 175.532 88.728 175.559 88.896 175.559C89.0524 175.559 89.1865 175.541 89.2985 175.506C89.4129 175.469 89.5109 175.429 89.5925 175.387C89.6742 175.345 89.7419 175.307 89.7955 175.272C89.8515 175.235 89.8994 175.216 89.939 175.216C89.9904 175.216 90.03 175.236 90.058 175.275L90.233 175.503C90.156 175.596 90.0639 175.678 89.9565 175.748C89.8492 175.816 89.7337 175.872 89.61 175.916C89.4887 175.96 89.3627 175.993 89.232 176.014C89.1014 176.037 88.9719 176.049 88.8435 176.049C88.5985 176.049 88.3722 176.008 88.1645 175.926C87.9592 175.842 87.7807 175.721 87.629 175.562C87.4797 175.401 87.363 175.203 87.279 174.967C87.195 174.732 87.153 174.461 87.153 174.155C87.153 173.908 87.1904 173.677 87.265 173.462C87.342 173.248 87.4517 173.062 87.594 172.906C87.7364 172.747 87.9102 172.624 88.1155 172.535C88.3209 172.444 88.5519 172.398 88.8085 172.398ZM88.8225 172.857C88.5215 172.857 88.2847 172.944 88.112 173.119C87.9394 173.292 87.832 173.532 87.79 173.84H89.7185C89.7185 173.696 89.6987 173.564 89.659 173.445C89.6194 173.324 89.561 173.22 89.484 173.133C89.407 173.045 89.3125 172.977 89.2005 172.93C89.0909 172.881 88.9649 172.857 88.8225 172.857ZM95.3415 171.257C95.3415 171.346 95.3135 171.42 95.2575 171.478C95.2015 171.534 95.107 171.562 94.974 171.562H93.399L93.168 172.878C93.4293 172.822 93.6708 172.794 93.8925 172.794C94.1538 172.794 94.3836 172.832 94.582 172.909C94.7826 172.986 94.9506 173.093 95.086 173.228C95.2213 173.363 95.3228 173.523 95.3905 173.707C95.4605 173.892 95.4955 174.092 95.4955 174.309C95.4955 174.575 95.4488 174.816 95.3555 175.03C95.2621 175.245 95.1338 175.429 94.9705 175.583C94.8095 175.735 94.6193 175.852 94.4 175.933C94.1806 176.015 93.9438 176.056 93.6895 176.056C93.5425 176.056 93.4013 176.041 93.266 176.011C93.1306 175.982 93.0046 175.944 92.888 175.895C92.7713 175.846 92.6628 175.79 92.5625 175.727C92.4621 175.664 92.3735 175.597 92.2965 175.527L92.4855 175.261C92.5275 175.201 92.5835 175.17 92.6535 175.17C92.6978 175.17 92.7491 175.189 92.8075 175.226C92.8681 175.261 92.9405 175.301 93.0245 175.345C93.1085 175.39 93.2065 175.431 93.3185 175.468C93.4328 175.503 93.5681 175.52 93.7245 175.52C93.8995 175.52 94.057 175.492 94.197 175.436C94.337 175.38 94.456 175.301 94.554 175.198C94.6543 175.093 94.7313 174.969 94.785 174.824C94.8386 174.679 94.8655 174.517 94.8655 174.337C94.8655 174.181 94.8421 174.04 94.7955 173.914C94.7511 173.788 94.6823 173.681 94.589 173.592C94.498 173.503 94.3836 173.434 94.246 173.385C94.1083 173.336 93.9473 173.312 93.763 173.312C93.637 173.312 93.5063 173.322 93.371 173.343C93.2356 173.364 93.0956 173.398 92.951 173.445L92.559 173.329L92.965 170.984H95.3415V171.257ZM98.491 170.844V173.879H98.652C98.6987 173.879 98.7372 173.873 98.7675 173.861C98.7979 173.847 98.8317 173.821 98.869 173.781L99.989 172.58C100.024 172.543 100.059 172.513 100.094 172.489C100.129 172.466 100.176 172.454 100.234 172.454H100.801L99.4955 173.844C99.4629 173.884 99.4302 173.919 99.3975 173.949C99.3672 173.979 99.3322 174.006 99.2925 174.029C99.3345 174.057 99.3719 174.09 99.4045 174.127C99.4395 174.162 99.4722 174.203 99.5025 174.25L100.889 176H100.329C100.277 176 100.233 175.991 100.196 175.972C100.161 175.951 100.127 175.919 100.094 175.877L98.9285 174.425C98.8935 174.376 98.8585 174.344 98.8235 174.33C98.7885 174.314 98.736 174.306 98.666 174.306H98.491V176H97.8645V170.844H98.491ZM102.207 172.454V176H101.584V172.454H102.207ZM102.347 171.341C102.347 171.402 102.335 171.459 102.309 171.513C102.286 171.564 102.253 171.611 102.211 171.653C102.171 171.693 102.125 171.724 102.071 171.747C102.017 171.771 101.96 171.782 101.899 171.782C101.839 171.782 101.782 171.771 101.728 171.747C101.677 171.724 101.63 171.693 101.588 171.653C101.548 171.611 101.517 171.564 101.493 171.513C101.47 171.459 101.458 171.402 101.458 171.341C101.458 171.281 101.47 171.224 101.493 171.17C101.517 171.114 101.548 171.066 101.588 171.026C101.63 170.984 101.677 170.952 101.728 170.928C101.782 170.905 101.839 170.893 101.899 170.893C101.96 170.893 102.017 170.905 102.071 170.928C102.125 170.952 102.171 170.984 102.211 171.026C102.253 171.066 102.286 171.114 102.309 171.17C102.335 171.224 102.347 171.281 102.347 171.341ZM103.998 170.844V176H103.375V170.844H103.998ZM106.531 172.398C106.79 172.398 107.024 172.442 107.231 172.528C107.441 172.614 107.619 172.737 107.763 172.895C107.91 173.054 108.022 173.247 108.099 173.473C108.179 173.697 108.218 173.948 108.218 174.225C108.218 174.505 108.179 174.757 108.099 174.981C108.022 175.205 107.91 175.397 107.763 175.555C107.619 175.714 107.441 175.837 107.231 175.923C107.024 176.007 106.79 176.049 106.531 176.049C106.272 176.049 106.038 176.007 105.828 175.923C105.62 175.837 105.443 175.714 105.296 175.555C105.149 175.397 105.036 175.205 104.956 174.981C104.877 174.757 104.837 174.505 104.837 174.225C104.837 173.948 104.877 173.697 104.956 173.473C105.036 173.247 105.149 173.054 105.296 172.895C105.443 172.737 105.62 172.614 105.828 172.528C106.038 172.442 106.272 172.398 106.531 172.398ZM106.531 175.562C106.881 175.562 107.143 175.446 107.315 175.212C107.488 174.977 107.574 174.649 107.574 174.229C107.574 173.807 107.488 173.478 107.315 173.242C107.143 173.006 106.881 172.888 106.531 172.888C106.354 172.888 106.2 172.919 106.069 172.979C105.939 173.04 105.829 173.128 105.74 173.242C105.654 173.356 105.589 173.497 105.544 173.665C105.502 173.831 105.481 174.019 105.481 174.229C105.481 174.439 105.502 174.627 105.544 174.792C105.589 174.958 105.654 175.098 105.74 175.212C105.829 175.324 105.939 175.411 106.069 175.471C106.2 175.532 106.354 175.562 106.531 175.562ZM111.016 173.039C110.988 173.09 110.945 173.116 110.887 173.116C110.852 173.116 110.812 173.103 110.768 173.077C110.723 173.052 110.668 173.024 110.603 172.993C110.54 172.961 110.464 172.932 110.376 172.906C110.287 172.878 110.182 172.864 110.061 172.864C109.956 172.864 109.861 172.878 109.777 172.906C109.693 172.932 109.621 172.968 109.56 173.014C109.502 173.061 109.456 173.116 109.424 173.179C109.393 173.24 109.378 173.306 109.378 173.378C109.378 173.469 109.404 173.545 109.455 173.606C109.509 173.667 109.579 173.719 109.665 173.763C109.751 173.808 109.849 173.847 109.959 173.882C110.069 173.915 110.181 173.951 110.295 173.991C110.412 174.028 110.525 174.07 110.635 174.117C110.744 174.164 110.842 174.222 110.929 174.292C111.015 174.362 111.084 174.448 111.135 174.551C111.189 174.651 111.216 174.773 111.216 174.915C111.216 175.078 111.186 175.23 111.128 175.37C111.07 175.508 110.983 175.628 110.869 175.73C110.755 175.831 110.615 175.91 110.449 175.968C110.283 176.027 110.092 176.056 109.875 176.056C109.628 176.056 109.404 176.016 109.203 175.937C109.002 175.855 108.832 175.751 108.692 175.625L108.839 175.387C108.858 175.357 108.88 175.334 108.906 175.317C108.931 175.301 108.965 175.293 109.007 175.293C109.049 175.293 109.093 175.309 109.14 175.342C109.187 175.375 109.243 175.411 109.308 175.45C109.376 175.49 109.456 175.526 109.55 175.559C109.645 175.592 109.764 175.608 109.907 175.608C110.028 175.608 110.134 175.593 110.225 175.562C110.316 175.53 110.392 175.487 110.453 175.433C110.513 175.379 110.558 175.317 110.586 175.247C110.616 175.177 110.631 175.103 110.631 175.023C110.631 174.925 110.604 174.845 110.551 174.782C110.499 174.717 110.43 174.662 110.344 174.617C110.258 174.571 110.159 174.531 110.047 174.498C109.937 174.463 109.824 174.427 109.707 174.39C109.593 174.353 109.48 174.311 109.368 174.264C109.258 174.215 109.16 174.154 109.074 174.082C108.987 174.01 108.917 173.921 108.864 173.816C108.812 173.709 108.787 173.579 108.787 173.427C108.787 173.292 108.815 173.163 108.871 173.039C108.927 172.913 109.008 172.803 109.116 172.71C109.223 172.614 109.355 172.538 109.511 172.483C109.667 172.426 109.846 172.398 110.047 172.398C110.28 172.398 110.489 172.436 110.673 172.51C110.86 172.583 111.021 172.683 111.156 172.811L111.016 173.039Z" fill="#312E3A"/>
<path d="M56.2642 65.324H57.5662C57.7062 65.324 57.8202 65.358 57.9082 65.426C57.9962 65.494 58.0622 65.582 58.1062 65.69L60.1462 70.982C60.2142 71.154 60.2782 71.344 60.3382 71.552C60.4022 71.756 60.4622 71.972 60.5182 72.2C60.6102 71.74 60.7242 71.334 60.8602 70.982L62.8942 65.69C62.9302 65.598 62.9942 65.514 63.0862 65.438C63.1782 65.362 63.2922 65.324 63.4282 65.324H64.7302L61.2262 74H59.7682L56.2642 65.324ZM67.4415 67.748C67.9015 67.748 68.3175 67.822 68.6895 67.97C69.0655 68.118 69.3855 68.328 69.6495 68.6C69.9135 68.872 70.1175 69.204 70.2615 69.596C70.4055 69.988 70.4775 70.426 70.4775 70.91C70.4775 71.398 70.4055 71.838 70.2615 72.23C70.1175 72.622 69.9135 72.956 69.6495 73.232C69.3855 73.508 69.0655 73.72 68.6895 73.868C68.3175 74.016 67.9015 74.09 67.4415 74.09C66.9815 74.09 66.5635 74.016 66.1875 73.868C65.8115 73.72 65.4895 73.508 65.2215 73.232C64.9575 72.956 64.7515 72.622 64.6035 72.23C64.4595 71.838 64.3875 71.398 64.3875 70.91C64.3875 70.426 64.4595 69.988 64.6035 69.596C64.7515 69.204 64.9575 68.872 65.2215 68.6C65.4895 68.328 65.8115 68.118 66.1875 67.97C66.5635 67.822 66.9815 67.748 67.4415 67.748ZM67.4415 72.95C67.9535 72.95 68.3315 72.778 68.5755 72.434C68.8235 72.09 68.9475 71.586 68.9475 70.922C68.9475 70.258 68.8235 69.752 68.5755 69.404C68.3315 69.056 67.9535 68.882 67.4415 68.882C66.9215 68.882 66.5375 69.058 66.2895 69.41C66.0415 69.758 65.9175 70.262 65.9175 70.922C65.9175 71.582 66.0415 72.086 66.2895 72.434C66.5375 72.778 66.9215 72.95 67.4415 72.95ZM75.2878 69.044C75.2478 69.108 75.2058 69.154 75.1618 69.182C75.1178 69.206 75.0618 69.218 74.9938 69.218C74.9218 69.218 74.8438 69.198 74.7598 69.158C74.6798 69.118 74.5858 69.074 74.4778 69.026C74.3698 68.974 74.2458 68.928 74.1058 68.888C73.9698 68.848 73.8078 68.828 73.6198 68.828C73.3278 68.828 73.0978 68.89 72.9298 69.014C72.7618 69.138 72.6778 69.3 72.6778 69.5C72.6778 69.632 72.7198 69.744 72.8038 69.836C72.8918 69.924 73.0058 70.002 73.1458 70.07C73.2898 70.138 73.4518 70.2 73.6318 70.256C73.8118 70.308 73.9958 70.366 74.1838 70.43C74.3718 70.494 74.5558 70.568 74.7358 70.652C74.9158 70.732 75.0758 70.836 75.2158 70.964C75.3598 71.088 75.4738 71.238 75.5578 71.414C75.6458 71.59 75.6898 71.802 75.6898 72.05C75.6898 72.346 75.6358 72.62 75.5278 72.872C75.4198 73.12 75.2618 73.336 75.0538 73.52C74.8458 73.7 74.5878 73.842 74.2798 73.946C73.9758 74.046 73.6258 74.096 73.2298 74.096C73.0178 74.096 72.8098 74.076 72.6058 74.036C72.4058 74 72.2118 73.948 72.0238 73.88C71.8398 73.812 71.6678 73.732 71.5078 73.64C71.3518 73.548 71.2138 73.448 71.0938 73.34L71.4358 72.776C71.4798 72.708 71.5318 72.656 71.5918 72.62C71.6518 72.584 71.7278 72.566 71.8198 72.566C71.9118 72.566 71.9978 72.592 72.0778 72.644C72.1618 72.696 72.2578 72.752 72.3658 72.812C72.4738 72.872 72.5998 72.928 72.7438 72.98C72.8918 73.032 73.0778 73.058 73.3018 73.058C73.4778 73.058 73.6278 73.038 73.7518 72.998C73.8798 72.954 73.9838 72.898 74.0638 72.83C74.1478 72.762 74.2078 72.684 74.2438 72.596C74.2838 72.504 74.3038 72.41 74.3038 72.314C74.3038 72.17 74.2598 72.052 74.1718 71.96C74.0878 71.868 73.9738 71.788 73.8298 71.72C73.6898 71.652 73.5278 71.592 73.3438 71.54C73.1638 71.484 72.9778 71.424 72.7858 71.36C72.5978 71.296 72.4118 71.222 72.2278 71.138C72.0478 71.05 71.8858 70.94 71.7418 70.808C71.6018 70.676 71.4878 70.514 71.3998 70.322C71.3158 70.13 71.2738 69.898 71.2738 69.626C71.2738 69.374 71.3238 69.134 71.4238 68.906C71.5238 68.678 71.6698 68.48 71.8618 68.312C72.0578 68.14 72.2998 68.004 72.5878 67.904C72.8798 67.8 73.2158 67.748 73.5958 67.748C74.0198 67.748 74.4058 67.818 74.7538 67.958C75.1018 68.098 75.3918 68.282 75.6238 68.51L75.2878 69.044ZM81.8204 67.748C82.2804 67.748 82.6964 67.822 83.0684 67.97C83.4444 68.118 83.7644 68.328 84.0284 68.6C84.2924 68.872 84.4964 69.204 84.6404 69.596C84.7844 69.988 84.8564 70.426 84.8564 70.91C84.8564 71.398 84.7844 71.838 84.6404 72.23C84.4964 72.622 84.2924 72.956 84.0284 73.232C83.7644 73.508 83.4444 73.72 83.0684 73.868C82.6964 74.016 82.2804 74.09 81.8204 74.09C81.3604 74.09 80.9424 74.016 80.5664 73.868C80.1904 73.72 79.8684 73.508 79.6004 73.232C79.3364 72.956 79.1304 72.622 78.9824 72.23C78.8384 71.838 78.7664 71.398 78.7664 70.91C78.7664 70.426 78.8384 69.988 78.9824 69.596C79.1304 69.204 79.3364 68.872 79.6004 68.6C79.8684 68.328 80.1904 68.118 80.5664 67.97C80.9424 67.822 81.3604 67.748 81.8204 67.748ZM81.8204 72.95C82.3324 72.95 82.7104 72.778 82.9544 72.434C83.2024 72.09 83.3264 71.586 83.3264 70.922C83.3264 70.258 83.2024 69.752 82.9544 69.404C82.7104 69.056 82.3324 68.882 81.8204 68.882C81.3004 68.882 80.9164 69.058 80.6684 69.41C80.4204 69.758 80.2964 70.262 80.2964 70.922C80.2964 71.582 80.4204 72.086 80.6684 72.434C80.9164 72.778 81.3004 72.95 81.8204 72.95ZM86.0307 74V65.084H87.5127V68.6C87.7567 68.34 88.0327 68.134 88.3407 67.982C88.6487 67.826 89.0087 67.748 89.4207 67.748C89.7567 67.748 90.0627 67.818 90.3387 67.958C90.6187 68.094 90.8587 68.294 91.0587 68.558C91.2627 68.822 91.4187 69.148 91.5267 69.536C91.6387 69.924 91.6947 70.37 91.6947 70.874C91.6947 71.334 91.6327 71.76 91.5087 72.152C91.3847 72.544 91.2067 72.884 90.9747 73.172C90.7467 73.46 90.4687 73.686 90.1407 73.85C89.8167 74.01 89.4527 74.09 89.0487 74.09C88.8607 74.09 88.6887 74.07 88.5327 74.03C88.3767 73.994 88.2347 73.942 88.1067 73.874C87.9787 73.806 87.8587 73.724 87.7467 73.628C87.6387 73.528 87.5347 73.418 87.4347 73.298L87.3687 73.712C87.3447 73.816 87.3027 73.89 87.2427 73.934C87.1867 73.978 87.1087 74 87.0087 74H86.0307ZM88.9107 68.9C88.6027 68.9 88.3387 68.966 88.1187 69.098C87.9027 69.226 87.7007 69.408 87.5127 69.644V72.404C87.6807 72.612 87.8627 72.758 88.0587 72.842C88.2587 72.922 88.4747 72.962 88.7067 72.962C88.9307 72.962 89.1327 72.92 89.3127 72.836C89.4927 72.752 89.6447 72.624 89.7687 72.452C89.8967 72.28 89.9947 72.064 90.0627 71.804C90.1307 71.54 90.1647 71.23 90.1647 70.874C90.1647 70.514 90.1347 70.21 90.0747 69.962C90.0187 69.71 89.9367 69.506 89.8287 69.35C89.7207 69.194 89.5887 69.08 89.4327 69.008C89.2807 68.936 89.1067 68.9 88.9107 68.9ZM94.4345 67.844V74.21C94.4345 74.478 94.3985 74.73 94.3265 74.966C94.2585 75.202 94.1465 75.408 93.9905 75.584C93.8385 75.764 93.6365 75.904 93.3845 76.004C93.1365 76.108 92.8325 76.16 92.4725 76.16C92.3325 76.16 92.2025 76.15 92.0825 76.13C91.9625 76.114 91.8405 76.086 91.7165 76.046L91.7645 75.248C91.7765 75.168 91.8085 75.116 91.8605 75.092C91.9125 75.072 92.0125 75.062 92.1605 75.062C92.3085 75.062 92.4325 75.046 92.5325 75.014C92.6365 74.986 92.7185 74.938 92.7785 74.87C92.8425 74.806 92.8865 74.72 92.9105 74.612C92.9385 74.504 92.9525 74.37 92.9525 74.21V67.844H94.4345ZM94.6565 66.05C94.6565 66.178 94.6305 66.298 94.5785 66.41C94.5265 66.522 94.4565 66.62 94.3685 66.704C94.2845 66.788 94.1845 66.856 94.0685 66.908C93.9525 66.956 93.8285 66.98 93.6965 66.98C93.5685 66.98 93.4465 66.956 93.3305 66.908C93.2185 66.856 93.1205 66.788 93.0365 66.704C92.9525 66.62 92.8845 66.522 92.8325 66.41C92.7845 66.298 92.7605 66.178 92.7605 66.05C92.7605 65.918 92.7845 65.794 92.8325 65.678C92.8845 65.562 92.9525 65.462 93.0365 65.378C93.1205 65.294 93.2185 65.228 93.3305 65.18C93.4465 65.128 93.5685 65.102 93.6965 65.102C93.8285 65.102 93.9525 65.128 94.0685 65.18C94.1845 65.228 94.2845 65.294 94.3685 65.378C94.4565 65.462 94.5265 65.562 94.5785 65.678C94.6305 65.794 94.6565 65.918 94.6565 66.05ZM98.6231 67.748C99.0111 67.748 99.3671 67.81 99.6911 67.934C100.019 68.058 100.301 68.24 100.537 68.48C100.773 68.716 100.957 69.008 101.089 69.356C101.221 69.7 101.287 70.094 101.287 70.538C101.287 70.65 101.281 70.744 101.269 70.82C101.261 70.892 101.243 70.95 101.215 70.994C101.191 71.034 101.157 71.064 101.113 71.084C101.069 71.1 101.013 71.108 100.945 71.108H97.1411C97.1851 71.74 97.3551 72.204 97.6511 72.5C97.9471 72.796 98.3391 72.944 98.8271 72.944C99.0671 72.944 99.2731 72.916 99.4451 72.86C99.6211 72.804 99.7731 72.742 99.9011 72.674C100.033 72.606 100.147 72.544 100.243 72.488C100.343 72.432 100.439 72.404 100.531 72.404C100.591 72.404 100.643 72.416 100.687 72.44C100.731 72.464 100.769 72.498 100.801 72.542L101.233 73.082C101.069 73.274 100.885 73.436 100.681 73.568C100.477 73.696 100.263 73.8 100.039 73.88C99.8191 73.956 99.5931 74.01 99.3611 74.042C99.1331 74.074 98.9111 74.09 98.6951 74.09C98.2671 74.09 97.8691 74.02 97.5011 73.88C97.1331 73.736 96.8131 73.526 96.5411 73.25C96.2691 72.97 96.0551 72.626 95.8991 72.218C95.7431 71.806 95.6651 71.33 95.6651 70.79C95.6651 70.37 95.7331 69.976 95.8691 69.608C96.0051 69.236 96.1991 68.914 96.4511 68.642C96.7071 68.366 97.0171 68.148 97.3811 67.988C97.7491 67.828 98.1631 67.748 98.6231 67.748ZM98.6531 68.81C98.2211 68.81 97.8831 68.932 97.6391 69.176C97.3951 69.42 97.2391 69.766 97.1711 70.214H99.9551C99.9551 70.022 99.9291 69.842 99.8771 69.674C99.8251 69.502 99.7451 69.352 99.6371 69.224C99.5291 69.096 99.3931 68.996 99.2291 68.924C99.0651 68.848 98.8731 68.81 98.6531 68.81ZM106.815 69.146C106.771 69.202 106.727 69.246 106.683 69.278C106.643 69.31 106.583 69.326 106.503 69.326C106.427 69.326 106.353 69.304 106.281 69.26C106.209 69.212 106.123 69.16 106.023 69.104C105.923 69.044 105.803 68.992 105.663 68.948C105.527 68.9 105.357 68.876 105.153 68.876C104.893 68.876 104.665 68.924 104.469 69.02C104.273 69.112 104.109 69.246 103.977 69.422C103.849 69.598 103.753 69.812 103.689 70.064C103.625 70.312 103.593 70.594 103.593 70.91C103.593 71.238 103.627 71.53 103.695 71.786C103.767 72.042 103.869 72.258 104.001 72.434C104.133 72.606 104.293 72.738 104.481 72.83C104.669 72.918 104.881 72.962 105.117 72.962C105.353 72.962 105.543 72.934 105.687 72.878C105.835 72.818 105.959 72.754 106.059 72.686C106.159 72.614 106.245 72.55 106.317 72.494C106.393 72.434 106.477 72.404 106.569 72.404C106.689 72.404 106.779 72.45 106.839 72.542L107.265 73.082C107.101 73.274 106.923 73.436 106.731 73.568C106.539 73.696 106.339 73.8 106.131 73.88C105.927 73.956 105.715 74.01 105.495 74.042C105.275 74.074 105.057 74.09 104.841 74.09C104.461 74.09 104.103 74.02 103.767 73.88C103.431 73.736 103.137 73.528 102.885 73.256C102.637 72.984 102.439 72.652 102.291 72.26C102.147 71.864 102.075 71.414 102.075 70.91C102.075 70.458 102.139 70.04 102.267 69.656C102.399 69.268 102.591 68.934 102.843 68.654C103.095 68.37 103.407 68.148 103.779 67.988C104.151 67.828 104.579 67.748 105.063 67.748C105.523 67.748 105.925 67.822 106.269 67.97C106.617 68.118 106.929 68.33 107.205 68.606L106.815 69.146ZM110.23 74.096C109.698 74.096 109.288 73.946 109 73.646C108.712 73.342 108.568 72.924 108.568 72.392V68.954H107.944C107.864 68.954 107.794 68.928 107.734 68.876C107.678 68.824 107.65 68.746 107.65 68.642V68.054L108.64 67.892L108.952 66.212C108.968 66.132 109.004 66.07 109.06 66.026C109.12 65.982 109.194 65.96 109.282 65.96H110.05V67.898H111.67V68.954H110.05V72.29C110.05 72.482 110.098 72.632 110.194 72.74C110.29 72.848 110.418 72.902 110.578 72.902C110.67 72.902 110.746 72.892 110.806 72.872C110.87 72.848 110.924 72.824 110.968 72.8C111.016 72.776 111.058 72.754 111.094 72.734C111.13 72.71 111.166 72.698 111.202 72.698C111.246 72.698 111.282 72.71 111.31 72.734C111.338 72.754 111.368 72.786 111.4 72.83L111.844 73.55C111.628 73.73 111.38 73.866 111.1 73.958C110.82 74.05 110.53 74.096 110.23 74.096ZM114.427 67.844V74H112.945V67.844H114.427ZM114.649 66.05C114.649 66.178 114.623 66.298 114.571 66.41C114.519 66.522 114.449 66.62 114.361 66.704C114.277 66.788 114.177 66.856 114.061 66.908C113.945 66.956 113.821 66.98 113.689 66.98C113.561 66.98 113.439 66.956 113.323 66.908C113.211 66.856 113.113 66.788 113.029 66.704C112.945 66.62 112.877 66.522 112.825 66.41C112.777 66.298 112.753 66.178 112.753 66.05C112.753 65.918 112.777 65.794 112.825 65.678C112.877 65.562 112.945 65.462 113.029 65.378C113.113 65.294 113.211 65.228 113.323 65.18C113.439 65.128 113.561 65.102 113.689 65.102C113.821 65.102 113.945 65.128 114.061 65.18C114.177 65.228 114.277 65.294 114.361 65.378C114.449 65.462 114.519 65.562 114.571 65.678C114.623 65.794 114.649 65.918 114.649 66.05ZM116.37 74V68.96L115.836 68.876C115.72 68.856 115.626 68.816 115.554 68.756C115.486 68.696 115.452 68.612 115.452 68.504V67.898H116.37V67.442C116.37 67.09 116.422 66.774 116.526 66.494C116.634 66.214 116.786 65.976 116.982 65.78C117.182 65.584 117.424 65.434 117.708 65.33C117.992 65.226 118.312 65.174 118.668 65.174C118.952 65.174 119.216 65.212 119.46 65.288L119.43 66.032C119.422 66.148 119.368 66.22 119.268 66.248C119.168 66.276 119.052 66.29 118.92 66.29C118.744 66.29 118.586 66.31 118.446 66.35C118.31 66.386 118.194 66.452 118.098 66.548C118.002 66.64 117.928 66.764 117.876 66.92C117.828 67.072 117.804 67.262 117.804 67.49V67.898H119.406V68.954H117.852V74H116.37ZM123.967 69.044C123.927 69.108 123.885 69.154 123.841 69.182C123.797 69.206 123.741 69.218 123.673 69.218C123.601 69.218 123.523 69.198 123.439 69.158C123.359 69.118 123.265 69.074 123.157 69.026C123.049 68.974 122.925 68.928 122.785 68.888C122.649 68.848 122.487 68.828 122.299 68.828C122.007 68.828 121.777 68.89 121.609 69.014C121.441 69.138 121.357 69.3 121.357 69.5C121.357 69.632 121.399 69.744 121.483 69.836C121.571 69.924 121.685 70.002 121.825 70.07C121.969 70.138 122.131 70.2 122.311 70.256C122.491 70.308 122.675 70.366 122.863 70.43C123.051 70.494 123.235 70.568 123.415 70.652C123.595 70.732 123.755 70.836 123.895 70.964C124.039 71.088 124.153 71.238 124.237 71.414C124.325 71.59 124.369 71.802 124.369 72.05C124.369 72.346 124.315 72.62 124.207 72.872C124.099 73.12 123.941 73.336 123.733 73.52C123.525 73.7 123.267 73.842 122.959 73.946C122.655 74.046 122.305 74.096 121.909 74.096C121.697 74.096 121.489 74.076 121.285 74.036C121.085 74 120.891 73.948 120.703 73.88C120.519 73.812 120.347 73.732 120.187 73.64C120.031 73.548 119.893 73.448 119.773 73.34L120.115 72.776C120.159 72.708 120.211 72.656 120.271 72.62C120.331 72.584 120.407 72.566 120.499 72.566C120.591 72.566 120.677 72.592 120.757 72.644C120.841 72.696 120.937 72.752 121.045 72.812C121.153 72.872 121.279 72.928 121.423 72.98C121.571 73.032 121.757 73.058 121.981 73.058C122.157 73.058 122.307 73.038 122.431 72.998C122.559 72.954 122.663 72.898 122.743 72.83C122.827 72.762 122.887 72.684 122.923 72.596C122.963 72.504 122.983 72.41 122.983 72.314C122.983 72.17 122.939 72.052 122.851 71.96C122.767 71.868 122.653 71.788 122.509 71.72C122.369 71.652 122.207 71.592 122.023 71.54C121.843 71.484 121.657 71.424 121.465 71.36C121.277 71.296 121.091 71.222 120.907 71.138C120.727 71.05 120.565 70.94 120.421 70.808C120.281 70.676 120.167 70.514 120.079 70.322C119.995 70.13 119.953 69.898 119.953 69.626C119.953 69.374 120.003 69.134 120.103 68.906C120.203 68.678 120.349 68.48 120.541 68.312C120.737 68.14 120.979 68.004 121.267 67.904C121.559 67.8 121.895 67.748 122.275 67.748C122.699 67.748 123.085 67.818 123.433 67.958C123.781 68.098 124.071 68.282 124.303 68.51L123.967 69.044Z" fill="black"/>
<defs>
<filter id="filter0_d" x="0" y="0" width="182" height="266" filterUnits="userSpaceOnUse" color-interpolation-filters="sRGB">
<feFlood flood-opacity="0" result="BackgroundImageFix"/>
<feColorMatrix in="SourceAlpha" type="matrix" values="0 0 0 0 0 0 0 0 0 0 0 0 0 0 0 0 0 0 127 0"/>
<feOffset dy="4"/>
<feGaussianBlur stdDeviation="5"/>
<feColorMatrix type="matrix" values="0 0 0 0 0 0 0 0 0 0 0 0 0 0 0 0 0 0 0.25 0"/>
<feBlend mode="normal" in2="BackgroundImageFix" result="effect1_dropShadow"/>
<feBlend mode="normal" in="SourceGraphic" in2="effect1_dropShadow" result="shape"/>
</filter>
<filter id="filter1_d" x="56" y="131" width="70" height="62" filterUnits="userSpaceOnUse" color-interpolation-filters="sRGB">
<feFlood flood-opacity="0" result="BackgroundImageFix"/>
<feColorMatrix in="SourceAlpha" type="matrix" values="0 0 0 0 0 0 0 0 0 0 0 0 0 0 0 0 0 0 127 0"/>
<feOffset dy="-2"/>
<feColorMatrix type="matrix" values="0 0 0 0 0.0980392 0 0 0 0 0.54902 0 0 0 0 0.85098 0 0 0 1 0"/>
<feBlend mode="normal" in2="BackgroundImageFix" result="effect1_dropShadow"/>
<feBlend mode="normal" in="SourceGraphic" in2="effect1_dropShadow" result="shape"/>
</filter>
<filter id="filter2_d" x="104" y="217" width="48" height="23" filterUnits="userSpaceOnUse" color-interpolation-filters="sRGB">
<feFlood flood-opacity="0" result="BackgroundImageFix"/>
<feColorMatrix in="SourceAlpha" type="matrix" values="0 0 0 0 0 0 0 0 0 0 0 0 0 0 0 0 0 0 127 0"/>
<feOffset dy="4"/>
<feGaussianBlur stdDeviation="2"/>
<feColorMatrix type="matrix" values="0 0 0 0 0 0 0 0 0 0 0 0 0 0 0 0 0 0 0.25 0"/>
<feBlend mode="normal" in2="BackgroundImageFix" result="effect1_dropShadow"/>
<feBlend mode="normal" in="SourceGraphic" in2="effect1_dropShadow" result="shape"/>
</filter>
<linearGradient id="paint0_linear" x1="145.333" y1="232" x2="128" y2="232" gradientUnits="userSpaceOnUse">
<stop stop-color="#00E676"/>
<stop offset="1" stop-color="#00E676" stop-opacity="0.83"/>
</linearGradient>
</defs>
</svg>
