<svg width="14" height="14" viewBox="0 0 14 14" fill="none" xmlns="http://www.w3.org/2000/svg">
<path d="M12.3609 6.96141H6.77344V1.37391C6.77344 1.30516 6.71719 1.24891 6.64844 1.24891H6.24219C5.42232 1.24807 4.61035 1.40913 3.85287 1.72285C3.0954 2.03657 2.40732 2.49676 1.82812 3.07704C1.25786 3.64553 0.8036 4.3195 0.490625 5.06141C0.165625 5.83172 0 6.64891 0 7.49266C0 8.33641 0.165625 9.15204 0.490625 9.92235C0.804688 10.6645 1.25469 11.3333 1.82812 11.9067C2.40156 12.4802 3.06875 12.9302 3.8125 13.2442C4.58147 13.5705 5.40845 13.7379 6.24375 13.7364C7.06362 13.7372 7.87559 13.5762 8.63306 13.2625C9.39054 12.9488 10.0786 12.4886 10.6578 11.9083C11.2312 11.3348 11.6813 10.6677 11.9953 9.92391C12.3215 9.15495 12.489 8.32797 12.4875 7.49266V7.08641C12.4859 7.01766 12.4297 6.96141 12.3609 6.96141ZM13.7344 6.09422L13.6938 5.6536C13.5609 4.2161 12.9234 2.85985 11.8953 1.83641C10.8681 0.810105 9.51459 0.175056 8.06875 0.0410995L7.62656 0.000474574C7.55312 -0.00577543 7.49063 0.0504746 7.49063 0.123912V6.11922C7.49063 6.18797 7.54688 6.24422 7.61563 6.24422L13.6094 6.2286C13.6828 6.22704 13.7406 6.1661 13.7344 6.09422Z" fill="white"/>
</svg>
