<svg width="18" height="18" viewBox="0 0 18 18" fill="none" xmlns="http://www.w3.org/2000/svg">
<path d="M9 10.125C9.62132 10.125 10.125 9.62132 10.125 9C10.125 8.37868 9.62132 7.875 9 7.875C8.37868 7.875 7.875 8.37868 7.875 9C7.875 9.62132 8.37868 10.125 9 10.125Z" fill="white"/>
<path d="M16.4175 7.74L15.825 5.85C15.761 5.63157 15.6537 5.42825 15.5094 5.25219C15.3652 5.07613 15.187 4.93092 14.9854 4.82523C14.7838 4.71954 14.563 4.65553 14.3361 4.63702C14.1093 4.61851 13.881 4.64588 13.665 4.7175L13.41 4.8C13.2102 4.86603 12.9974 4.88279 12.7898 4.84884C12.5821 4.81488 12.3858 4.73123 12.2175 4.605L12.135 4.545C11.9707 4.41928 11.8383 4.25672 11.7484 4.07042C11.6585 3.88413 11.6137 3.67931 11.6175 3.4725V3.2625C11.6211 2.79152 11.4377 2.33834 11.1075 2.0025C10.9504 1.84384 10.7635 1.71777 10.5576 1.63154C10.3517 1.5453 10.1307 1.5006 9.90747 1.5H7.99497C7.5361 1.50593 7.09815 1.69289 6.77648 2.02019C6.4548 2.34748 6.27545 2.7886 6.27747 3.2475V3.4275C6.27674 3.6452 6.22718 3.85997 6.13242 4.05597C6.03767 4.25198 5.90014 4.42422 5.72997 4.56L5.63247 4.635C5.44447 4.77722 5.22459 4.87137 4.99193 4.90927C4.75927 4.94718 4.52088 4.92769 4.29747 4.8525C4.09228 4.78149 3.87481 4.75286 3.65824 4.76833C3.44166 4.7838 3.23048 4.84305 3.03747 4.9425C2.83651 5.04224 2.65822 5.18227 2.51371 5.35388C2.3692 5.52549 2.26155 5.725 2.19747 5.94L1.58247 7.89C1.43985 8.32965 1.47642 8.80781 1.68425 9.22065C1.89207 9.63349 2.25437 9.94769 2.69247 10.095H2.81247C3.01456 10.1707 3.19594 10.2931 3.3419 10.452C3.48785 10.611 3.59425 10.8022 3.65247 11.01L3.69747 11.13C3.78107 11.3596 3.80903 11.6058 3.77904 11.8483C3.74906 12.0908 3.66198 12.3227 3.52497 12.525C3.24763 12.9027 3.13065 13.3746 3.19947 13.8381C3.26829 14.3016 3.51735 14.7192 3.89247 15L5.44497 16.1775C5.73893 16.3912 6.09404 16.5043 6.45747 16.5C6.55473 16.5095 6.6527 16.5095 6.74997 16.5C6.97504 16.4564 7.18888 16.3675 7.37844 16.2385C7.56799 16.1096 7.72928 15.9433 7.85247 15.75L8.02497 15.5025C8.14597 15.3289 8.30608 15.1862 8.49238 15.0859C8.67868 14.9856 8.88595 14.9305 9.09747 14.925C9.31913 14.9195 9.53857 14.9703 9.7353 15.0726C9.93202 15.1749 10.0996 15.3254 10.2225 15.51L10.3125 15.6375C10.4403 15.8278 10.6058 15.9899 10.7987 16.1139C10.9916 16.2378 11.2078 16.321 11.4341 16.3582C11.6603 16.3954 11.8918 16.386 12.1142 16.3304C12.3366 16.2748 12.5453 16.1743 12.7275 16.035L14.25 14.895C14.6099 14.6154 14.8493 14.2087 14.9191 13.7583C14.9888 13.3079 14.8836 12.8478 14.625 12.4725L14.43 12.1875C14.3127 12.0063 14.2359 11.802 14.2049 11.5884C14.1738 11.3748 14.1892 11.1571 14.25 10.95C14.3119 10.7283 14.4269 10.5251 14.585 10.3578C14.7432 10.1906 14.9396 10.0643 15.1575 9.99L15.3075 9.9375C15.7415 9.78689 16.1 9.47342 16.3071 9.06335C16.5142 8.65327 16.5538 8.17872 16.4175 7.74ZM8.99997 11.625C8.48079 11.625 7.97327 11.471 7.54159 11.1826C7.10991 10.8942 6.77346 10.4842 6.57478 10.0045C6.3761 9.52489 6.32412 8.99709 6.4254 8.48789C6.52669 7.97869 6.7767 7.51096 7.14381 7.14385C7.51092 6.77673 7.97865 6.52672 8.48785 6.42544C8.99705 6.32415 9.52485 6.37614 10.0045 6.57482C10.4842 6.7735 10.8941 7.10995 11.1826 7.54163C11.471 7.97331 11.625 8.48082 11.625 9C11.625 9.69619 11.3484 10.3639 10.8561 10.8562C10.3638 11.3484 9.69616 11.625 8.99997 11.625Z" fill="white"/>
</svg>
