<svg width="16" height="16" viewBox="0 0 16 16" fill="none" xmlns="http://www.w3.org/2000/svg">
<path d="M8 0C6.90909 0 6.05682 0.420635 5.44318 1.2619C4.82955 2.10317 4.52273 3.17857 4.52273 4.4881C4.51515 6.11508 5.01515 7.40476 6.02273 8.35714C6.15152 8.48413 6.19697 8.64683 6.15909 8.84524L5.89773 9.41667C5.81439 9.60714 5.69129 9.75595 5.52841 9.8631C5.36553 9.97024 5.02273 10.123 4.5 10.3214C4.47727 10.3294 3.99811 10.4921 3.0625 10.8095C2.12689 11.127 1.62879 11.3016 1.56818 11.3333C0.931818 11.6111 0.515152 11.9008 0.318182 12.2024C0.106061 12.7024 0 13.9683 0 16H16C16 13.9683 15.8939 12.7024 15.6818 12.2024C15.4848 11.9008 15.0682 11.6111 14.4318 11.3333C14.3712 11.3016 13.8731 11.127 12.9375 10.8095C12.0019 10.4921 11.5227 10.3294 11.5 10.3214C10.9773 10.123 10.6345 9.97024 10.4716 9.8631C10.3087 9.75595 10.1856 9.60714 10.1023 9.41667L9.84091 8.84524C9.80303 8.64683 9.84848 8.48413 9.97727 8.35714C10.9848 7.40476 11.4848 6.11508 11.4773 4.4881C11.4773 3.17857 11.1705 2.10317 10.5568 1.2619C9.94318 0.420635 9.09091 0 8 0Z" fill="white"/>
</svg>
