<svg width="16" height="16" viewBox="0 0 16 16" fill="none" xmlns="http://www.w3.org/2000/svg">
<path d="M0 2.5C0 1.83696 0.263392 1.20107 0.732233 0.732233C1.20107 0.263392 1.83696 0 2.5 0H11.5C12.163 0 12.7989 0.263392 13.2678 0.732233C13.7366 1.20107 14 1.83696 14 2.5V6.6C12.9648 6.07116 11.7886 5.88393 10.6404 6.06518C9.49212 6.24643 8.43082 6.78684 7.60883 7.60883C6.78684 8.43082 6.24643 9.49212 6.06518 10.6404C5.88393 11.7886 6.07116 12.9648 6.6 14H2.5C1.83696 14 1.20107 13.7366 0.732233 13.2678C0.263392 12.7989 0 12.163 0 11.5V2.5ZM5.854 3.854C5.90049 3.80751 5.93736 3.75232 5.96252 3.69158C5.98768 3.63084 6.00063 3.56574 6.00063 3.5C6.00063 3.43426 5.98768 3.36916 5.96252 3.30842C5.93736 3.24768 5.90049 3.19249 5.854 3.146C5.80751 3.09951 5.75232 3.06264 5.69158 3.03748C5.63084 3.01232 5.56574 2.99937 5.5 2.99937C5.43426 2.99937 5.36916 3.01232 5.30842 3.03748C5.24768 3.06264 5.19249 3.09951 5.146 3.146L3.5 4.793L2.854 4.146C2.76011 4.05211 2.63278 3.99937 2.5 3.99937C2.36722 3.99937 2.23989 4.05211 2.146 4.146C2.05211 4.23989 1.99937 4.36722 1.99937 4.5C1.99937 4.63278 2.05211 4.76011 2.146 4.854L3.146 5.854C3.19245 5.90056 3.24762 5.93751 3.30837 5.96271C3.36911 5.98792 3.43423 6.00089 3.5 6.00089C3.56577 6.00089 3.63089 5.98792 3.69163 5.96271C3.75238 5.93751 3.80755 5.90056 3.854 5.854L5.854 3.854ZM5.854 8.146C5.80755 8.09944 5.75238 8.06249 5.69163 8.03729C5.63089 8.01208 5.56577 7.99911 5.5 7.99911C5.43423 7.99911 5.36911 8.01208 5.30837 8.03729C5.24762 8.06249 5.19245 8.09944 5.146 8.146L3.5 9.793L2.854 9.146C2.76011 9.05211 2.63278 8.99937 2.5 8.99937C2.36722 8.99937 2.23989 9.05211 2.146 9.146C2.05211 9.23989 1.99937 9.36722 1.99937 9.5C1.99937 9.63278 2.05211 9.76011 2.146 9.854L3.146 10.854C3.19245 10.9006 3.24762 10.9375 3.30837 10.9627C3.36911 10.9879 3.43423 11.0009 3.5 11.0009C3.56577 11.0009 3.63089 10.9879 3.69163 10.9627C3.75238 10.9375 3.80755 10.9006 3.854 10.854L5.854 8.854C5.90056 8.80755 5.93751 8.75238 5.96271 8.69163C5.98792 8.63089 6.00089 8.56577 6.00089 8.5C6.00089 8.43423 5.98792 8.36911 5.96271 8.30837C5.93751 8.24762 5.90056 8.19245 5.854 8.146ZM7.5 4C7.36739 4 7.24021 4.05268 7.14645 4.14645C7.05268 4.24021 7 4.36739 7 4.5C7 4.63261 7.05268 4.75979 7.14645 4.85355C7.24021 4.94732 7.36739 5 7.5 5H10.5C10.6326 5 10.7598 4.94732 10.8536 4.85355C10.9473 4.75979 11 4.63261 11 4.5C11 4.36739 10.9473 4.24021 10.8536 4.14645C10.7598 4.05268 10.6326 4 10.5 4H7.5Z" fill="white"/>
<path d="M11.5 16C12.6935 16 13.8381 15.5259 14.682 14.682C15.5259 13.8381 16 12.6935 16 11.5C16 10.3065 15.5259 9.16193 14.682 8.31802C13.8381 7.47411 12.6935 7 11.5 7C10.3065 7 9.16193 7.47411 8.31802 8.31802C7.47411 9.16193 7 10.3065 7 11.5C7 12.6935 7.47411 13.8381 8.31802 14.682C9.16193 15.5259 10.3065 16 11.5 16ZM11.5 9C11.6326 9 11.7598 9.05268 11.8536 9.14645C11.9473 9.24021 12 9.36739 12 9.5V11H13.5C13.6326 11 13.7598 11.0527 13.8536 11.1464C13.9473 11.2402 14 11.3674 14 11.5C14 11.6326 13.9473 11.7598 13.8536 11.8536C13.7598 11.9473 13.6326 12 13.5 12H12V13.5C12 13.6326 11.9473 13.7598 11.8536 13.8536C11.7598 13.9473 11.6326 14 11.5 14C11.3674 14 11.2402 13.9473 11.1464 13.8536C11.0527 13.7598 11 13.6326 11 13.5V12H9.5C9.36739 12 9.24021 11.9473 9.14645 11.8536C9.05268 11.7598 9 11.6326 9 11.5C9 11.3674 9.05268 11.2402 9.14645 11.1464C9.24021 11.0527 9.36739 11 9.5 11H11V9.5C11 9.36739 11.0527 9.24021 11.1464 9.14645C11.2402 9.05268 11.3674 9 11.5 9Z" fill="white"/>
</svg>
